<?xml version="1.0" standalone="no"?>
<!DOCTYPE svg PUBLIC "-//W3C//DTD SVG 1.1//EN" "http://www.w3.org/Graphics/SVG/1.1/DTD/svg11.dtd" >
<svg>
<metadata>
Created by FontForge 20090914 at Wed Oct 26 12:42:14 2016
 By www-data
&#194;&#169; 1990-2006 Apple Computer Inc. &#194;&#169; 1981 Linotype AG &#194;&#169; 1990-91 Type Solutions Inc.
</metadata>
<defs>
<font id="Helvetica-Light" horiz-adv-x="556" >
  <font-face 
    font-family="Helvetica"
    font-weight="300"
    font-stretch="normal"
    units-per-em="1000"
    panose-1="2 11 4 3 2 2 2 2 2 4"
    ascent="718"
    descent="-282"
    x-height="518"
    cap-height="714"
    bbox="-453 -354.999 1345 1206"
    underline-thickness="50"
    underline-position="-50"
    unicode-range="U+0020-U+FE48"
  />
<missing-glyph horiz-adv-x="500" 
d="M0 700h500v-700h-500v700zM420 650h-340l170 -255zM450 95v510l-170 -255zM420 50l-170 255l-170 -255h340zM50 95l170 255l-170 255v-510z" />
    <glyph glyph-name="fi" unicode="fi" horiz-adv-x="500" 
d="M13 468v50h79v82c0 41.333 8.33301 74 25 98s45 36 85 36c9.33301 0 18 -0.333008 26 -1s16 -1.66699 24 -3v-55c-13.333 3.33301 -25.333 5 -36 5c-15.333 0 -27.333 -2.83301 -36 -8.5s-15 -13.167 -19 -22.5s-6.5 -19.833 -7.5 -31.5s-1.5 -23.5 -1.5 -35.5v-64h98
v-50h-98v-468h-60v468h-79zM372 0v518h60v-518h-60zM435 631h-66v89h66v-89z" />
    <glyph glyph-name="fl" unicode="fl" horiz-adv-x="500" 
d="M13 468v50h79v82c0 41.333 8.33301 74 25 98s45 36 85 36c9.33301 0 18 -0.333008 26 -1s16 -1.66699 24 -3v-55c-13.333 3.33301 -25.333 5 -36 5c-15.333 0 -27.333 -2.83301 -36 -8.5s-15 -13.167 -19 -22.5s-6.5 -19.833 -7.5 -31.5s-1.5 -23.5 -1.5 -35.5v-64h98
v-50h-98v-468h-60v468h-79zM372 0v720h60v-720h-60z" />
    <glyph glyph-name=".notdef" horiz-adv-x="500" 
d="M0 700h500v-700h-500v700zM420 650h-340l170 -255zM450 95v510l-170 -255zM420 50l-170 255l-170 -255h340zM50 95l170 255l-170 255v-510z" />
    <glyph glyph-name="space" unicode=" " horiz-adv-x="278" 
 />
    <glyph glyph-name="exclam" unicode="!" horiz-adv-x="333" 
d="M130 496v224h73v-224l-14 -315h-45zM130 0v88h73v-88h-73z" />
    <glyph glyph-name="quotedbl" unicode="&#x22;" horiz-adv-x="278" 
d="M57 720h52v-226h-52v226zM168 720h52v-226h-52v226z" />
    <glyph glyph-name="numbersign" unicode="#" 
d="M504 228h-111l-32 -228h-59l31 228h-137l-34 -228h-59l34 228h-110v59h119l21 140h-112v59h120l32 212h60l-32 -212h136l31 212h59l-31 -212h100v-59h-108l-20 -140h102v-59zM227 427l-22 -140h138l20 140h-136z" />
    <glyph glyph-name="dollar" unicode="$" 
d="M255 651c-18.667 0 -36.167 -2.99902 -52.5 -8.99902s-30.666 -14.5 -42.999 -25.5s-22 -24.167 -29 -39.5s-10.5 -32.333 -10.5 -51c0 -22 3.5 -40.333 10.5 -55s16.667 -26.834 29 -36.501s26.666 -17.5 42.999 -23.5s33.833 -11.667 52.5 -17v257zM302 35.001
c20.667 0 40.166 3.66699 58.499 11s34.5 17.333 48.5 30s25 27.834 33 45.501s12 37.167 12 58.5c0 24.667 -4 45.167 -12 61.5s-18.833 29.666 -32.5 39.999s-29.667 18.5 -48 24.5s-38.166 11.333 -59.499 16v-287zM301.999 -94.999l-46.002 0.00195312v76
c-56.667 3.33301 -103.5 19 -140.5 47s-61.5 70 -73.5 126c-1.33301 8.66699 -2.33301 17 -3 25l-2 24h65c0 -22.667 3.66699 -43.834 11 -63.501s17.833 -37 31.5 -52s29.834 -27.167 48.501 -36.5s39.334 -14.666 62.001 -15.999v297
c-27.333 6.66699 -53.166 14.5 -77.499 23.5s-45.5 20.667 -63.5 35s-32.167 32.166 -42.5 53.499s-15.5 47.666 -15.5 78.999c0 28 5.33301 53.333 16 76s25.167 42 43.5 58s39.5 28.167 63.5 36.5s49.667 12.166 77 11.499v61h46v-61
c27.333 0 52.666 -3.83301 75.999 -11.5s43.666 -19 60.999 -34s31 -33.5 41 -55.5s15.667 -47 17 -75h-65c0 18 -3.5 34.5 -10.5 49.5s-16.333 27.833 -28 38.5s-25.334 19 -41.001 25s-32.5 9 -50.5 9v-266c32.667 -8 62.334 -16.667 89.001 -26
s49.334 -21.666 68.001 -36.999s33.167 -35.166 43.5 -59.499s15.5 -55.5 15.5 -93.5c0 -29.333 -6.33301 -55.5 -19 -78.5s-29.167 -42.5 -49.5 -58.5s-43.5 -28.333 -69.5 -37s-52 -13.334 -78 -14.001v-76z" />
    <glyph glyph-name="percent" unicode="%" horiz-adv-x="889" 
d="M658 331c22.667 0 44 -4.33301 64 -13s37.333 -20.5 52 -35.5s26.167 -32.5 34.5 -52.5s12.5 -41.333 12.5 -64s-4.16699 -44.167 -12.5 -64.5s-19.833 -38 -34.5 -53s-32 -26.833 -52 -35.5s-41.333 -13 -64 -13s-44.167 4.33301 -64.5 13s-38 20.5 -53 35.5
s-26.833 32.667 -35.5 53s-13 41.833 -13 64.5s4.5 44 13.5 64s21 37.5 36 52.5s32.5 26.833 52.5 35.5s41.333 13 64 13zM657 274c-15.333 0 -29.499 -3 -42.499 -9s-24.333 -14 -34 -24s-17.334 -21.667 -23.001 -35s-8.5 -27.333 -8.5 -42c0 -14 3 -27.5 9 -40.5
s14 -24.5 24 -34.5s21.5 -17.833 34.5 -23.5s26.5 -8.5 40.5 -8.5c14.667 0 28.5 3 41.5 9s24.333 14 34 24s17.334 21.5 23.001 34.5s8.5 26.833 8.5 41.5s-2.83301 28.5 -8.5 41.5s-13.334 24.5 -23.001 34.5s-21 17.833 -34 23.5s-26.833 8.5 -41.5 8.5zM398.001 532
c0 -22.667 -4.33301 -44 -13 -64s-20.5 -37.5 -35.5 -52.5s-32.667 -26.833 -53 -35.5s-41.833 -13 -64.5 -13s-44 4.33301 -64 13s-37.5 20.5 -52.5 35.5s-26.833 32.5 -35.5 52.5s-13 41.333 -13 64s4.33301 44 13 64s20.5 37.5 35.5 52.5s32.5 27 52.5 36
s41.333 13.5 64 13.5s44.167 -4.33301 64.5 -13s38 -20.5 53 -35.5s26.833 -32.667 35.5 -53s13 -41.833 13 -64.5zM232.001 424c14.667 0 28.5 2.83301 41.5 8.5s24.5 13.5 34.5 23.5s18 21.5 24 34.5s9 26.833 9 41.5s-2.83301 28.5 -8.5 41.5s-13.5 24.5 -23.5 34.5
s-21.667 18 -35 24s-27.333 9 -42 9s-28.5 -2.83301 -41.5 -8.5s-24.5 -13.5 -34.5 -23.5s-17.833 -21.667 -23.5 -35s-8.5 -27.333 -8.5 -42s2.83301 -28.5 8.5 -41.5s13.5 -24.5 23.5 -34.5s21.5 -17.833 34.5 -23.5s26.833 -8.5 41.5 -8.5zM271.001 -14h-52l397 719h52z
" />
    <glyph glyph-name="ampersand" unicode="&#x26;" horiz-adv-x="667" 
d="M249 375c-20 -9.33301 -38.501 -20.5029 -55.501 -33.5029s-31.667 -27.5 -44 -43.5s-22.166 -33.167 -29.499 -51.5s-11 -37.166 -11 -56.499c0 -24 4.16699 -45.5 12.5 -64.5s19.666 -35.167 33.999 -48.5s31.333 -23.666 51 -30.999s41.167 -11 64.5 -11
c38.667 0 72.834 8.83301 102.501 26.5s56.5 40.834 80.5 69.501zM377.999 539.997c6 13.333 8.49902 27.501 7.49902 42.501s-5.33301 28.667 -13 41s-18.167 22.5 -31.5 30.5s-29.333 12 -48 12c-12.667 0 -24.667 -2 -36 -6s-21.5 -9.66699 -30.5 -17
s-16.167 -16.333 -21.5 -27s-8 -22.667 -8 -36c0 -10.667 2.66699 -22.334 8 -35.001s11.833 -25 19.5 -37s15.834 -23.5 24.501 -34.5l23 -28.5c20 12 40.167 25.167 60.5 39.5s35.5 32.833 45.5 55.5zM487.998 185.998c12.667 21.333 20.8291 43.8301 24.4961 67.4971
s5.5 47.834 5.5 72.501h59c-1.33301 -32.667 -5.5 -65.167 -12.5 -97.5s-19.5 -62.5 -37.5 -90.5l117 -138h-81l-70 85c-31.333 -37.333 -65 -64 -101 -80s-78 -24 -126 -24c-31.333 0 -60.666 5.16699 -87.999 15.5s-51.166 24.833 -71.499 43.5s-36.333 41.167 -48 67.5
s-17.5 55.5 -17.5 87.5c0 26.667 4.66699 51.334 14 74.001s21.833 43.334 37.5 62.001s33.834 35.167 54.501 49.5s42.667 26.833 66 37.5c-19.333 22.667 -37 47.167 -53 73.5s-24 55.5 -24 87.5c0 22.667 4.33301 42.834 13 60.501s20.334 32.5 35.001 44.5
s31.834 21 51.501 27s40.5 9 62.5 9s42.333 -3.66699 61 -11s34.667 -17.333 48 -30s23.666 -27.5 30.999 -44.5s11 -34.833 11 -53.5c0 -24 -3.83301 -44.833 -11.5 -62.5s-18 -33.334 -31 -47.001s-28.167 -26.167 -45.5 -37.5l-54 -34z" />
    <glyph glyph-name="quotesingle" unicode="'" horiz-adv-x="222" 
d="M85 720h52v-226h-52v226z" />
    <glyph glyph-name="parenleft" unicode="(" horiz-adv-x="333" 
d="M277 739c-48 -69.333 -85.502 -143.498 -112.502 -222.498s-40.5 -160.833 -40.5 -245.5c0 -83.333 14 -164 42 -242s65 -151.333 111 -220h-51c-27.333 38 -51.666 74.833 -72.999 110.5s-39.333 72 -54 109s-25.667 75.667 -33 116s-11 84.166 -11 131.499
c0 46 3.83301 89.167 11.5 129.5s18.834 79.166 33.501 116.499s32.5 73.833 53.5 109.5s45.167 71.5 72.5 107.5h51z" />
    <glyph glyph-name="parenright" unicode=")" horiz-adv-x="333" 
d="M56 -191c48 69.333 85.5029 143.498 112.503 222.498s40.5 160.833 40.5 245.5c0 83.333 -14 164 -42 242s-65 151.333 -111 220h51c27.333 -38 51.666 -74.833 72.999 -110.5s39.166 -72 53.499 -109s25.333 -75.667 33 -116s11.5 -84.166 11.5 -131.499
c0 -46 -3.83301 -89.167 -11.5 -129.5s-18.834 -79.166 -33.501 -116.499s-32.667 -73.833 -54 -109.5s-45.333 -71.5 -72 -107.5h-51z" />
    <glyph glyph-name="asterisk" unicode="*" horiz-adv-x="389" 
d="M173 603v117h42v-117l114 42l15 -44l-114 -37l75 -106l-39 -24l-74 108l-78 -106l-35 27l77 101l-112 40l18 42z" />
    <glyph glyph-name="plus" unicode="+" horiz-adv-x="660" 
d="M300 500h60v-220h220v-60h-220v-220h-60v220h-220v60h220v220z" />
    <glyph glyph-name="comma" unicode="," horiz-adv-x="278" 
d="M175 -30c0 -29.333 -6.83301 -52.8311 -20.5 -70.498s-31.167 -29.834 -52.5 -36.501v37c8 5.33301 15.667 12.666 23 21.999s11 24 11 44v34h-34v88h73v-118z" />
    <glyph glyph-name="hyphen" unicode="-" horiz-adv-x="333" 
d="M293 291v-62h-253v62h253z" />
    <glyph glyph-name="period" unicode="." horiz-adv-x="278" 
d="M102 0v88h73v-88h-73z" />
    <glyph glyph-name="slash" unicode="/" horiz-adv-x="278" 
d="M53 -90h-56l235 829h56z" />
    <glyph glyph-name="zero" unicode="0" 
d="M452 347c0 38 -2.16699 75.166 -6.5 111.499s-12.833 68.833 -25.5 97.5s-30.5 51.667 -53.5 69s-53.167 26 -90.5 26c-35.333 0 -64.166 -8.83301 -86.499 -26.5s-39.833 -41.167 -52.5 -70.5s-21.5 -62.666 -26.5 -99.999s-7.5 -75.333 -7.5 -114
c0 -45.333 2.83301 -86.5 8.5 -123.5s15.167 -68.5 28.5 -94.5s31.166 -46.167 53.499 -60.5s50.5 -21.5 84.5 -21.5c38 0 68.5 9.33301 91.5 28s40.5 42.667 52.5 72s20 62.333 24 99s6 72.667 6 108zM278 704.999c34.667 0 64.6709 -5.16895 90.0039 -15.502
s46.833 -24.5 64.5 -42.5s32 -39 43 -63s19.5 -49.5 25.5 -76.5s10 -54.833 12 -83.5s3 -56.667 3 -84c0 -46.667 -3.33301 -91.334 -10 -134.001s-18.834 -80.334 -36.501 -113.001s-41.834 -58.667 -72.501 -78s-70.334 -29 -119.001 -29s-88.5 9.66699 -119.5 29
s-55.333 45.5 -73 78.5s-29.834 71.333 -36.501 115s-10 89.834 -10 138.501c0 44.667 3 88.334 9 131.001s17.5 80.834 34.5 114.501s41.167 60.834 72.5 81.501s72.333 31 123 31z" />
    <glyph glyph-name="one" unicode="1" 
d="M302 524l-182.001 0.000976562v42c26.667 2 50.834 4.66699 72.501 8s40.667 9.66602 57 18.999s30 22.833 41 40.5s19.167 41.5 24.5 71.5h51v-705h-64v524z" />
    <glyph glyph-name="two" unicode="2" 
d="M69 474c0 34.667 5.33496 66.1709 16.002 94.5039s26 52.666 46 72.999s44.167 36 72.5 47s59.833 16.5 94.5 16.5c35.333 0 66.5 -5.16699 93.5 -15.5s49.667 -24.166 68 -41.499s32.166 -38 41.499 -62s14 -49.333 14 -76c0 -31.333 -5.16699 -59 -15.5 -83
s-24 -45.333 -41 -64s-36.333 -35.334 -58 -50.001s-43.834 -28.5 -66.501 -41.5l-67 -37.5c-22 -12 -41.667 -24.667 -59 -38c-11.333 -8.66699 -22.333 -17.834 -33 -27.501s-20.334 -20.167 -29.001 -31.5s-15.667 -23.833 -21 -37.5s-8.33301 -28.834 -9 -45.501h393
v-54h-461c0.666992 34 4.33398 64.667 11.001 92s21.334 54 44.001 80c24.667 28 50.167 52 76.5 72s52.166 37.833 77.499 53.5l72 43c22.667 13 42.667 27.167 60 42.5s31 32.666 41 51.999s15 43 15 71c0 22.667 -4 43 -12 61s-19 33.333 -33 46s-30.333 22.167 -49 28.5
s-39 9.5 -61 9.5c-23.333 0 -44.5 -4.83301 -63.5 -14.5s-35.333 -22.5 -49 -38.5s-24.167 -34.667 -31.5 -56s-10.333 -44 -9 -68h-68z" />
    <glyph glyph-name="three" unicode="3" 
d="M221 392c30 0 57.332 1.83496 81.999 5.50195s45.834 10.667 63.501 21s31.5 24.166 41.5 41.499s15 39.666 15 66.999c0 22 -4 40.833 -12 56.5s-18.833 28.5 -32.5 38.5s-29.667 17.333 -48 22s-37.5 7 -57.5 7c-22.667 0 -43.167 -3.66699 -61.5 -11
s-34.166 -17.833 -47.499 -31.5s-23.666 -29.667 -30.999 -48s-11 -38.5 -11 -60.5h-64c0 32 5.5 60.833 16.5 86.5s28.167 49.5 51.5 71.5c22 20 46.833 32.833 74.5 38.5s56.167 8.5 85.5 8.5c28 0 54.167 -3.5 78.5 -10.5s45.5 -17.667 63.5 -32s32.333 -32.5 43 -54.5
s16 -47.667 16 -77c0 -36.667 -8.16699 -68.334 -24.5 -95.001s-41.5 -47.334 -75.5 -62.001c25.333 -8 46.166 -18.5 62.499 -31.5s29.166 -27.333 38.499 -43s15.666 -32.167 18.999 -49.5s5 -34 5 -50c0 -29.333 -5 -56.666 -15 -81.999s-24.667 -47.666 -44 -66.999
s-43.166 -34.833 -71.499 -46.5s-60.5 -17.834 -96.5 -18.501c-40.667 0 -76 3.66699 -106 11s-55 19.5 -75 36.5s-35.667 39.333 -47 67s-19 62.167 -23 103.5h64c0 -54 16.167 -94.833 48.5 -122.5s74.5 -41.5 126.5 -41.5c25.333 0 49 4.33301 71 13
s40.833 20.334 56.5 35.001s27.667 31.667 36 51s12.166 39.333 11.499 60c-1.33301 28.667 -8 52.5 -20 71.5s-28.167 34 -48.5 45s-44.166 18.333 -71.499 22s-56.333 4.5 -87 2.5v52z" />
    <glyph glyph-name="four" unicode="4" 
d="M358 174h-322v55l328 469h58v-470h98v-54h-98v-174h-64v174zM99 228h259v374z" />
    <glyph glyph-name="five" unicode="5" 
d="M99 183c6.66699 -48 25.833 -83.833 57.5 -107.5s70.5 -35.5 116.5 -35.5c26 0 49.5 4.66699 70.5 14s38.833 22.166 53.5 38.499s25.834 35.333 33.501 57s11.5 45.167 11.5 70.5c0 26 -4.16699 50 -12.5 72s-20 41 -35 57s-33.333 28.333 -55 37s-45.834 13 -72.501 13
c-32 0 -60.667 -5.83301 -86 -17.5s-47.666 -30.167 -66.999 -55.5l-53 7l57 365h350v-54h-296l-44 -237c14 8.66699 26.833 16 38.5 22s23.5 10.833 35.5 14.5s24.5 6.16699 37.5 7.5s27.5 2 43.5 2c32 0 61.667 -5.33301 89 -16s51 -26 71 -46s35.5 -44.5 46.5 -73.5
s16.5 -61.5 16.5 -97.5c0 -37.333 -6.16699 -70.5 -18.5 -99.5s-28.833 -53.5 -49.5 -73.5s-44.5 -35.167 -71.5 -45.5s-54.833 -15.5 -83.5 -15.5c-33.333 0 -64.5 3.33301 -93.5 10s-54.5 17.834 -76.5 33.501s-39.833 36 -53.5 61s-21.834 55.833 -24.501 92.5h64z" />
    <glyph glyph-name="six" unicode="6" 
d="M437 532c-7.33301 36 -21.999 64.834 -43.999 86.501s-52 32.5 -90 32.5c-43.333 0 -77.5 -10.333 -102.5 -31s-44.167 -46.834 -57.5 -78.501s-22.333 -66.167 -27 -103.5s-8.33398 -72.666 -11.001 -105.999l31.5 40c11 13.333 23.5 25.166 37.5 35.499
s30.333 18.666 49 24.999s41 9.5 67 9.5c71.333 0 126.5 -20.167 165.5 -60.5s58.5 -95.833 58.5 -166.5c0 -71.333 -19.667 -127.333 -59 -168s-95 -61 -167 -61c-35.333 0 -68 5.83301 -98 17.5s-56 30.834 -78 57.501s-39.333 61.5 -52 104.5s-19 95.5 -19 157.5
c0 42 3.66699 85.5 11 130.5s20.5 86.167 39.5 123.5s45 68 78 92s75.5 36 127.5 36c56 0 102.667 -14.667 140 -44s59.333 -72.333 66 -129h-66zM288.001 388.001c-24.667 0 -46.834 -4.66699 -66.501 -14s-36.334 -22 -50.001 -38s-24.167 -34.5 -31.5 -55.5
s-11 -43.5 -11 -67.5c0 -20 2.83301 -40.167 8.5 -60.5s15 -38.833 28 -55.5s29.5 -30.334 49.5 -41.001s44.667 -16 74 -16c30 0 55.167 5.16699 75.5 15.5s36.833 24 49.5 41s21.834 36 27.501 57s8.5 42.167 8.5 63.5c0 54.667 -13.167 96.834 -39.5 126.501
s-67.166 44.5 -122.499 44.5z" />
    <glyph glyph-name="seven" unicode="7" 
d="M59 698h449v-60c-50.667 -57.333 -93.667 -116.166 -129 -176.499s-64.333 -119 -87 -176s-39.5 -110.167 -50.5 -159.5s-17.5 -91.333 -19.5 -126h-70c3.33301 50.667 13.5 104.5 30.5 161.5s38.167 113.5 63.5 169.5s54 110.167 86 162.5s65 99.166 99 140.499h-372v64
z" />
    <glyph glyph-name="eight" unicode="8" 
d="M279 345c-24.667 0 -47.334 -2.99707 -68.001 -8.99707s-38.667 -15.167 -54 -27.5s-27.333 -28 -36 -47s-13 -41.5 -13 -67.5c0 -22 4.16699 -42.333 12.5 -61s20 -34.834 35 -48.501s33.333 -24.5 55 -32.5s45.834 -12 72.501 -12c23.333 0 45 3.83301 65 11.5
s37.5 18.5 52.5 32.5s26.667 30.667 35 50s12.5 40.666 12.5 63.999c0 24.667 -4.33301 46.167 -13 64.5s-20.667 33.666 -36 45.999s-33.333 21.5 -54 27.5s-42.667 9 -66 9zM276 651.003c-20 0 -38.667 -2.66504 -56 -7.99805s-32.5 -13.333 -45.5 -24
s-23.167 -24 -30.5 -40s-11 -34.333 -11 -55c0 -22 4.16699 -40.833 12.5 -56.5s19.5 -28.5 33.5 -38.5s30 -17.5 48 -22.5s36.667 -7.5 56 -7.5s37.333 2.5 54 7.5s31 13.167 43 24.5s21.5 25.666 28.5 42.999s10.5 38.666 10.5 63.999c0 36 -11.667 63.833 -35 83.5
s-59.333 29.5 -108 29.5zM167 379.005c-17.333 10.667 -32.167 20.835 -44.5 30.502s-22.5 20.167 -30.5 31.5s-13.833 24.166 -17.5 38.499s-5.5 32.166 -5.5 53.499c0 24 5.33301 46.667 16 68s25 39.833 43 55.5s39.167 27.834 63.5 36.501s50.5 12.667 78.5 12
c26.667 0 52.834 -3.33301 78.501 -10s48.5 -17 68.5 -31s36 -31.833 48 -53.5s18 -47.5 18 -77.5c0 -36.667 -7.5 -68 -22.5 -94s-39.5 -47.333 -73.5 -64c38.667 -14 69.167 -36.333 91.5 -67s33.5 -66.667 33.5 -108c0 -34.667 -5.83301 -65.334 -17.5 -92.001
s-28.334 -49 -50.001 -67s-47.834 -31.667 -78.501 -41s-64.667 -14 -102 -14c-25.333 0 -51.166 4.33301 -77.499 13s-50 21.667 -71 39s-38.167 39 -51.5 65s-20 56.333 -20 91c0 42 10.5 79.5 31.5 112.5s51.5 57.167 91.5 72.5z" />
    <glyph glyph-name="nine" unicode="9" 
d="M118 155c7.33301 -38 22.167 -66.666 44.5 -85.999s53.166 -29 92.499 -29c42 0 75.5 10.333 100.5 31s44.333 46.667 58 78s23 65.166 28 101.499s8.16699 70.5 9.5 102.5l-2 2c-21.333 -36 -47.833 -63.333 -79.5 -82s-68.5 -28 -110.5 -28
c-33.333 0 -63.333 5.33301 -90 16s-49.5 26 -68.5 46s-33.667 44 -44 72s-15.5 59 -15.5 93c0 33.333 4.66699 64.166 14 92.499s23.333 53 42 74s42.167 37.333 70.5 49s61.833 17.5 100.5 17.5c47.333 0 86.833 -9.33301 118.5 -28s57 -44 76 -76s32.5 -69.667 40.5 -113
s12 -89.666 12 -138.999c0 -60 -6.33301 -112.5 -19 -157.5s-30.5 -82.833 -53.5 -113.5s-50.167 -53.667 -81.5 -69s-65.666 -23 -102.999 -23c-27.333 0 -53 3.33301 -77 10s-45 17 -63 31s-32.667 31.667 -44 53s-18.333 46.333 -21 75h65zM268.001 651.001
c-54 -1.33301 -94.6689 -17.999 -122.002 -49.999s-41 -75.667 -41 -131c0 -54 14.167 -96 42.5 -126s68.5 -45 120.5 -45c24.667 0 46.834 4.66699 66.501 14s36.334 22 50.001 38s24 34.5 31 55.5s10.5 43.5 10.5 67.5c0 52 -14 94.167 -42 126.5
s-66.667 49.166 -116 50.499z" />
    <glyph glyph-name="colon" unicode=":" horiz-adv-x="278" 
d="M102 0v88h73v-88h-73zM102 404v88h73v-88h-73z" />
    <glyph glyph-name="semicolon" unicode=";" horiz-adv-x="278" 
d="M175 -30c0 -29.333 -6.83301 -52.8311 -20.5 -70.498s-31.167 -29.834 -52.5 -36.501v37c8 5.33301 15.667 12.666 23 21.999s11 24 11 44v34h-34v88h73v-118zM102 404.002v88h73v-88h-73z" />
    <glyph glyph-name="less" unicode="&#x3c;" horiz-adv-x="660" 
d="M580 58v-64l-500 235v53l500 223v-64l-421 -186z" />
    <glyph glyph-name="equal" unicode="=" horiz-adv-x="660" 
d="M580 318h-500v60h500v-60zM580 124h-500v60h500v-60z" />
    <glyph glyph-name="greater" unicode="&#x3e;" horiz-adv-x="660" 
d="M580 229l-500 -235v64l421 197l-421 186v64l500 -223v-53z" />
    <glyph glyph-name="question" unicode="?" horiz-adv-x="500" 
d="M216 182c-0.666992 36.667 1.83105 69.9961 7.49805 99.9961s21.5 58.667 47.5 86c14.667 15.333 30 30.333 46 45s30.667 29.5 44 44.5s24.5 30.5 33.5 46.5s13.5 33.333 13.5 52c0 18 -3.5 34.833 -10.5 50.5s-17.167 29.334 -30.5 41.001
s-29.666 20.834 -48.999 27.501s-41.333 10 -66 10s-46.667 -4.33301 -66 -13s-35.5 -20.667 -48.5 -36s-22.833 -33.166 -29.5 -53.499s-9.66699 -42.5 -9 -66.5h-61c-2.66699 33.333 1 63.666 11 90.999s24.833 50.833 44.5 70.5s43.167 34.834 70.5 45.501
s57.333 16 90 16c34 0 64.5 -4.5 91.5 -13.5s49.833 -21.667 68.5 -38s33 -36.166 43 -59.499s15 -49 15 -77c0 -29.333 -6.5 -54.5 -19.5 -75.5s-28.833 -40.5 -47.5 -58.5l-58 -54.5c-20 -18.333 -37.333 -38.833 -52 -61.5c-11.333 -17.333 -17.666 -36.5 -18.999 -57.5
s-2 -41.5 -2 -61.5h-58zM209.998 -0.00390625v88h73v-88h-73z" />
    <glyph glyph-name="at" unicode="@" horiz-adv-x="800" 
d="M743 167c-16 -29.333 -35.6729 -55.5107 -59.0059 -78.5107s-49.166 -42.5 -77.499 -58.5s-58.5 -28.167 -90.5 -36.5s-64.333 -12.5 -97 -12.5c-53.333 0 -103.166 10 -149.499 30s-86.5 47.333 -120.5 82s-60.667 75.167 -80 121.5s-29 95.833 -29 148.5
c0 52 10 100.833 30 146.5s47.167 85.5 81.5 119.5s74.166 60.833 119.499 80.5s93.333 29.5 144 29.5c48 0 93 -7.83301 135 -23.5s78.5 -37.5 109.5 -65.5s55.5 -61.333 73.5 -100s27 -81 27 -127c0 -39.333 -7.16699 -76.666 -21.5 -111.999s-32.666 -66.333 -54.999 -93
s-47.333 -47.834 -75 -63.501s-54.834 -23.5 -81.501 -23.5c-17.333 0 -34.5 4.16699 -51.5 12.5s-28.5 21.5 -34.5 39.5c-15.333 -15.333 -33.666 -27.5 -54.999 -36.5s-42.666 -13.5 -63.999 -13.5s-40.666 4 -57.999 12s-32 18.833 -44 32.5s-21.167 29.5 -27.5 47.5
s-9.5 37.333 -9.5 58c0 33.333 6 67.833 18 103.5s28.833 68.334 50.5 98.001s47.667 54 78 73s64.166 28.5 101.499 28.5c23.333 0 45.333 -5.66699 66 -17s36 -27.666 46 -48.999l15 46h67l-101 -302c-4 -11.333 -7.16699 -21.833 -9.5 -31.5
s-3.16602 -18.167 -2.49902 -25.5s3.16699 -13.166 7.5 -17.499s11.5 -6.5 21.5 -6.5c20.667 0 40.667 7.66699 60 23s36.333 34.833 51 58.5s26.334 49.834 35.001 78.501s13 56.334 13 83.001c0 40.667 -7.66699 77.334 -23 110.001s-36 60.334 -62 83.001s-56 40 -90 52
s-70 18 -108 18c-46 0 -88.5 -8.83301 -127.5 -26.5s-72.5 -41.667 -100.5 -72s-49.833 -65.666 -65.5 -105.999s-23.5 -83.166 -23.5 -128.499s8.16699 -87.666 24.5 -126.999s38.833 -73.666 67.5 -102.999s62.334 -52.5 101.001 -69.5s80.667 -25.5 126 -25.5
c26 0 51.5 3 76.5 9s49 14.833 72 26.5s44.333 26 64 43s37.167 36.167 52.5 57.5h59zM336.994 195.989c22.667 0 44.002 9.33203 64.002 27.999s37.5 41.167 52.5 67.5s26.833 54.333 35.5 84s13 55.834 13 78.501c0 19.333 -6.33301 36.333 -19 51s-29.334 22 -50.001 22
c-26.667 0 -50.667 -8.16699 -72 -24.5s-39.5 -36.666 -54.5 -60.999s-26.667 -50.333 -35 -78s-12.5 -52.834 -12.5 -75.501c0 -24 6.66699 -45.333 20 -64s32.666 -28 57.999 -28z" />
    <glyph glyph-name="A" unicode="A" horiz-adv-x="667" 
d="M15 0l283 720h77l276 -720h-70l-83 226h-328l-85 -226h-70zM193 284h282l-141 378z" />
    <glyph glyph-name="B" unicode="B" horiz-adv-x="667" 
d="M149 58l173 0.000976562c37.333 0 69.833 1.66699 97.5 5s50.5 10.166 68.5 20.499s31.5 25 40.5 44s13.5 44.167 13.5 75.5c0 30 -5 54.167 -15 72.5s-24.333 32.5 -43 42.5s-41 16.833 -67 20.5s-55 5.5 -87 5.5h-181v-286zM149 402.001l172 -0.00195312
c35.333 0 65 3 89 9s43.333 14.833 58 26.5s25.167 26 31.5 43s9.5 36.5 9.5 58.5c0 22.667 -3.66699 41.834 -11 57.501s-19 28.334 -35 38.001s-36.833 16.667 -62.5 21s-57.167 6.5 -94.5 6.5h-157v-260zM81 -0.000976562l0.00390625 719.998h260
c42 0 78 -4.33301 108 -13s54.5 -21 73.5 -37s32.833 -35.167 41.5 -57.5s13 -46.833 13 -73.5c0 -25.333 -3.33301 -47.166 -10 -65.499s-15.334 -33.666 -26.001 -45.999s-22.834 -22 -36.501 -29s-27.834 -11.833 -42.501 -14.5v-2c50 -7.33301 87.167 -27 111.5 -59
s36.5 -72 36.5 -120c0 -37.333 -5.83301 -69 -17.5 -95s-27.834 -47 -48.501 -63s-45.5 -27.5 -74.5 -34.5s-60.5 -10.5 -94.5 -10.5h-294z" />
    <glyph glyph-name="C" unicode="C" horiz-adv-x="722" 
d="M592 511c-14 61.333 -40.0029 104.995 -78.0029 130.995s-87.667 39 -149 39c-43.333 0 -80.666 -8.66699 -111.999 -26s-57.166 -40.666 -77.499 -69.999s-35.333 -63.166 -45 -101.499s-14.5 -78.833 -14.5 -121.5c0 -40 4.16699 -79.333 12.5 -118
s22.166 -73.167 41.499 -103.5s45.333 -54.833 78 -73.5s73.667 -28 123 -28c30.667 0 58.667 5 84 15s47.5 23.833 66.5 41.5s35 38.5 48 62.5s22.833 50.333 29.5 79h71c-8 -34.667 -19.667 -67.5 -35 -98.5s-35.5 -58.167 -60.5 -81.5s-55.333 -41.833 -91 -55.5
s-77.5 -20.5 -125.5 -20.5c-55.333 0 -102.666 10.167 -141.999 30.5s-71.5 47.833 -96.5 82.5s-43.167 74.834 -54.5 120.501s-17 94.167 -17 145.5c0 68.667 8.5 127 25.5 175s40.5 87.167 70.5 117.5s65.333 52.333 106 66s85 20.5 133 20.5
c36.667 0 70.834 -4.83301 102.501 -14.5s59.667 -24.167 84 -43.5s44.333 -43.166 60 -71.499s26.5 -61.166 32.5 -98.499h-70z" />
    <glyph glyph-name="D" unicode="D" horiz-adv-x="722" 
d="M81 0v720h246c20 0 39.667 -0.5 59 -1.5s38.333 -3.33301 57 -7s36.834 -9.16699 54.501 -16.5s34.834 -17 51.501 -29c24 -17.333 43.667 -38.5 59 -63.5s27.5 -51.333 36.5 -79s15.333 -55.667 19 -84s5.5 -54.5 5.5 -78.5s-1.5 -48.333 -4.5 -73
s-7.83301 -48.834 -14.5 -72.501s-15.5 -46.334 -26.5 -68.001s-24.833 -41.5 -41.5 -59.5c-16.667 -18.667 -34.834 -33.667 -54.501 -45s-40.334 -20.166 -62.001 -26.499s-44.167 -10.666 -67.5 -12.999s-47 -3.5 -71 -3.5h-246zM149 58l162.998 0.000976562
c30.667 0 59.5 1.83301 86.5 5.5s54.5 12.834 82.5 27.501c24 12 43.667 28.333 59 49s27.5 43.167 36.5 67.5s15.333 49.833 19 76.5s5.5 52.334 5.5 77.001c0 26 -1.66699 52.5 -5 79.5s-9.66602 52.667 -18.999 77s-22 46.666 -38 66.999s-36.667 37.166 -62 50.499
c-21.333 11.333 -46.666 18.666 -75.999 21.999s-59 5 -89 5h-163v-604z" />
    <glyph glyph-name="E" unicode="E" horiz-adv-x="611" 
d="M81 0v720h479v-58h-411v-260h371v-58h-371v-286h421v-58h-489z" />
    <glyph glyph-name="F" unicode="F" 
d="M74 0v720h464v-58h-396v-260h360v-58h-360v-344h-68z" />
    <glyph glyph-name="G" unicode="G" horiz-adv-x="778" 
d="M387 314l0.000976562 57.9971h308v-372h-58v123c-12.667 -21.333 -27.167 -40.833 -43.5 -58.5s-35.166 -32.667 -56.499 -45s-46 -21.833 -74 -28.5s-59.667 -10 -95 -10c-45.333 0 -87.333 8 -126 24s-72 39.833 -100 71.5s-49.833 71.5 -65.5 119.5
s-23.5 104 -23.5 168c0 52.667 6.66699 101.834 20 147.501s33.833 85.334 61.5 119.001s62.334 60.167 104.001 79.5s90.834 29 147.501 29c38 0 73.5 -4.66699 106.5 -14s62.667 -23.5 89 -42.5s48.5 -42.667 66.5 -71s31 -61.833 39 -100.5h-70
c-6 26.667 -16.167 50.667 -30.5 72s-31.5 39.166 -51.5 53.499s-42.333 25.333 -67 33s-50.334 11.5 -77.001 11.5c-47.333 0 -88 -8.33301 -122 -25s-62 -40.167 -84 -70.5s-38.167 -66.666 -48.5 -108.999s-15.5 -88.833 -15.5 -139.5c0 -40 5.83301 -78 17.5 -114
s28.667 -67.667 51 -95s49.666 -49 81.999 -65s69.166 -24 110.499 -24c19.333 0 39.333 2.16699 60 6.5s40.667 11.5 60 21.5s37.333 23 54 39s31 35.667 43 59c11.333 22.667 19.166 46.334 23.499 71.001s6.83301 50.667 7.5 78h-243z" />
    <glyph glyph-name="H" unicode="H" horiz-adv-x="722" 
d="M80 0v720h68v-309h426v309h68v-720h-68v353h-426v-353h-68z" />
    <glyph glyph-name="I" unicode="I" horiz-adv-x="278" 
d="M105 0v720h68v-720h-68z" />
    <glyph glyph-name="J" unicode="J" horiz-adv-x="500" 
d="M90 228c0 -22.667 0.835938 -45 2.50293 -67s6.66699 -41.833 15 -59.5s21.333 -31.834 39 -42.501s42.167 -16 73.5 -16c46.667 0 79.5 13.333 98.5 40s28.5 65.334 28.5 116.001v521h68v-523c0 -70 -16.333 -123.5 -49 -160.5s-84 -55.5 -154 -55.5
c-40.667 0 -73.334 6.83301 -98.001 20.5s-43.834 32 -57.501 55s-22.834 49.333 -27.501 79s-7 60.5 -7 92.5h68z" />
    <glyph glyph-name="K" unicode="K" horiz-adv-x="667" 
d="M85 0v720h68v-373l369 373h77l-284 -287l334 -433h-83l-300 391l-113 -113v-278h-68z" />
    <glyph glyph-name="L" unicode="L" 
d="M81 0v720h68v-662h386v-58h-454z" />
    <glyph glyph-name="M" unicode="M" horiz-adv-x="833" 
d="M78 0v720h104l236 -635h2l232 635h103v-720h-68v642h-2l-236 -642h-64l-237 642h-2v-642h-68z" />
    <glyph glyph-name="N" unicode="N" horiz-adv-x="722" 
d="M149 628h-2v-628h-68v720h77l416 -629h2v629h68v-720h-79z" />
    <glyph glyph-name="O" unicode="O" horiz-adv-x="778" 
d="M53 359c0 52.667 7.16895 101.999 21.502 147.999s35.5 86.167 63.5 120.5s62.667 61.5 104 81.5s89 30 143 30c56 0 105.167 -9.83301 147.5 -29.5s77.666 -46.667 105.999 -81s49.666 -74.666 63.999 -120.999s21.5 -95.833 21.5 -148.5
c0 -52 -7.16699 -100.833 -21.5 -146.5s-35.5 -85.667 -63.5 -120s-63 -61.5 -105 -81.5s-90.667 -30 -146 -30s-104 10 -146 30s-77 47.167 -105 81.5s-49 74.333 -63 120s-21 94.5 -21 146.5zM389.002 38.999c46.667 0 86.8291 8.83398 120.496 26.501
s61.334 41.167 83.001 70.5s37.667 63.333 48 102s15.5 79 15.5 121c0 50 -6.16699 94.833 -18.5 134.5s-30.166 73.5 -53.499 101.5s-51.666 49.333 -84.999 64s-70.666 22 -111.999 22c-46 0 -85.833 -9 -119.5 -27s-61.334 -41.833 -83.001 -71.5
s-37.667 -63.834 -48 -102.501s-15.5 -79 -15.5 -121c0 -42.667 5.16699 -83.334 15.5 -122.001s26.333 -72.667 48 -102s49.334 -52.666 83.001 -69.999s74.167 -26 121.5 -26z" />
    <glyph glyph-name="P" unicode="P" horiz-adv-x="611" 
d="M78 0v720.001h263c46.667 0 85.167 -5.33301 115.5 -16s54.333 -25.334 72 -44.001s30 -40.167 37 -64.5s10.5 -49.833 10.5 -76.5c0 -40 -8.16699 -73 -24.5 -99s-37.5 -46.5 -63.5 -61.5s-55.5 -25.5 -88.5 -31.5s-66.167 -9 -99.5 -9h-154v-318h-68zM302 376.001
c32 0 60.667 2.00098 86 6.00098s46.833 11.5 64.5 22.5s31.334 26 41.001 45s14.5 43.833 14.5 74.5c0 45.333 -14.833 79.666 -44.5 102.999s-76.834 35 -141.501 35h-176v-286h156z" />
    <glyph glyph-name="Q" unicode="Q" horiz-adv-x="778" 
d="M707 -6l-38.001 -46.001l-106 82c-24.667 -15.333 -51.834 -27.333 -81.501 -36s-62.5 -13 -98.5 -13c-55.333 0 -104 10 -146 30s-77 47.167 -105 81.5s-49 74.333 -63 120s-21 94.5 -21 146.5c0 50 6.83301 97.833 20.5 143.5s34.167 86 61.5 121s61.833 63 103.5 84
s90.5 31.5 146.5 31.5c50.667 0 96.834 -8.33301 138.501 -25s77.334 -41 107.001 -73s52.667 -71.667 69 -119s24.5 -101.666 24.5 -162.999c0 -58.667 -9 -113 -27 -163s-45 -92.667 -81 -128zM560.999 106.999c30.667 29.333 53.334 66.167 68.001 110.5
s22 91.5 22 141.5c0 54 -6.83301 101 -20.5 141s-32.5 73.5 -56.5 100.5s-52.333 47.167 -85 60.5s-68.334 20 -107.001 20c-46 0 -85.833 -9 -119.5 -27s-61.334 -42 -83.001 -72s-37.667 -64.333 -48 -103s-15.5 -78.667 -15.5 -120
c0 -42.667 5.16699 -83.334 15.5 -122.001s26.333 -72.667 48 -102s49.334 -52.666 83.001 -69.999s74.167 -26 121.5 -26c25.333 0 48.333 2.83301 69 8.5s39.667 13.5 57 23.5l-82 63l36 47z" />
    <glyph glyph-name="R" unicode="R" horiz-adv-x="667" 
d="M360 385c25.333 0 48.833 2.66699 70.5 8s40.5 13.833 56.5 25.5s28.667 26.5 38 44.5s14 39.667 14 65c0 26.667 -4.83301 48.667 -14.5 66s-22.667 31 -39 41s-35 17 -56 21s-42.833 6 -65.5 6h-216v-277h212zM148 327v-326.999h-68v720h282
c79.333 0 140 -14.833 182 -44.5s63 -77.834 63 -144.501c0 -45.333 -9.16699 -81.333 -27.5 -108s-48.166 -49.334 -89.499 -68.001c21.333 -7.33301 38 -18 50 -32s21 -30 27 -48s9.83301 -37 11.5 -57s2.83398 -39.333 3.50098 -58
c0.666992 -27.333 1.83398 -50 3.50098 -68s3.66699 -32.667 6 -44s5.16602 -20.166 8.49902 -26.499s7.33301 -11.166 12 -14.499v-7h-75c-7.33301 12 -12.5 28.667 -15.5 50s-5.33301 43.666 -7 66.999s-3 46 -4 68s-2.83301 40 -5.5 54
c-4 19.333 -10.5 34.833 -19.5 46.5s-19.833 20.5 -32.5 26.5s-26.834 10 -42.501 12s-31.834 3 -48.501 3h-214z" />
    <glyph glyph-name="S" unicode="S" horiz-adv-x="611" 
d="M109 215c2.66699 -32 9.83398 -59.166 21.501 -81.499s26.667 -40.5 45 -54.5s39.5 -24.167 63.5 -30.5s49.667 -9.5 77 -9.5c32 0 59.667 4 83 12s42.333 18.833 57 32.5s25.5 29.5 32.5 47.5s10.5 37 10.5 57c0 28 -6.33301 50.667 -19 68s-29.167 31.5 -49.5 42.5
s-43.666 19.833 -69.999 26.5s-53.333 13.167 -81 19.5s-54.667 13.833 -81 22.5s-49.666 20.334 -69.999 35.001s-36.833 33.5 -49.5 56.5s-19 52.167 -19 87.5c0 24.667 5.16699 48.667 15.5 72s25.666 44 45.999 62s45.833 32.333 76.5 43s66 16 106 16
c40.667 0 76.167 -5.66699 106.5 -17s55.5 -26.833 75.5 -46.5s35 -42.5 45 -68.5s15 -53.667 15 -83h-65c0 27.333 -4.83301 51 -14.5 71s-22.834 36.333 -39.501 49s-35.667 22 -57 28s-43.333 9 -66 9c-34.667 0 -63.834 -4.83301 -87.501 -14.5
s-42.5 -22.167 -56.5 -37.5s-23.667 -32.333 -29 -51s-6.33301 -37.334 -3 -56.001c4 -23.333 13.333 -42 28 -56s32.667 -25.5 54 -34.5s44.833 -16.333 70.5 -22l78.5 -18c26.667 -6.33301 52.5 -13.833 77.5 -22.5s47.167 -20.334 66.5 -35.001s34.833 -33.5 46.5 -56.5
s17.5 -51.833 17.5 -86.5c0 -66.667 -23 -118.334 -69 -155.001s-110.667 -55 -194 -55c-37.333 0 -72 4.83301 -104 14.5s-59.667 24.334 -83 44.001s-41.5 44 -54.5 73s-19.5 63.167 -19.5 102.5h66z" />
    <glyph glyph-name="T" unicode="T" 
d="M16 720h524v-58h-228v-662h-68v662h-228v58z" />
    <glyph glyph-name="U" unicode="U" horiz-adv-x="722" 
d="M82 720l67.999 -0.000976562v-429c0 -89.333 16.667 -153.666 50 -192.999s87 -59 161 -59c38.667 0 71.5 5.16699 98.5 15.5s48.833 26 65.5 47s28.667 47.167 36 78.5s11 68.333 11 111v429h68v-449c0 -94 -23.167 -165.833 -69.5 -215.5
s-116.166 -74.5 -209.499 -74.5c-94 0 -164 25.333 -210 76s-69 122 -69 214v449z" />
    <glyph glyph-name="V" unicode="V" horiz-adv-x="611" 
d="M18 720h71l217 -640l216 640h71l-250 -720h-75z" />
    <glyph glyph-name="W" unicode="W" horiz-adv-x="889" 
d="M646 96h2l157 624h70l-189 -720h-75l-167 636h-2l-167 -636h-75l-186 720h68l155 -624h2l167 624h76z" />
    <glyph glyph-name="X" unicode="X" horiz-adv-x="611" 
d="M304 318l-209 -318h-77l248 370l-238 350h79l197 -303l198 303h79l-236 -350l247 -370h-78z" />
    <glyph glyph-name="Y" unicode="Y" horiz-adv-x="611" 
d="M302 373l217 347h79l-261 -406v-314h-68v309l-257 411h78z" />
    <glyph glyph-name="Z" unicode="Z" horiz-adv-x="611" 
d="M31 0v57l461 605h-422v58h506v-57l-461 -605h464v-58h-548z" />
    <glyph glyph-name="bracketleft" unicode="[" horiz-adv-x="333" 
d="M91 -191v930h191v-50h-127v-830h125v-50h-189z" />
    <glyph glyph-name="backslash" unicode="\" horiz-adv-x="278" 
d="M-10 739h56l235 -829h-56z" />
    <glyph glyph-name="bracketright" unicode="]" horiz-adv-x="333" 
d="M242 -191h-191v50h127v830h-125v50h189v-930z" />
    <glyph glyph-name="asciicircum" unicode="^" horiz-adv-x="660" 
d="M73 245l230 453h52l231 -453h-57l-201 392l-197 -392h-58z" />
    <glyph glyph-name="underscore" unicode="_" horiz-adv-x="500" 
d="M500 -75v-50h-500v50h500z" />
    <glyph glyph-name="grave" unicode="`" horiz-adv-x="333" 
d="M45 713h78l111 -139h-51z" />
    <glyph glyph-name="a" unicode="a" 
d="M411 272c-25.333 -10.667 -51.001 -17.667 -77.001 -21s-52 -6 -78 -8c-46 -3.33301 -81.833 -13.666 -107.5 -30.999s-38.5 -43.666 -38.5 -78.999c0 -16 3.16699 -29.833 9.5 -41.5s14.666 -21.334 24.999 -29.001s22.333 -13.334 36 -17.001s27.5 -5.5 41.5 -5.5
c24 0 47.333 3 70 9s42.834 15.167 60.501 27.5s31.834 28 42.501 47s16 41.5 16 67.5v81zM309.999 302c11.333 1.33301 24.835 3.33008 40.502 5.99707s28.5 6.33398 38.5 11.001s16.167 12.5 18.5 23.5s3.5 21.167 3.5 30.5c0 30.667 -9.83301 55.834 -29.5 75.501
s-52.834 29.5 -99.501 29.5c-20.667 0 -39.667 -1.83301 -57 -5.5s-32.5 -10 -45.5 -19s-23.667 -21 -32 -36s-13.833 -33.833 -16.5 -56.5h-61c2 30.667 9 56.834 21 78.501s27.5 39.334 46.5 53.001s41 23.667 66 30s51.5 9.5 79.5 9.5c26 0 50.5 -2.83301 73.5 -8.5
s43 -14.667 60 -27s30.333 -28.833 40 -49.5s14.5 -46 14.5 -76v-282c0 -23.333 4.16699 -38.166 12.5 -44.499s25.166 -4.83301 50.499 4.5v-47l-20.5 -6c-9 -2.66699 -17.833 -4 -26.5 -4c-9.33301 0 -18.333 1 -27 3c-10 1.33301 -18 4.5 -24 9.5s-10.833 11 -14.5 18
s-6.16699 14.667 -7.5 23s-2 17.166 -2 26.499c-25.333 -28 -54.333 -49.333 -87 -64s-68 -22 -106 -22c-22.667 0 -44.5 3 -65.5 9s-39.5 15.333 -55.5 28s-28.667 28.167 -38 46.5s-14 40.166 -14 65.499c0 88 60.333 140 181 156z" />
    <glyph glyph-name="b" unicode="b" horiz-adv-x="611" 
d="M139 261c0 -31.333 3.83496 -60.498 11.502 -87.498s18.834 -50.333 33.501 -70s33 -35.167 55 -46.5s47 -17 75 -17c25.333 0 48.666 4.5 69.999 13.5s40 22.167 56 39.5s28.5 38.5 37.5 63.5s13.5 53.833 13.5 86.5c1.33301 32.667 -1.33398 63.167 -8.00098 91.5
s-17.334 53.166 -32.001 74.499s-33.5 38.166 -56.5 50.499s-49.833 18.5 -80.5 18.5c-27.333 0 -51.833 -5.83301 -73.5 -17.5s-40 -27.334 -55 -47.001s-26.5 -42.667 -34.5 -69s-12 -54.166 -12 -83.499zM139.002 0.00195312l-60.001 -0.00195312v720h60v-285
c19.333 32 45.833 56.167 79.5 72.5s68.834 24.5 105.501 24.5c39.333 0 73.5 -7.5 102.5 -22.5s53 -35 72 -60s33.167 -54.167 42.5 -87.5s14 -68 14 -104c0 -38 -4.33301 -73.667 -13 -107s-22.5 -62.166 -41.5 -86.499s-43.167 -43.5 -72.5 -57.5s-65 -21 -107 -21
c-16.667 0 -33.667 2.33301 -51 7s-34.166 11.334 -50.499 20.001s-31.333 19.5 -45 32.5s-24.834 28.167 -33.501 45.5h-2v-91z" />
    <glyph glyph-name="c" unicode="c" 
d="M439 355c-10.667 38.667 -29.0029 68.8359 -55.0029 90.5029s-59 32.5 -99 32.5c-30.667 0 -57 -6.33301 -79 -19s-40 -29.5 -54 -50.5s-24.333 -44.667 -31 -71s-10 -52.833 -10 -79.5c0 -27.333 3.16699 -54 9.5 -80s16.5 -49.333 30.5 -70s32 -37.167 54 -49.5
s48.667 -18.5 80 -18.5c44.667 0 80.5 12.333 107.5 37s44.167 58.667 51.5 102h64c-5.33301 -28.667 -13.833 -54.834 -25.5 -78.501s-26.667 -44 -45 -61s-40.166 -30.167 -65.499 -39.5s-54.333 -14 -87 -14c-41.333 0 -77 7 -107 21s-54.667 33.167 -74 57.5
s-33.666 53.166 -42.999 86.499s-14 69 -14 107c0 36 5.16699 70.5 15.5 103.5s25.5 62.167 45.5 87.5s44.833 45.5 74.5 60.5s63.834 22.5 102.501 22.5c60 0 108.5 -14.333 145.5 -43s60.167 -73.334 69.5 -134.001h-61z" />
    <glyph glyph-name="d" unicode="d" horiz-adv-x="611" 
d="M472 261c0 29.333 -3.99707 57.1641 -11.9971 83.4971s-19.5 49.333 -34.5 69s-33.333 35.334 -55 47.001s-46.167 17.5 -73.5 17.5c-31.333 0 -58.333 -6.16699 -81 -18.5s-41.334 -29.166 -56.001 -50.499s-25.334 -46.166 -32.001 -74.499
s-9.33398 -58.833 -8.00098 -91.5c0 -32.667 4.5 -61.5 13.5 -86.5s21.5 -46.167 37.5 -63.5s34.667 -30.5 56 -39.5s44.666 -13.5 69.999 -13.5c28 0 53 5.66699 75 17s40.333 26.833 55 46.5s25.834 43 33.501 70s11.5 56.167 11.5 87.5zM472.003 719.998
l59.999 0.00195312v-720h-60v91h-2c-8.66699 -17.333 -19.834 -32.5 -33.501 -45.5s-28.667 -23.833 -45 -32.5s-33.166 -15.334 -50.499 -20.001s-34.333 -7 -51 -7c-42 0 -77.667 7 -107 21s-53.5 33.167 -72.5 57.5s-32.833 53.166 -41.5 86.499s-13 69 -13 107
c0 36 4.66699 70.667 14 104s23.5 62.5 42.5 87.5s43 45 72 60s63.167 22.5 102.5 22.5c36.667 0 71.834 -8.16699 105.501 -24.5s60.167 -40.5 79.5 -72.5v285z" />
    <glyph glyph-name="e" unicode="e" 
d="M447 295c0 25.333 -3.49805 49.168 -10.498 71.501s-17.333 41.666 -31 57.999s-30.834 29.333 -51.501 39s-44.334 14.5 -71.001 14.5s-50.167 -5 -70.5 -15s-37.666 -23.333 -51.999 -40s-25.833 -36 -34.5 -58s-14.334 -45.333 -17.001 -70h338zM109.002 245.002
c0 -28 3.66992 -54.499 11.0029 -79.499s18.166 -46.667 32.499 -65s32.5 -33 54.5 -44s47.333 -16.5 76 -16.5c39.333 0 73 10.333 101 31s46.667 50 56 88h67c-7.33301 -24.667 -17 -47.5 -29 -68.5s-27 -39.333 -45 -55s-39.333 -27.834 -64 -36.501
s-53.334 -13 -86.001 -13c-41.333 0 -77 7 -107 21s-54.667 33.167 -74 57.5s-33.666 53 -42.999 86s-14 68.5 -14 106.5s5.5 73.667 16.5 107s26.667 62.5 47 87.5s45.166 44.667 74.499 59s62.666 21.5 99.999 21.5c71.333 0 127.333 -24.5 168 -73.5
s60.667 -120.167 60 -213.5h-402z" />
    <glyph glyph-name="f" unicode="f" horiz-adv-x="278" 
d="M20 468v50h77v82c0 41.333 8.33301 74 25 98s45 36 85 36c9.33301 0 18 -0.333008 26 -1s16 -1.66699 24 -3v-55c-13.333 3.33301 -25.333 5 -36 5c-15.333 0 -27.333 -2.83301 -36 -8.5s-15 -13.167 -19 -22.5s-6.5 -19.833 -7.5 -31.5s-1.5 -23.5 -1.5 -35.5v-64h100
v-50h-100v-468h-60v468h-77z" />
    <glyph glyph-name="g" unicode="g" horiz-adv-x="611" 
d="M472 257c0 31.333 -3.83594 60.498 -11.5029 87.498s-18.834 50.333 -33.501 70s-33 35.167 -55 46.5s-47 17 -75 17c-25.333 0 -48.666 -4.5 -69.999 -13.5s-40 -22.167 -56 -39.5s-28.5 -38.5 -37.5 -63.5s-13.5 -53.833 -13.5 -86.5
c-1.33301 -32.667 1.33398 -63.167 8.00098 -91.5s17.334 -53.166 32.001 -74.499s33.334 -38.166 56.001 -50.499s49.667 -18.5 81 -18.5c27.333 0 51.833 5.83301 73.5 17.5s40 27.334 55 47.001s26.5 42.667 34.5 69s12 54.166 12 83.499zM471.997 517.998
l59.9951 -0.000976562v-468c0 -34.667 -3.5 -67.834 -10.5 -99.501s-19.5 -59.5 -37.5 -83.5s-42.667 -43.167 -74 -57.5s-71.666 -21.5 -120.999 -21.5c-38 0 -70.667 4.83301 -98 14.5s-49.666 21.834 -66.999 36.501s-30.5 30.834 -39.5 48.501
s-13.833 34.167 -14.5 49.5h64c4.66699 -19.333 12 -35.166 22 -47.499s21.833 -22 35.5 -29s28.834 -11.833 45.501 -14.5s34 -4 52 -4c40.667 0 73.334 7 98.001 21s43.334 32.333 56.001 55s20.834 48.334 24.501 77.001s5.16699 58 4.5 88
c-19.333 -32 -45.833 -56.167 -79.5 -72.5s-68.834 -24.5 -105.501 -24.5c-39.333 0 -73.5 7.5 -102.5 22.5s-53 35 -72 60s-33.167 54.167 -42.5 87.5s-14 68 -14 104c0 38 4.33301 73.667 13 107s22.5 62.166 41.5 86.499s43.167 43.5 72.5 57.5s65 21 107 21
c16.667 0 33.667 -2.33301 51 -7s34.166 -11.334 50.499 -20.001s31.333 -19.667 45 -33s24.834 -28.333 33.501 -45h2v91z" />
    <glyph glyph-name="h" unicode="h" 
d="M72 0v720.001h60v-274c24 25.333 48.833 46 74.5 62s56.5 24 92.5 24c32 0 61.667 -5.5 89 -16.5s50.333 -30.167 69 -57.5c12.667 -18.667 20.167 -37.834 22.5 -57.501s3.5 -40.167 3.5 -61.5v-339h-60v338c0 46.667 -10.333 81.667 -31 105s-55 35 -103 35
c-18.667 0 -35.667 -2.83301 -51 -8.5s-29.166 -13.167 -41.499 -22.5s-22.833 -20 -31.5 -32s-15.334 -24.667 -20.001 -38c-6 -16.667 -9.66699 -32.667 -11 -48s-2 -32 -2 -50v-279h-60z" />
    <glyph glyph-name="i" unicode="i" horiz-adv-x="222" 
d="M81 0v518h60v-518h-60zM78 631v89h66v-89h-66z" />
    <glyph glyph-name="j" unicode="j" horiz-adv-x="222" 
d="M148 518v-586.998c0 -22 -1 -41.333 -3 -58s-6.5 -30.834 -13.5 -42.501s-17.333 -20.334 -31 -26.001s-32.5 -8.5 -56.5 -8.5c-14.667 0 -27.667 1.33301 -39 4v53c17.333 -2 31.333 -2.16699 42 -0.5s19 5.5 25 11.5s10.167 14 12.5 24s3.5 21.667 3.5 35v595h60z
M151 631.002h-66v89h66v-89z" />
    <glyph glyph-name="k" unicode="k" horiz-adv-x="500" 
d="M68 0v720h60v-448l254 246h82l-194 -187l217 -331h-67l-194 289l-98 -93v-196h-60z" />
    <glyph glyph-name="l" unicode="l" horiz-adv-x="222" 
d="M81 0v720h60v-720h-60z" />
    <glyph glyph-name="m" unicode="m" horiz-adv-x="833" 
d="M124 0l-60.002 0.00976562v518h60v-78h2c15.333 30 37.333 52.833 66 68.5s60 23.5 94 23.5c24 0 44.333 -2.66699 61 -8s30.834 -12.5 42.501 -21.5s21.334 -19.5 29.001 -31.5s14.167 -25 19.5 -39c17.333 34 40.5 59.167 69.5 75.5s62.167 24.5 99.5 24.5
c35.333 0 63.5 -5.83301 84.5 -17.5s37.167 -27 48.5 -46s18.833 -40.833 22.5 -65.5s5.5 -50 5.5 -76v-327h-60v358c0 37.333 -7.83301 66.666 -23.5 87.999s-44.834 32 -87.501 32c-22 0 -43.167 -4.83301 -63.5 -14.5s-38.166 -24.5 -53.499 -44.5
c-6.66699 -8.66699 -12.167 -18.834 -16.5 -30.501s-7.83301 -23.834 -10.5 -36.501s-4.5 -25.334 -5.5 -38.001s-1.5 -24.334 -1.5 -35.001v-279h-60v358c0 37.333 -7.83301 66.666 -23.5 87.999s-44.834 32 -87.501 32c-22 0 -43.167 -4.83301 -63.5 -14.5
s-38.166 -24.5 -53.499 -44.5c-6.66699 -8.66699 -12.167 -18.834 -16.5 -30.501s-7.83301 -23.834 -10.5 -36.501s-4.5 -25.334 -5.5 -38.001s-1.5 -24.334 -1.5 -35.001v-279z" />
    <glyph glyph-name="n" unicode="n" 
d="M132 0l-60 0.000976562v518h60v-72c24 25.333 48.833 46 74.5 62s56.5 24 92.5 24c32 0 61.667 -5.5 89 -16.5s50.333 -30.167 69 -57.5c12.667 -18.667 20.167 -37.834 22.5 -57.501s3.5 -40.167 3.5 -61.5v-339h-60v338c0 46.667 -10.333 81.667 -31 105
s-55 35 -103 35c-18.667 0 -35.667 -2.83301 -51 -8.5s-29.166 -13.167 -41.499 -22.5s-22.833 -20 -31.5 -32s-15.334 -24.667 -20.001 -38c-6 -16.667 -9.66699 -32.667 -11 -48s-2 -32 -2 -50v-279z" />
    <glyph glyph-name="o" unicode="o" 
d="M278 -14c-33.333 0.666992 -64.499 6.66406 -93.499 17.9971s-54.333 28.333 -76 51s-38.834 51 -51.501 85s-19 73.667 -19 119c0 38 5 73.5 15 106.5s25 61.833 45 86.5s45 44.167 75 58.5s65 21.5 105 21.5c40.667 0 76 -7.16699 106 -21.5s55 -33.666 75 -57.999
s34.833 -53.166 44.5 -86.499s14.5 -69 14.5 -107c0 -41.333 -5.66699 -78.666 -17 -111.999s-27.5 -62 -48.5 -86s-46.333 -42.5 -76 -55.5s-62.5 -19.5 -98.5 -19.5zM454.001 258.997c0 30.667 -3.33398 59.3301 -10.001 85.9971s-17 49.834 -31 69.501
s-32 35.167 -54 46.5s-49 17 -81 17c-31.333 0 -58.166 -6.16699 -80.499 -18.5s-40.5 -28.666 -54.5 -48.999s-24.333 -43.666 -31 -69.999s-10 -53.5 -10 -81.5c0 -32 3.83301 -61.5 11.5 -88.5s18.834 -50.167 33.501 -69.5s33 -34.333 55 -45s47.333 -16 76 -16
c31.333 0 58.166 6.16699 80.499 18.5s40.5 28.833 54.5 49.5s24.333 44 31 70s10 53 10 81z" />
    <glyph glyph-name="p" unicode="p" horiz-adv-x="611" 
d="M139 257c0 -29.333 3.99805 -57.1641 11.998 -83.4971s19.5 -49.333 34.5 -69s33.333 -35.334 55 -47.001s46.167 -17.5 73.5 -17.5c30.667 0 57.5 6.16699 80.5 18.5s41.833 29.166 56.5 50.499s25.334 46.166 32.001 74.499s9.33398 58.833 8.00098 91.5
c0 32.667 -4.5 61.5 -13.5 86.5s-21.5 46.167 -37.5 63.5s-34.667 30.5 -56 39.5s-44.666 13.5 -69.999 13.5c-28 0 -53 -5.66699 -75 -17s-40.333 -26.833 -55 -46.5s-25.834 -43 -33.501 -70s-11.5 -56.167 -11.5 -87.5zM138.998 -203.998l-59.999 -0.00195312v722h60v-91
h2c8.66699 16.667 19.834 31.667 33.501 45s28.667 24.333 45 33s33.166 15.334 50.499 20.001s34.333 7 51 7c42 0 77.667 -7 107 -21s53.5 -33.167 72.5 -57.5s32.833 -53.166 41.5 -86.499s13 -69 13 -107c0 -36 -4.66699 -70.667 -14 -104s-23.5 -62.5 -42.5 -87.5
s-43 -45 -72 -60s-63.167 -22.5 -102.5 -22.5c-36.667 0 -71.834 8.16699 -105.501 24.5s-60.167 40.5 -79.5 72.5v-287z" />
    <glyph glyph-name="q" unicode="q" horiz-adv-x="611" 
d="M472 261c0 29.333 -3.99707 57.1641 -11.9971 83.4971s-19.5 49.333 -34.5 69s-33.333 35.334 -55 47.001s-46.167 17.5 -73.5 17.5c-31.333 0 -58.333 -6.16699 -81 -18.5s-41.334 -29.166 -56.001 -50.499s-25.334 -46.166 -32.001 -74.499
s-9.33398 -58.833 -8.00098 -91.5c0 -32.667 4.5 -61.5 13.5 -86.5s21.5 -46.167 37.5 -63.5s34.667 -30.5 56 -39.5s44.666 -13.5 69.999 -13.5c28 0 53 5.66699 75 17s40.333 26.833 55 46.5s25.834 43 33.501 70s11.5 56.167 11.5 87.5zM472.003 517.998
l60.001 0.00195312v-722h-60v287c-19.333 -32 -45.833 -56.167 -79.5 -72.5s-68.834 -24.5 -105.501 -24.5c-39.333 0 -73.5 7.5 -102.5 22.5s-53 35 -72 60s-33.167 54.167 -42.5 87.5s-14 68 -14 104c0 38 4.33301 73.667 13 107s22.5 62.166 41.5 86.499
s43.167 43.5 72.5 57.5s65 21 107 21c16.667 0 33.667 -2.33301 51 -7s34.166 -11.334 50.499 -20.001s31.333 -19.667 45 -33s24.834 -28.333 33.501 -45h2v91z" />
    <glyph glyph-name="r" unicode="r" horiz-adv-x="333" 
d="M135 0l-59.999 -0.00195312v518h60v-97h2c16.667 41.333 38.167 70.166 64.5 86.499s61.166 24.5 104.499 24.5v-65c-34 0.666992 -62 -4.66602 -84 -15.999s-39.5 -26.666 -52.5 -45.999s-22 -42.166 -27 -68.499s-7.5 -53.833 -7.5 -82.5v-254z" />
    <glyph glyph-name="s" unicode="s" horiz-adv-x="500" 
d="M107 162c9.33301 -44.667 26.1729 -76.167 50.5059 -94.5s59.166 -27.5 104.499 -27.5c22 0 41 2.66699 57 8s29.167 12.5 39.5 21.5s18.166 19.167 23.499 30.5s8 23.333 8 36c0 25.333 -8.16699 44.166 -24.5 56.499s-36.833 22 -61.5 29s-51.334 13 -80.001 18
s-55.334 12.5 -80.001 22.5s-45.167 24.333 -61.5 43s-24.5 45 -24.5 79c0 43.333 15.833 78.833 47.5 106.5s76.5 41.5 134.5 41.5c56 0 101.5 -12.5 136.5 -37.5s56.167 -66.833 63.5 -125.5h-61c-5.33301 40 -20.5 68.167 -45.5 84.5s-56.5 24.5 -94.5 24.5
s-67 -8.16699 -87 -24.5s-30 -37.833 -30 -64.5c0 -23.333 8.16699 -41.166 24.5 -53.499s36.833 -22.333 61.5 -30s51.334 -14.5 80.001 -20.5s55.334 -14.5 80.001 -25.5s45.167 -25.833 61.5 -44.5s24.5 -44.667 24.5 -78c0 -24.667 -5.33301 -46.5 -16 -65.5
s-25.334 -34.833 -44.001 -47.5s-40.834 -22.167 -66.501 -28.5s-53.834 -9.5 -84.501 -9.5s-57.834 4.5 -81.501 13.5s-43.834 21.5 -60.501 37.5s-29.667 34.667 -39 56s-14.666 44.333 -15.999 69h61z" />
    <glyph glyph-name="t" unicode="t" horiz-adv-x="278" 
d="M254 -2c-7.33301 -1.33301 -17 -3.66699 -29 -7s-25.333 -5 -40 -5c-30 0 -52.833 7.5 -68.5 22.5s-23.5 41.833 -23.5 80.5v379h-73v50h73v144h60v-144h97v-50h-97v-355c0 -12.667 0.333008 -23.667 1 -33s2.66699 -17 6 -23s8.5 -10.333 15.5 -13s16.833 -4 29.5 -4
c8 0 16.167 0.666992 24.5 2s16.5 3 24.5 5v-49z" />
    <glyph glyph-name="u" unicode="u" 
d="M423 518l59.998 0.000976562v-518h-60v72c-8 -9.33301 -17 -19 -27 -29s-21.5 -19.167 -34.5 -27.5s-28.167 -15.333 -45.5 -21s-37.333 -8.5 -60 -8.5c-34.667 0 -63.667 4.83301 -87 14.5s-42.166 23.167 -56.499 40.5s-24.666 37.5 -30.999 60.5
s-9.5 48.167 -9.5 75.5v341h60v-340c0 -44.667 10.333 -78.834 31 -102.501s54.667 -35.5 102 -35.5c24.667 0 46.834 4.83301 66.501 14.5s36.167 23.167 49.5 40.5s23.666 38 30.999 62s11 50.333 11 79v282z" />
    <glyph glyph-name="v" unicode="v" horiz-adv-x="500" 
d="M17 518h65l168 -444l168 444h65l-201 -518h-67z" />
    <glyph glyph-name="w" unicode="w" horiz-adv-x="722" 
d="M510 80l136 438h61l-168 -518h-64l-113 435h-2l-115 -435h-72l-158 518h60l134 -442l120 442h67z" />
    <glyph glyph-name="x" unicode="x" horiz-adv-x="500" 
d="M252 224l-161 -224h-73l199 268l-183 250h74l143 -206l147 206h76l-187 -250l194 -268h-72z" />
    <glyph glyph-name="y" unicode="y" horiz-adv-x="500" 
d="M68 -141l24.5 -3.99902c8.33301 -1.33301 16.833 -2 25.5 -2c16.667 0 30.334 5.33301 41.001 16s19.5 23.5 26.5 38.5s12.833 30.667 17.5 47s10 30.166 16 41.499l-201 522h67l166 -445l166 445h65l-193 -511c-12 -32.667 -23.5 -62 -34.5 -88
s-22.667 -48.167 -35 -66.5s-26 -32.333 -41 -42s-32.833 -14.5 -53.5 -14.5c-10.667 0 -20.834 0.666992 -30.501 2s-18.5 3 -26.5 5v56z" />
    <glyph glyph-name="z" unicode="z" horiz-adv-x="500" 
d="M33 0v53l344 415h-321v50h398v-53l-344 -415h357v-50h-434z" />
    <glyph glyph-name="braceleft" unicode="{" horiz-adv-x="333" 
d="M127 577c0 29.333 2.16504 54.335 6.49805 75.002s12 37.5 23 50.5s25.833 22.167 44.5 27.5s42.334 7.66602 71.001 6.99902c-54 -18.667 -81 -59 -81 -121v-192c0 -19.333 -1 -37 -3 -53s-6 -30.333 -12 -43s-14.333 -23.5 -25 -32.5s-24.667 -15.833 -42 -20.5v-2
c32.667 -7.33301 54.5 -22.333 65.5 -45s16.5 -52.667 16.5 -90v-206c0 -34 6.66699 -60.333 20 -79s36 -32.667 68 -42v-2c-29.333 -0.666992 -53.833 1.66602 -73.5 6.99902s-35.334 14 -47.001 26s-19.834 27.167 -24.501 45.5s-7 40.166 -7 65.499v204
c0 30.667 -5.16699 56 -15.5 76s-32.5 33.333 -66.5 40v2c18.667 5.33301 33.334 11.5 44.001 18.5s18.834 15.167 24.501 24.5s9.33398 20.333 11.001 33s2.5 27.334 2.5 44.001v182z" />
    <glyph glyph-name="bar" unicode="|" horiz-adv-x="222" 
d="M141 750v-1000h-60v1000h60z" />
    <glyph glyph-name="braceright" unicode="}" horiz-adv-x="333" 
d="M203 395c0 -30.667 5.16992 -55.999 15.5029 -75.999s32.5 -33.333 66.5 -40v-2c-18.667 -5.33301 -33.334 -11.5 -44.001 -18.5s-18.834 -15.167 -24.501 -24.5s-9.33398 -20.333 -11.001 -33s-2.5 -27.334 -2.5 -44.001v-182c0 -29.333 -2.16699 -54.333 -6.5 -75
s-12 -37.5 -23 -50.5s-25.833 -22.333 -44.5 -28s-42.334 -7.83398 -71.001 -6.50098c54 18.667 81 59 81 121v192c0 19.333 1 37 3 53s6 30.333 12 43s14.333 23.5 25 32.5s24.667 15.833 42 20.5v2c-16.667 4 -30.334 9.66699 -41.001 17s-19 16.666 -25 27.999
s-10.167 24.5 -12.5 39.5s-3.5 31.833 -3.5 50.5v206c0 34 -6.66699 60.333 -20 79s-36 32.667 -68 42v2c29.333 0.666992 53.833 -1.66602 73.5 -6.99902s35.334 -14 47.001 -26s19.834 -27.167 24.501 -45.5s7 -40.166 7 -65.499v-204z" />
    <glyph glyph-name="asciitilde" unicode="~" horiz-adv-x="660" 
d="M221 324c18 0 37.1689 -3.66992 57.502 -11.0029s40.166 -15.666 59.499 -24.999c20 -9.33301 38.833 -17.666 56.5 -24.999s33.167 -11 46.5 -11c11.333 0 22 2.83301 32 8.5s19.167 12.834 27.5 21.501s15.833 18 22.5 28s12.334 19.667 17.001 29l40 -34
c-7.33301 -13.333 -15.5 -26.5 -24.5 -39.5s-19.333 -24.667 -31 -35s-24.5 -18.666 -38.5 -24.999s-29.333 -9.5 -46 -9.5c-9.33301 0 -20 1.5 -32 4.5s-24.167 6.66699 -36.5 11s-24.333 9 -36 14s-21.834 9.16699 -30.501 12.5c-13.333 5.33301 -27 11.666 -41 18.999
s-28.333 11 -43 11c-13.333 0 -25.333 -3 -36 -9s-20.334 -13.667 -29.001 -23s-16.5 -19.5 -23.5 -30.5l-19.5 -31.5l-33 47l24.5 34c9 12 19.167 23.167 30.5 33.5s24 18.833 38 25.5s30 10 48 10z" />
    <glyph glyph-name="uni00A0" unicode="&#xa0;" horiz-adv-x="278" 
 />
    <glyph glyph-name="exclamdown" unicode="&#xa1;" horiz-adv-x="333" 
d="M189 352l14 -315v-224h-73v224l14 315h45zM130 445v87h73v-87h-73z" />
    <glyph glyph-name="cent" unicode="&#xa2;" 
d="M324 473c-6.66699 2 -13.333 3.33301 -20 4s-13.667 1 -21 1c-30.667 0 -57 -6.33301 -79 -19s-40 -29.5 -54 -50.5s-24.333 -44.667 -31 -71s-10 -52.833 -10 -79.5c0 -38 6.5 -74.5 19.5 -109.5s33.833 -61.833 62.5 -80.5zM232.001 47
c8 -2 16.167 -3.66602 24.5 -4.99902s17.166 -2 26.499 -2c44.667 0 80.5 12.333 107.5 37s44.167 58.667 51.5 102h64c-4 -26 -11.667 -50.667 -23 -74s-26.333 -43.833 -45 -61.5s-41 -31.667 -67 -42s-55.333 -15.5 -88 -15.5c-12.667 0 -24.5 0.666992 -35.5 2
s-21.833 3.33301 -32.5 6l-45 -135h-47l49 150c-44 21.333 -76.167 54 -96.5 98s-30.5 94.333 -30.5 151c0 44 6 83 18 117s28.667 62.667 50 86s46.5 41 75.5 53s60.5 18 94.5 18c10.667 0 20.834 -0.5 30.501 -1.5s19.167 -2.16699 28.5 -3.5l40 120h48l-44 -134
c62.667 -26.667 100 -79.334 112 -158.001h-61c-12 46 -35.333 79.667 -70 101z" />
    <glyph glyph-name="sterling" unicode="&#xa3;" 
d="M350 365l0.000976562 -41.999h-151c3.33301 -10.667 6 -21.834 8 -33.501s3 -23.167 3 -34.5c0 -18.667 -2.66699 -36.667 -8 -54s-12.5 -33.833 -21.5 -49.5s-19.333 -30.5 -31 -44.5s-23.5 -27.333 -35.5 -40l2 -2c12.667 6.66699 26.667 12.834 42 18.501
s31 8.5 47 8.5c22.667 0 41.667 -2.16699 57 -6.5s29.666 -9.16602 42.999 -14.499s26.333 -10.166 39 -14.499s27.334 -6.5 44.001 -6.5c23.333 0 43.333 5.66699 60 17s32.667 24.666 48 39.999l34 -51c-14.667 -13.333 -28.334 -24.5 -41.001 -33.5
s-25.5 -16.167 -38.5 -21.5s-27 -9.16602 -42 -11.499s-32.5 -3.5 -52.5 -3.5c-12 0 -24.5 2.33301 -37.5 7l-41.5 15c-14.667 5.33301 -30 10.333 -46 15s-33.333 7 -52 7c-19.333 0 -37.5 -3.66699 -54.5 -11l-50.5 -22l-35 58c29.333 21.333 54.333 47.333 75 78
s31 64.667 31 102c0 30.667 -7 60 -21 88h-99v42h81c-4 9.33301 -9.16699 19 -15.5 29s-12.166 21.167 -17.499 33.5s-10 26.166 -14 41.499s-6 33 -6 53c0 26 4.66699 50.167 14 72.5s23.333 41.666 42 57.999s41.834 29.166 69.501 38.499s60.167 14 97.5 14
c32.667 0 63 -5 91 -15s52.167 -24.333 72.5 -43s36.166 -41.5 47.499 -68.5s16.666 -57.167 15.999 -90.5h-66c-2 52.667 -17.167 93 -45.5 121s-66.5 42 -114.5 42c-20 0 -39.667 -2.66699 -59 -8s-36.5 -13.5 -51.5 -24.5s-27 -24.833 -36 -41.5s-13.5 -36 -13.5 -58
c0 -15.333 2.16699 -29.5 6.5 -42.5s9.83301 -25.667 16.5 -38s14 -24.5 22 -36.5s15.333 -24.333 22 -37h166z" />
    <glyph glyph-name="currency" unicode="&#xa4;" 
d="M75 152c-16 23.333 -27.999 46.667 -35.999 70s-12 49.333 -12 78c0 30 3.66699 56.667 11 80s19.666 47 36.999 71l-43 43l52 53l44 -43c22.667 17.333 47 29.833 73 37.5s53 11.5 81 11.5s53.667 -4.33301 77 -13s46.333 -20.667 69 -36l44 43l52 -53l-43 -43
c17.333 -24.667 29.666 -49.167 36.999 -73.5s11 -51.833 11 -82.5c0 -28 -4.16699 -53 -12.5 -75s-20.166 -44.667 -35.499 -68l43 -42l-52 -53l-44 43c-45.333 -33.333 -97 -50 -155 -50c-28 0 -53.667 4.5 -77 13.5s-46 21.167 -68 36.5l-44 -43l-52 53zM282.001 481.001
c-26 0.666992 -50.332 -3.49805 -72.999 -12.498s-42.167 -21.667 -58.5 -38s-29.166 -35.666 -38.499 -57.999s-13.666 -46.5 -12.999 -72.5c-0.666992 -24 3.66602 -46.833 12.999 -68.5s22.166 -40.667 38.499 -57s35.333 -29.333 57 -39s44.5 -14.5 68.5 -14.5
c24.667 0 48.167 4.66699 70.5 14s41.666 22.166 57.999 38.499s29.333 35.666 39 57.999s14.5 46.166 14.5 71.499c0 24 -4.66699 46.833 -14 68.5s-22 40.667 -38 57s-34.667 29.333 -56 39s-44 14.167 -68 13.5z" />
    <glyph glyph-name="yen" unicode="&#xa5;" 
d="M277 373l202 347h73l-171 -286h111v-54h-144l-38 -66v-42h182v-54h-182v-218h-64v218h-182v54h182v42l-38 66h-144v54h111l-171 286h76z" />
    <glyph glyph-name="brokenbar" unicode="&#xa6;" horiz-adv-x="222" 
d="M141 675v-350h-60v350h60zM141 175v-350h-60v350h60z" />
    <glyph glyph-name="section" unicode="&#xa7;" 
d="M190 447c-26.667 -11.333 -48.002 -25.3291 -64.002 -41.9961s-24 -37.334 -24 -62.001c0 -12.667 2.66699 -24.334 8 -35.001s12 -20.5 20 -29.5s17 -17.333 27 -25s20 -14.834 30 -21.501l178 -115c10.667 6 21.334 12.667 32.001 20s20.334 15.666 29.001 24.999
s15.5 19.5 20.5 30.5s7.5 23.5 7.5 37.5c0 13.333 -2.83301 25.5 -8.5 36.5s-13 21 -22 30s-18.833 17.167 -29.5 24.5s-21 14 -31 20zM149.998 184.004c-32 20 -56.9971 41.666 -74.9971 64.999s-27 52 -27 86s10.333 63.333 31 88s46 43.334 76 56.001
c-15.333 17.333 -28 34.666 -38 51.999s-15 38.333 -15 63c0 19.333 3.83301 37.833 11.5 55.5s19.167 33.167 34.5 46.5s34.333 23.833 57 31.5s48.667 11.5 78 11.5c56 0 99 -16 129 -48s44.667 -75.667 44 -131h-54c-1.33301 42 -11.666 73.333 -30.999 94
s-50.333 31 -93 31c-32 0 -58.667 -7.83301 -80 -23.5s-32 -40.167 -32 -73.5c0 -22.667 8.5 -43 25.5 -61s38.167 -35.167 63.5 -51.5s52.666 -32.333 81.999 -48s56.666 -32.5 81.999 -50.5s46.5 -38.167 63.5 -60.5s25.5 -47.833 25.5 -76.5c0 -19.333 -3 -36.5 -9 -51.5
s-14 -28.667 -24 -41s-21.667 -23.5 -35 -33.5l-42 -30l15 -14.5c6.66699 -6.33301 13.167 -14 19.5 -23s11.833 -19.667 16.5 -32s7 -25.833 7 -40.5c0 -25.333 -4.66699 -47.666 -14 -66.999s-22 -35.5 -38 -48.5s-34.667 -22.833 -56 -29.5s-44 -10 -68 -10
c-56.667 0 -101.167 16.333 -133.5 49s-49.833 77 -52.5 133h61c0 -41.333 10.5 -73 31.5 -95s52.5 -33 94.5 -33c14 0 27.667 2 41 6s25.166 10 35.499 18s18.666 17.833 24.999 29.5s9.5 25.167 9.5 40.5c0 16 -3.5 30.5 -10.5 43.5s-16 25 -27 36s-23 21 -36 30
l-37.5 25.5z" />
    <glyph glyph-name="dieresis" unicode="&#xa8;" horiz-adv-x="333" 
d="M60 686h65v-102h-65v102zM219 686h65v-102h-65v102z" />
    <glyph glyph-name="copyright" unicode="&#xa9;" horiz-adv-x="800" 
d="M401 -19c-52.667 0 -102 10 -148 30s-86.167 47.167 -120.5 81.5s-61.5 74.5 -81.5 120.5s-30 95.333 -30 148c0 52 10 101 30 147s47.167 86 81.5 120s74.5 61 120.5 81s95.333 30 148 30c52 0 101 -10 147 -30s86.167 -47 120.5 -81s61.333 -74 81 -120
s29.5 -95 29.5 -147c0 -52.667 -9.83301 -102 -29.5 -148s-46.667 -86.167 -81 -120.5s-74.5 -61.5 -120.5 -81.5s-95 -30 -147 -30zM401 31c46 0 88.5 8.5 127.5 25.5s72.5 40.333 100.5 70s50 64.5 66 104.5s24 83.333 24 130c0 46 -8 89 -24 129s-38 74.667 -66 104
s-61.5 52.5 -100.5 69.5s-81.5 25.5 -127.5 25.5s-88.667 -8.5 -128 -25.5s-73.166 -40.167 -101.499 -69.5s-50.5 -64 -66.5 -104s-24 -83 -24 -129c0 -46.667 8 -90 24 -130s38.167 -74.833 66.5 -104.5s62.166 -53 101.499 -70s82 -25.5 128 -25.5zM593 292
c-2 -22.667 -8.1709 -43.1641 -18.5039 -61.4971s-23.5 -33.833 -39.5 -46.5s-34 -22.334 -54 -29.001s-41 -10 -63 -10c-32 0 -60.833 5.66699 -86.5 17s-47.667 26.666 -66 45.999s-32.5 42.333 -42.5 69s-15 55.667 -15 87s4.66699 60.166 14 86.499s23 49.166 41 68.499
s39.833 34.5 65.5 45.5s54.5 16.5 86.5 16.5c46 0 85.333 -12.333 118 -37s52.667 -60 60 -106h-54c-5.33301 30 -19.666 54 -42.999 72s-50 27 -80 27c-25.333 0 -47.333 -4.5 -66 -13.5s-34.167 -21.333 -46.5 -37s-21.666 -34 -27.999 -55s-9.5 -43.167 -9.5 -66.5
c0 -22.667 3.33301 -44.667 10 -66s16.5 -40.166 29.5 -56.499s28.833 -29.333 47.5 -39s40.334 -14.5 65.001 -14.5c14.667 0 28.834 2.33301 42.501 7s26 11.5 37 20.5s20.167 19.833 27.5 32.5s12 27 14 43h54z" />
    <glyph glyph-name="ordfeminine" unicode="&#xaa;" horiz-adv-x="334" 
d="M245 583c-16.667 -6.66699 -33.335 -11.0029 -50.002 -13.0029s-33.667 -3.66699 -51 -5c-30 -2 -53.667 -8.16699 -71 -18.5s-26 -26.166 -26 -47.499c0 -19.333 7.83301 -33.833 23.5 -43.5s32.834 -14.5 51.501 -14.5c15.333 0 30.333 1.83301 45 5.5
s27.834 9.33398 39.501 17.001s21 17.334 28 29.001s10.5 25.5 10.5 41.5v49zM178.999 600.997c7.33301 0.666992 16.167 1.66699 26.5 3s18.833 3.66602 25.5 6.99902c6.66699 2.66699 10.667 7.33398 12 14.001s2 12.667 2 18c0 18.667 -6.5 34.334 -19.5 47.001
s-34.5 19 -64.5 19c-27.333 0 -49.666 -5.33301 -66.999 -16s-27.666 -29.667 -30.999 -57h-40c3.33301 36.667 18 63 44 79s57.667 24 95 24c16.667 0 32.5 -1.66699 47.5 -5s28 -8.83301 39 -16.5s19.667 -17.667 26 -30s9.5 -27.5 9.5 -45.5v-169
c0 -14 2.66699 -22.833 8 -26.5s16.333 -2.83398 33 2.49902v-28c-6 -2 -12.167 -3.66699 -18.5 -5s-16.166 -1.33301 -29.499 0c-13.333 2 -21.833 7.5 -25.5 16.5s-5.83398 19.167 -6.50098 30.5c-32.667 -34.667 -74.334 -52 -125.001 -52
c-14.667 0 -28.834 1.83301 -42.501 5.5s-25.667 9.16699 -36 16.5s-18.5 16.5 -24.5 27.5s-9 24.167 -9 39.5c0 52.667 39 84 117 94z" />
    <glyph glyph-name="guillemotleft" unicode="&#xab;" 
d="M297 291l146 113v-63l-104 -82l104 -80v-62l-146 111v63zM113 291l146 113v-63l-104 -82l104 -80v-62l-146 111v63z" />
    <glyph glyph-name="logicalnot" unicode="&#xac;" horiz-adv-x="660" 
d="M516 318h-436v60h500v-266h-64v206z" />
    <glyph glyph-name="uni00AD" unicode="&#xad;" horiz-adv-x="333" 
d="M293 291v-62h-253v62h253z" />
    <glyph glyph-name="registered" unicode="&#xae;" horiz-adv-x="800" 
d="M401 -19c-52.667 0 -102 10 -148 30s-86.167 47.167 -120.5 81.5s-61.5 74.5 -81.5 120.5s-30 95.333 -30 148c0 52 10 101 30 147s47.167 86 81.5 120s74.5 61 120.5 81s95.333 30 148 30c52 0 101 -10 147 -30s86.167 -47 120.5 -81s61.333 -74 81 -120
s29.5 -95 29.5 -147c0 -52.667 -9.83301 -102 -29.5 -148s-46.667 -86.167 -81 -120.5s-74.5 -61.5 -120.5 -81.5s-95 -30 -147 -30zM401 31c46 0 88.5 8.5 127.5 25.5s72.5 40.333 100.5 70s50 64.5 66 104.5s24 83.333 24 130c0 46 -8 89 -24 129s-38 74.667 -66 104
s-61.5 52.5 -100.5 69.5s-81.5 25.5 -127.5 25.5s-88.667 -8.5 -128 -25.5s-73.166 -40.167 -101.499 -69.5s-50.5 -64 -66.5 -104s-24 -83 -24 -129c0 -46.667 8 -90 24 -130s38.167 -74.833 66.5 -104.5s62.166 -53 101.499 -70s82 -25.5 128 -25.5zM590 149
l-62 0.000976562l-121 195h-95v-195h-52v423h185c56 0 95 -10 117 -30s33 -47.333 33 -82c0 -20.667 -3.33301 -38.334 -10 -53.001s-16 -26.5 -28 -35.5s-26.167 -15.667 -42.5 -20s-33.833 -6.83301 -52.5 -7.5zM391 385.001l48.001 -0.000976562c17.333 0 33.5 2 48.5 6
s27.333 11.333 37 22s14.5 26.667 14.5 48c0 16.667 -3.16699 29.834 -9.5 39.501s-14.5 17 -24.5 22s-21.333 8.33301 -34 10s-25.334 2.5 -38.001 2.5h-121v-150h79z" />
    <glyph glyph-name="macron" unicode="&#xaf;" horiz-adv-x="333" 
d="M23 657h296v-45h-296v45z" />
    <glyph glyph-name="degree" unicode="&#xb0;" horiz-adv-x="400" 
d="M350 555c0 -20.667 -4.00195 -40.167 -12.002 -58.5s-18.833 -34.166 -32.5 -47.499s-29.5 -24 -47.5 -32s-37.333 -12 -58 -12s-40.167 4 -58.5 12s-34.166 18.667 -47.499 32s-24 29.166 -32 47.499s-12 37.833 -12 58.5s3.83301 40 11.5 58s18.334 33.833 32.001 47.5
s29.667 24.5 48 32.5s37.833 12 58.5 12s40 -4 58 -12s33.833 -18.833 47.5 -32.5s24.5 -29.5 32.5 -47.5s12 -37.333 12 -58zM309.998 555c0 14.667 -3 28.667 -9 42s-14 25 -24 35s-21.667 18 -35 24s-27.666 9 -42.999 9s-29.5 -3 -42.5 -9s-24.5 -14 -34.5 -24
s-17.833 -21.667 -23.5 -35s-8.5 -27.333 -8.5 -42c0 -15.333 2.83301 -29.666 8.5 -42.999s13.5 -25 23.5 -35s21.667 -17.833 35 -23.5s27.666 -8.5 42.999 -8.5c14.667 0 28.667 2.83301 42 8.5s25 13.5 35 23.5s18 21.667 24 35s9 27.666 9 42.999z" />
    <glyph glyph-name="plusminus" unicode="&#xb1;" horiz-adv-x="660" 
d="M300 500h60v-170h220v-60h-220v-170h-60v170h-220v60h220v170zM80 60h500v-60h-500v60z" />
    <glyph glyph-name="twosuperior" unicode="&#xb2;" horiz-adv-x="333" 
d="M28 600c0 42 13.5 75.667 40.5 101s63.167 38 108.5 38c46 0 81 -11.333 105 -34s36 -50.334 36 -83.001c0 -28 -7.16699 -51.333 -21.5 -70s-31.833 -34.667 -52.5 -48s-42.5 -25.333 -65.5 -36s-42.833 -22 -59.5 -34c-15.333 -10.667 -28.833 -22.5 -40.5 -35.5
s-18.167 -29.833 -19.5 -50.5h255v-32h-299c0 20 2.16699 38.333 6.5 55s13.833 32.667 28.5 48c16 16.667 32.667 31 50 43s34.166 22.667 50.499 32l47 26c15 8 28 16.667 39 26s19.833 19.833 26.5 31.5s10 25.834 10 42.501c0 28 -9.83301 49.5 -29.5 64.5
s-43.5 22.5 -71.5 22.5c-15.333 0 -29.166 -2.83301 -41.499 -8.5s-23 -13.5 -32 -23.5s-15.833 -21.5 -20.5 -34.5s-6.66699 -26.5 -6 -40.5h-44z" />
    <glyph glyph-name="threesuperior" unicode="&#xb3;" horiz-adv-x="333" 
d="M133 551c19.333 0 37.002 1.16797 53.002 3.50098s29.833 6.5 41.5 12.5s20.667 14.333 27 25s9.5 24 9.5 40c0 26 -9.66699 45 -29 57s-42 18 -68 18c-30 0 -54 -8.5 -72 -25.5s-27 -38.833 -27 -65.5h-41c0 19.333 3.5 36.666 10.5 51.999s18.167 29.666 33.5 42.999
c14.667 12 30.834 19.667 48.501 23s36.167 5 55.5 5c18 0 35 -2.16699 51 -6.5s29.833 -10.833 41.5 -19.5s21 -19.5 28 -32.5s10.5 -28.167 10.5 -45.5c0 -45.333 -21.667 -77 -65 -95c16.667 -4.66699 30.167 -10.834 40.5 -18.501s18.5 -16.334 24.5 -26.001
s10.167 -19.5 12.5 -29.5s3.5 -20 3.5 -30c0 -35.333 -12.667 -65.166 -38 -89.499s-62 -37.166 -110 -38.499c-26.667 0 -49.667 2.16699 -69 6.5s-35.5 11.5 -48.5 21.5s-23.167 23.333 -30.5 40s-12.333 37.334 -15 62.001h42c0 -32 10.5 -56.333 31.5 -73
s48.5 -25 82.5 -25c16.667 0 32 2.66699 46 8s26.167 12.333 36.5 21s18.166 18.834 23.499 30.501s7.66602 23.5 6.99902 35.5c-0.666992 17.333 -4.83398 31.666 -12.501 42.999s-18.167 20.333 -31.5 27s-28.833 11.167 -46.5 13.5s-36.5 2.83301 -56.5 1.5v31z" />
    <glyph glyph-name="acute" unicode="&#xb4;" horiz-adv-x="333" 
d="M109 574l111 139h77l-137 -139h-51z" />
    <glyph glyph-name="mu" unicode="&#xb5;" 
d="M423 518l60 0.000976562v-518h-60v72c-8 -9.33301 -17 -19 -27 -29s-21.5 -19.167 -34.5 -27.5s-28.167 -15.333 -45.5 -21s-37.333 -8.5 -60 -8.5c-28 0 -52.333 3.33301 -73 10s-37.667 14 -51 22v-222h-60v722h60v-340c0 -44.667 10.333 -78.834 31 -102.501
s54.667 -35.5 102 -35.5c24.667 0 46.834 4.83301 66.501 14.5s36.167 23.167 49.5 40.5s23.666 38 30.999 62s11 50.333 11 79v282z" />
    <glyph glyph-name="paragraph" unicode="&#xb6;" horiz-adv-x="650" 
d="M258 336c-25.333 0 -49.667 5 -73 15s-43.833 23.667 -61.5 41s-31.667 37.5 -42 60.5s-15.5 47.5 -15.5 73.5c0 62.667 19.5 110.667 58.5 144s93.833 50 164.5 50h217v-866h-60v799h-128v-799h-60v482z" />
    <glyph glyph-name="periodcentered" unicode="&#xb7;" horiz-adv-x="278" 
d="M139 398c13.333 0 24.666 -4.66699 33.999 -14s14 -20.666 14 -33.999s-4.66699 -24.833 -14 -34.5s-20.666 -14.5 -33.999 -14.5s-24.833 4.83301 -34.5 14.5s-14.5 21.167 -14.5 34.5s5 24.666 15 33.999s21.333 14 34 14z" />
    <glyph glyph-name="cedilla" unicode="&#xb8;" horiz-adv-x="333" 
d="M69 -158l31.498 -10c10.333 -3.33301 21.166 -5 32.499 -5c7.33301 0 14.833 0.833008 22.5 2.5s14.834 4.33398 21.501 8.00098s12 8.5 16 14.5s6 13.333 6 22c0 13.333 -5.16699 23.166 -15.5 29.499s-21.833 9.5 -34.5 9.5c-7.33301 0 -14.666 -0.833008 -21.999 -2.5
s-14.666 -3.5 -21.999 -5.5l-15 13l60 82h39l-47 -59l18 4c6 1.33301 12 2 18 2c22 0 39.833 -5.5 53.5 -16.5s21.5 -22.833 23.5 -35.5c3.33301 -18 2.5 -33.5 -2.5 -46.5s-12.833 -23.5 -23.5 -31.5s-23.334 -14 -38.001 -18s-30 -6 -46 -6
c-15.333 0 -30.666 1.83301 -45.999 5.5s-30.333 8.16699 -45 13.5z" />
    <glyph glyph-name="onesuperior" unicode="&#xb9;" horiz-adv-x="333" 
d="M205 630l-117.996 -0.000976562v26c17.333 0.666992 33.166 2 47.499 4s26.666 5.83301 36.999 11.5s19.166 13.834 26.499 24.501s12.666 25 15.999 43h33v-423h-42v314z" />
    <glyph glyph-name="ordmasculine" unicode="&#xba;" horiz-adv-x="334" 
d="M167 411c-21.333 0.666992 -41.501 4.5 -60.501 11.5s-35.5 17.333 -49.5 31s-25.167 30.5 -33.5 50.5s-12.5 43.667 -12.5 71c0 22.667 3.16699 44 9.5 64s16 37.333 29 52s29.333 26.334 49 35.001s42.5 13 68.5 13s48.833 -4.33301 68.5 -13s36 -20.334 49 -35.001
s22.667 -32 29 -52s9.5 -41.333 9.5 -64c0 -49.333 -14.167 -89 -42.5 -119s-66.166 -45 -113.499 -45zM49.999 575c0 -38.667 10.0029 -70.666 30.0029 -95.999s49 -38 87 -38c20.667 0 38.334 3.83301 53.001 11.5s26.667 17.834 36 30.501s16.333 27 21 43s7 32.333 7 49
c0 18 -2.16699 35.167 -6.5 51.5s-11.333 30.666 -21 42.999s-21.834 22 -36.501 29s-32.334 10.5 -53.001 10.5s-38.334 -3.83301 -53.001 -11.5s-26.834 -17.834 -36.501 -30.501s-16.667 -27 -21 -43s-6.5 -32.333 -6.5 -49z" />
    <glyph glyph-name="guillemotright" unicode="&#xbb;" 
d="M443 230l-146 -113v63l104 82l-104 80v62l146 -111v-63zM259 230l-146 -113v63l104 82l-104 80v62l146 -111v-63z" />
    <glyph glyph-name="onequarter" unicode="&#xbc;" horiz-adv-x="834" 
d="M689 104h-209v33l213 282h38v-282h63v-33h-63v-104h-42v104zM521 137h168v224zM168 -14l444 719h51l-444 -719h-51zM158 630l-117.996 -0.000976562v26c17.333 0.666992 33.166 2 47.499 4s26.666 5.83301 36.999 11.5s19.166 13.834 26.499 24.501s12.666 25 15.999 43
h33v-423h-42v314z" />
    <glyph glyph-name="onehalf" unicode="&#xbd;" horiz-adv-x="834" 
d="M128 -14l444 719h51l-444 -719h-51zM158 630l-117.996 -0.000976562v26c17.333 0.666992 33.166 2 47.499 4s26.666 5.83301 36.999 11.5s19.166 13.834 26.499 24.501s12.666 25 15.999 43h33v-423h-42v314zM504.004 283.999c0 42 13.5 75.667 40.5 101
s63.167 38 108.5 38c46 0 81 -11.333 105 -34s36 -50.334 36 -83.001c0 -28 -7.16699 -51.333 -21.5 -70s-31.833 -34.667 -52.5 -48s-42.5 -25.333 -65.5 -36s-42.833 -22 -59.5 -34c-15.333 -10.667 -28.833 -22.5 -40.5 -35.5s-18.167 -29.833 -19.5 -50.5h255v-32h-299
c0 20 2.16699 38.333 6.5 55s13.833 32.667 28.5 48c16 16.667 32.667 31 50 43s34.166 22.667 50.499 32l47 26c15 8 28 16.667 39 26s19.833 19.833 26.5 31.5s10 25.834 10 42.501c0 28 -9.83301 49.5 -29.5 64.5s-43.5 22.5 -71.5 22.5
c-15.333 0 -29.166 -2.83301 -41.499 -8.5s-23 -13.5 -32 -23.5s-15.833 -21.5 -20.5 -34.5s-6.66699 -26.5 -6 -40.5h-44z" />
    <glyph glyph-name="threequarters" unicode="&#xbe;" horiz-adv-x="834" 
d="M521 137h168v224zM689 104h-209v33l213 282h38v-282h63v-33h-63v-104h-42v104zM162 551c19.333 0 37.002 1.16797 53.002 3.50098s29.833 6.5 41.5 12.5s20.667 14.333 27 25s9.5 24 9.5 40c0 26 -9.66699 45 -29 57s-42 18 -68 18c-30 0 -54 -8.5 -72 -25.5
s-27 -38.833 -27 -65.5h-41c0 19.333 3.5 36.666 10.5 51.999s18.167 29.666 33.5 42.999c14.667 12 30.834 19.667 48.501 23s36.167 5 55.5 5c18 0 35 -2.16699 51 -6.5s29.833 -10.833 41.5 -19.5s21 -19.5 28 -32.5s10.5 -28.167 10.5 -45.5
c0 -45.333 -21.667 -77 -65 -95c16.667 -4.66699 30.167 -10.834 40.5 -18.501s18.5 -16.334 24.5 -26.001s10.167 -19.5 12.5 -29.5s3.5 -20 3.5 -30c0 -35.333 -12.667 -65.166 -38 -89.499s-62 -37.166 -110 -38.499c-26.667 0 -49.667 2.16699 -69 6.5
s-35.5 11.5 -48.5 21.5s-23.167 23.333 -30.5 40s-12.333 37.334 -15 62.001h42c0 -32 10.5 -56.333 31.5 -73s48.5 -25 82.5 -25c16.667 0 32 2.66699 46 8s26.167 12.333 36.5 21s18.166 18.834 23.499 30.501s7.66602 23.5 6.99902 35.5
c-0.666992 17.333 -4.83398 31.666 -12.501 42.999s-18.167 20.333 -31.5 27s-28.833 11.167 -46.5 13.5s-36.5 2.83301 -56.5 1.5v31zM208.002 -13.999l444 719h51l-444 -719h-51z" />
    <glyph glyph-name="questiondown" unicode="&#xbf;" horiz-adv-x="500" 
d="M462 16c2.66699 -33.333 -0.996094 -63.6621 -10.9961 -90.9951s-24.833 -50.833 -44.5 -70.5s-43.167 -34.834 -70.5 -45.501s-57.333 -16 -90 -16c-34 0 -64.5 4.5 -91.5 13.5s-49.833 21.667 -68.5 38s-33 36.166 -43 59.499s-15 49 -15 77
c0 28.667 6.5 53.667 19.5 75s28.667 41 47 59s37.666 36 57.999 54s37.833 38.667 52.5 62c11.333 17.333 17.666 36.5 18.999 57.5s2 41.5 2 61.5h58c0.666992 -36.667 -1.83301 -70 -7.5 -100s-21.5 -58.667 -47.5 -86c-14.667 -15.333 -30 -30.333 -46 -45
s-30.833 -29.5 -44.5 -44.5s-24.834 -30.5 -33.501 -46.5s-13 -33.333 -13 -52c0 -18 3.5 -34.833 10.5 -50.5s17.167 -29.334 30.5 -41.001s29.666 -20.834 48.999 -27.501s41.333 -10 66 -10s46.667 4.33301 66 13s35.5 20.667 48.5 36s22.833 33.166 29.5 53.499
s9.66699 42.5 9 66.5h61zM290.004 532.004v-88h-73v88h73z" />
    <glyph glyph-name="Agrave" unicode="&#xc0;" horiz-adv-x="667" 
d="M15 0l283 720h77l276 -720h-70l-83 226h-328l-85 -226h-70zM193 284h282l-141 378zM212 915h78l111 -139h-51z" />
    <glyph glyph-name="Aacute" unicode="&#xc1;" horiz-adv-x="667" 
d="M15 0l283 720h77l276 -720h-70l-83 226h-328l-85 -226h-70zM193 284h282l-141 378zM276 776l111 139h77l-137 -139h-51z" />
    <glyph glyph-name="Acircumflex" unicode="&#xc2;" horiz-adv-x="667" 
d="M15 0l283 720h77l276 -720h-70l-83 226h-328l-85 -226h-70zM193 284h282l-141 378zM256 776h-65l114 139h67l113 -139h-65l-82 102z" />
    <glyph glyph-name="Atilde" unicode="&#xc3;" horiz-adv-x="667" 
d="M15 0l283 720h77l276 -720h-70l-83 226h-328l-85 -226h-70zM193 284h282l-141 378zM183 788c1.33301 12 3.66699 22.8311 7 32.498s7.66602 18.5 12.999 26.5c10 14 22.833 24.5 38.5 31.5s32.167 8.5 49.5 4.5c9.33301 -2 19.333 -5.33301 30 -10l32.5 -14.5
c11 -5 21.667 -9.33301 32 -13s19.833 -5.5 28.5 -5.5c14.667 0 25 5.33301 31 16s10.333 22 13 34h38c-0.666992 -6.66699 -1.83398 -13.167 -3.50098 -19.5s-3.16699 -12.5 -4.5 -18.5c-7.33301 -16 -16.666 -30 -27.999 -42s-26.666 -18 -45.999 -18
c-14 0 -27.167 2.33301 -39.5 7s-24.5 9.83398 -36.5 15.501s-23.833 10.834 -35.5 15.501s-23.167 7 -34.5 7c-15.333 0 -26.333 -5 -33 -15s-12 -21.333 -16 -34h-36z" />
    <glyph glyph-name="Adieresis" unicode="&#xc4;" horiz-adv-x="667" 
d="M15 0l283 720h77l276 -720h-70l-83 226h-328l-85 -226h-70zM193 284h282l-141 378zM227 888h65v-102h-65v102zM386 888h65v-102h-65v102z" />
    <glyph glyph-name="Aring" unicode="&#xc5;" horiz-adv-x="667" 
d="M15 0l283 720h77l276 -720h-70l-83 226h-328l-85 -226h-70zM193 284h282l-141 378zM354 780c-13.333 0 -26.166 2.66699 -38.499 8s-23 12.5 -32 21.5s-16.167 19.5 -21.5 31.5s-8 24.667 -8 38s2.66699 26 8 38s12.666 22.667 21.999 32s20 16.666 32 21.999
s24.667 8 38 8s26 -2.66699 38 -8s22.5 -12.666 31.5 -21.999s16.167 -20 21.5 -32s8 -24.667 8 -38s-2.66699 -26 -8 -38s-12.5 -22.5 -21.5 -31.5s-19.5 -16.167 -31.5 -21.5s-24.667 -8 -38 -8zM354 813c17.333 0 32.667 6.66797 46 20.001s20 28.666 20 45.999
s-6.5 32.833 -19.5 46.5s-28.5 20.5 -46.5 20.5s-33.667 -6.66699 -47 -20s-20 -29 -20 -47s6.83301 -33.5 20.5 -46.5s29.167 -19.5 46.5 -19.5z" />
    <glyph glyph-name="AE" unicode="&#xc6;" horiz-adv-x="1000" 
d="M5 0l313 720h630v-58h-408v-260h371v-58h-371v-286h420v-58h-488v226h-303l-96 -226h-68zM197 284h275v378h-114z" />
    <glyph glyph-name="Ccedilla" unicode="&#xc7;" horiz-adv-x="722" 
d="M592 511c-14 61.333 -40.0029 104.997 -78.0029 130.997s-87.667 39 -149 39c-43.333 0 -80.666 -8.66699 -111.999 -26s-57.166 -40.666 -77.499 -69.999s-35.333 -63.166 -45 -101.499s-14.5 -78.833 -14.5 -121.5c0 -40 4.16699 -79.333 12.5 -118
s22.166 -73.167 41.499 -103.5s45.333 -54.833 78 -73.5s73.667 -28 123 -28c30.667 0 58.667 5 84 15s47.5 23.833 66.5 41.5s35 38.5 48 62.5s22.833 50.333 29.5 79h71c-8 -34 -19.333 -66.167 -34 -96.5s-34 -57.166 -58 -80.499s-53.167 -42 -87.5 -56
s-74.5 -21.333 -120.5 -22l-33 -41l18 4c6 1.33301 12 2 18 2c22 0 39.833 -5.5 53.5 -16.5s21.5 -22.833 23.5 -35.5c3.33301 -18 2.5 -33.5 -2.5 -46.5s-12.833 -23.5 -23.5 -31.5s-23.334 -14 -38.001 -18s-30 -6 -46 -6c-15.333 0 -30.666 1.83301 -45.999 5.5
s-30.333 8.16699 -45 13.5l15 30l31.5 -10c10.333 -3.33301 21.166 -5 32.499 -5c7.33301 0 14.833 0.833008 22.5 2.5s14.834 4.33398 21.501 8.00098s12 8.5 16 14.5s6 13.333 6 22c0 13.333 -5.16699 23.166 -15.5 29.499s-21.833 9.5 -34.5 9.5
c-7.33301 0 -14.666 -0.833008 -21.999 -2.5s-14.666 -3.5 -21.999 -5.5l-15 13l47 64c-50.667 3.33301 -94 15.666 -130 36.999s-65.333 49.166 -88 83.499s-39.334 73.5 -50.001 117.5s-16 90.667 -16 140c0 68.667 8.5 127 25.5 175s40.5 87.167 70.5 117.5
s65.333 52.333 106 66s85 20.5 133 20.5c36.667 0 70.834 -4.83301 102.501 -14.5s59.667 -24.167 84 -43.5s44.333 -43.166 60 -71.499s26.5 -61.166 32.5 -98.499h-70z" />
    <glyph glyph-name="Egrave" unicode="&#xc8;" horiz-adv-x="611" 
d="M81 0v720h479v-58h-411v-260h371v-58h-371v-286h421v-58h-489zM184 915h78l111 -139h-51z" />
    <glyph glyph-name="Eacute" unicode="&#xc9;" horiz-adv-x="611" 
d="M81 0v720h479v-58h-411v-260h371v-58h-371v-286h421v-58h-489zM248 776l111 139h77l-137 -139h-51z" />
    <glyph glyph-name="Ecircumflex" unicode="&#xca;" horiz-adv-x="611" 
d="M81 0v720h479v-58h-411v-260h371v-58h-371v-286h421v-58h-489zM228 776h-65l114 139h67l113 -139h-65l-82 102z" />
    <glyph glyph-name="Edieresis" unicode="&#xcb;" horiz-adv-x="611" 
d="M81 0v720h479v-58h-411v-260h371v-58h-371v-286h421v-58h-489zM199 888h65v-102h-65v102zM358 888h65v-102h-65v102z" />
    <glyph glyph-name="Igrave" unicode="&#xcc;" horiz-adv-x="278" 
d="M105 0v720h68v-720h-68zM18 915h78l111 -139h-51z" />
    <glyph glyph-name="Iacute" unicode="&#xcd;" horiz-adv-x="278" 
d="M105 0v720h68v-720h-68zM61 776l111 139h77l-137 -139h-51z" />
    <glyph glyph-name="Icircumflex" unicode="&#xce;" horiz-adv-x="278" 
d="M105 0v720h68v-720h-68zM41 776h-65l114 139h67l113 -139h-65l-82 102z" />
    <glyph glyph-name="Idieresis" unicode="&#xcf;" horiz-adv-x="278" 
d="M105 0v720h68v-720h-68zM12 888h65v-102h-65v102zM171 888h65v-102h-65v102z" />
    <glyph glyph-name="Eth" unicode="&#xd0;" horiz-adv-x="722" 
d="M149 411l160.998 0.000976562v-58h-161v-295h163c30.667 0 59.5 1.83301 86.5 5.5s54.5 12.834 82.5 27.501c24 12 43.667 28.333 59 49s27.5 43.167 36.5 67.5s15.333 49.833 19 76.5s5.5 52.334 5.5 77.001c0 26 -1.66699 52.5 -5 79.5s-9.66602 52.667 -18.999 77
s-22 46.666 -38 66.999s-36.667 37.166 -62 50.499c-21.333 11.333 -46.666 18.666 -75.999 21.999s-59 5 -89 5h-163v-251zM80.998 720.001h246c20 0 39.667 -0.5 59 -1.5s38.333 -3.33301 57 -7s36.834 -9.16699 54.501 -16.5s34.834 -17 51.501 -29
c24 -17.333 43.667 -38.5 59 -63.5s27.5 -51.333 36.5 -79s15.333 -55.667 19 -84s5.5 -54.5 5.5 -78.5s-1.5 -48.333 -4.5 -73s-7.83301 -48.834 -14.5 -72.501s-15.5 -46.334 -26.5 -68.001s-24.833 -41.5 -41.5 -59.5c-16.667 -18.667 -34.834 -33.667 -54.501 -45
s-40.334 -20.166 -62.001 -26.499s-44.167 -10.666 -67.5 -12.999s-47 -3.5 -71 -3.5h-246v353h-71v58h71v309z" />
    <glyph glyph-name="Ntilde" unicode="&#xd1;" horiz-adv-x="722" 
d="M149 628h-2v-628h-68v720h77l416 -629h2v629h68v-720h-79zM211 788c1.33301 12 3.66699 22.8311 7 32.498s7.66602 18.5 12.999 26.5c10 14 22.833 24.5 38.5 31.5s32.167 8.5 49.5 4.5c9.33301 -2 19.333 -5.33301 30 -10l32.5 -14.5c11 -5 21.667 -9.33301 32 -13
s19.833 -5.5 28.5 -5.5c14.667 0 25 5.33301 31 16s10.333 22 13 34h38c-0.666992 -6.66699 -1.83398 -13.167 -3.50098 -19.5s-3.16699 -12.5 -4.5 -18.5c-7.33301 -16 -16.666 -30 -27.999 -42s-26.666 -18 -45.999 -18c-14 0 -27.167 2.33301 -39.5 7
s-24.5 9.83398 -36.5 15.501s-23.833 10.834 -35.5 15.501s-23.167 7 -34.5 7c-15.333 0 -26.333 -5 -33 -15s-12 -21.333 -16 -34h-36z" />
    <glyph glyph-name="Ograve" unicode="&#xd2;" horiz-adv-x="778" 
d="M53 359c0 52.667 7.16895 101.999 21.502 147.999s35.5 86.167 63.5 120.5s62.667 61.5 104 81.5s89 30 143 30c56 0 105.167 -9.83301 147.5 -29.5s77.666 -46.667 105.999 -81s49.666 -74.666 63.999 -120.999s21.5 -95.833 21.5 -148.5
c0 -52 -7.16699 -100.833 -21.5 -146.5s-35.5 -85.667 -63.5 -120s-63 -61.5 -105 -81.5s-90.667 -30 -146 -30s-104 10 -146 30s-77 47.167 -105 81.5s-49 74.333 -63 120s-21 94.5 -21 146.5zM389.002 38.999c46.667 0 86.8291 8.83398 120.496 26.501
s61.334 41.167 83.001 70.5s37.667 63.333 48 102s15.5 79 15.5 121c0 50 -6.16699 94.833 -18.5 134.5s-30.166 73.5 -53.499 101.5s-51.666 49.333 -84.999 64s-70.666 22 -111.999 22c-46 0 -85.833 -9 -119.5 -27s-61.334 -41.833 -83.001 -71.5
s-37.667 -63.834 -48 -102.501s-15.5 -79 -15.5 -121c0 -42.667 5.16699 -83.334 15.5 -122.001s26.333 -72.667 48 -102s49.334 -52.666 83.001 -69.999s74.167 -26 121.5 -26zM267.997 915h78l111 -139h-51z" />
    <glyph glyph-name="Oacute" unicode="&#xd3;" horiz-adv-x="778" 
d="M53 359c0 52.667 7.16895 101.999 21.502 147.999s35.5 86.167 63.5 120.5s62.667 61.5 104 81.5s89 30 143 30c56 0 105.167 -9.83301 147.5 -29.5s77.666 -46.667 105.999 -81s49.666 -74.666 63.999 -120.999s21.5 -95.833 21.5 -148.5
c0 -52 -7.16699 -100.833 -21.5 -146.5s-35.5 -85.667 -63.5 -120s-63 -61.5 -105 -81.5s-90.667 -30 -146 -30s-104 10 -146 30s-77 47.167 -105 81.5s-49 74.333 -63 120s-21 94.5 -21 146.5zM389.002 38.999c46.667 0 86.8291 8.83398 120.496 26.501
s61.334 41.167 83.001 70.5s37.667 63.333 48 102s15.5 79 15.5 121c0 50 -6.16699 94.833 -18.5 134.5s-30.166 73.5 -53.499 101.5s-51.666 49.333 -84.999 64s-70.666 22 -111.999 22c-46 0 -85.833 -9 -119.5 -27s-61.334 -41.833 -83.001 -71.5
s-37.667 -63.834 -48 -102.501s-15.5 -79 -15.5 -121c0 -42.667 5.16699 -83.334 15.5 -122.001s26.333 -72.667 48 -102s49.334 -52.666 83.001 -69.999s74.167 -26 121.5 -26zM331.997 776l111 139h77l-137 -139h-51z" />
    <glyph glyph-name="Ocircumflex" unicode="&#xd4;" horiz-adv-x="778" 
d="M53 359c0 52.667 7.16895 101.999 21.502 147.999s35.5 86.167 63.5 120.5s62.667 61.5 104 81.5s89 30 143 30c56 0 105.167 -9.83301 147.5 -29.5s77.666 -46.667 105.999 -81s49.666 -74.666 63.999 -120.999s21.5 -95.833 21.5 -148.5
c0 -52 -7.16699 -100.833 -21.5 -146.5s-35.5 -85.667 -63.5 -120s-63 -61.5 -105 -81.5s-90.667 -30 -146 -30s-104 10 -146 30s-77 47.167 -105 81.5s-49 74.333 -63 120s-21 94.5 -21 146.5zM389.002 38.999c46.667 0 86.8291 8.83398 120.496 26.501
s61.334 41.167 83.001 70.5s37.667 63.333 48 102s15.5 79 15.5 121c0 50 -6.16699 94.833 -18.5 134.5s-30.166 73.5 -53.499 101.5s-51.666 49.333 -84.999 64s-70.666 22 -111.999 22c-46 0 -85.833 -9 -119.5 -27s-61.334 -41.833 -83.001 -71.5
s-37.667 -63.834 -48 -102.501s-15.5 -79 -15.5 -121c0 -42.667 5.16699 -83.334 15.5 -122.001s26.333 -72.667 48 -102s49.334 -52.666 83.001 -69.999s74.167 -26 121.5 -26zM311.997 776h-65l114 139h67l113 -139h-65l-82 102z" />
    <glyph glyph-name="Otilde" unicode="&#xd5;" horiz-adv-x="778" 
d="M53 359c0 52.667 7.16895 101.999 21.502 147.999s35.5 86.167 63.5 120.5s62.667 61.5 104 81.5s89 30 143 30c56 0 105.167 -9.83301 147.5 -29.5s77.666 -46.667 105.999 -81s49.666 -74.666 63.999 -120.999s21.5 -95.833 21.5 -148.5
c0 -52 -7.16699 -100.833 -21.5 -146.5s-35.5 -85.667 -63.5 -120s-63 -61.5 -105 -81.5s-90.667 -30 -146 -30s-104 10 -146 30s-77 47.167 -105 81.5s-49 74.333 -63 120s-21 94.5 -21 146.5zM389.002 38.999c46.667 0 86.8291 8.83398 120.496 26.501
s61.334 41.167 83.001 70.5s37.667 63.333 48 102s15.5 79 15.5 121c0 50 -6.16699 94.833 -18.5 134.5s-30.166 73.5 -53.499 101.5s-51.666 49.333 -84.999 64s-70.666 22 -111.999 22c-46 0 -85.833 -9 -119.5 -27s-61.334 -41.833 -83.001 -71.5
s-37.667 -63.834 -48 -102.501s-15.5 -79 -15.5 -121c0 -42.667 5.16699 -83.334 15.5 -122.001s26.333 -72.667 48 -102s49.334 -52.666 83.001 -69.999s74.167 -26 121.5 -26zM238.997 788c1.33301 12 3.66699 22.8311 7 32.498s7.66602 18.5 12.999 26.5
c10 14 22.833 24.5 38.5 31.5s32.167 8.5 49.5 4.5c9.33301 -2 19.333 -5.33301 30 -10l32.5 -14.5c11 -5 21.667 -9.33301 32 -13s19.833 -5.5 28.5 -5.5c14.667 0 25 5.33301 31 16s10.333 22 13 34h38c-0.666992 -6.66699 -1.83398 -13.167 -3.50098 -19.5
s-3.16699 -12.5 -4.5 -18.5c-7.33301 -16 -16.666 -30 -27.999 -42s-26.666 -18 -45.999 -18c-14 0 -27.167 2.33301 -39.5 7s-24.5 9.83398 -36.5 15.501s-23.833 10.834 -35.5 15.501s-23.167 7 -34.5 7c-15.333 0 -26.333 -5 -33 -15s-12 -21.333 -16 -34h-36z" />
    <glyph glyph-name="Odieresis" unicode="&#xd6;" horiz-adv-x="778" 
d="M53 359c0 52.667 7.16895 101.999 21.502 147.999s35.5 86.167 63.5 120.5s62.667 61.5 104 81.5s89 30 143 30c56 0 105.167 -9.83301 147.5 -29.5s77.666 -46.667 105.999 -81s49.666 -74.666 63.999 -120.999s21.5 -95.833 21.5 -148.5
c0 -52 -7.16699 -100.833 -21.5 -146.5s-35.5 -85.667 -63.5 -120s-63 -61.5 -105 -81.5s-90.667 -30 -146 -30s-104 10 -146 30s-77 47.167 -105 81.5s-49 74.333 -63 120s-21 94.5 -21 146.5zM389.002 38.999c46.667 0 86.8291 8.83398 120.496 26.501
s61.334 41.167 83.001 70.5s37.667 63.333 48 102s15.5 79 15.5 121c0 50 -6.16699 94.833 -18.5 134.5s-30.166 73.5 -53.499 101.5s-51.666 49.333 -84.999 64s-70.666 22 -111.999 22c-46 0 -85.833 -9 -119.5 -27s-61.334 -41.833 -83.001 -71.5
s-37.667 -63.834 -48 -102.501s-15.5 -79 -15.5 -121c0 -42.667 5.16699 -83.334 15.5 -122.001s26.333 -72.667 48 -102s49.334 -52.666 83.001 -69.999s74.167 -26 121.5 -26zM282.997 888h65v-102h-65v102zM441.997 888h65v-102h-65v102z" />
    <glyph glyph-name="multiply" unicode="&#xd7;" horiz-adv-x="660" 
d="M120 6l-37 36l211 211l-211 211l37 36l211 -210l210 210l37 -36l-210 -211l210 -211l-37 -36l-210 210z" />
    <glyph glyph-name="Oslash" unicode="&#xd8;" horiz-adv-x="778" 
d="M572 604c-19.333 21.333 -43.999 39.5 -73.999 54.5s-68 22.5 -114 22.5s-85.833 -9 -119.5 -27s-61.334 -42 -83.001 -72s-37.667 -64.333 -48 -103s-15.5 -78.667 -15.5 -120c0 -40 4.5 -78 13.5 -114s23.167 -68.667 42.5 -98zM207.001 107
c21.333 -21.333 46.8301 -38.001 76.4971 -50.001s63.834 -18 102.501 -18c46.667 0 86.834 8.66699 120.501 26s61.334 40.833 83.001 70.5s37.667 63.834 48 102.501s15.5 79 15.5 121c0 35.333 -3.83301 70.333 -11.5 105s-20.167 66.667 -37.5 96zM696.998 746.999
l39 -34.9971l-87 -100c19.333 -21.333 36.166 -53.833 50.499 -97.5s21.5 -95.5 21.5 -155.5c0 -52 -7.16699 -100.833 -21.5 -146.5s-35.5 -85.667 -63.5 -120s-63 -61.5 -105 -81.5s-90.667 -30 -146 -30c-46 0 -87 6.83301 -123 20.5s-68 33.167 -96 58.5l-85 -97l-39 34
l89 101c-27.333 34 -47.666 73.167 -60.999 117.5s-20 92.166 -20 143.499c0 53.333 7.5 103.166 22.5 149.499s36.667 86.5 65 120.5s63 60.833 104 80.5s87.833 29.5 140.5 29.5c45.333 0 87.5 -6.83301 126.5 -20.5s74.167 -35.834 105.5 -66.501z" />
    <glyph glyph-name="Ugrave" unicode="&#xd9;" horiz-adv-x="722" 
d="M82 720l67.999 -0.000976562v-429c0 -89.333 16.667 -153.666 50 -192.999s87 -59 161 -59c38.667 0 71.5 5.16699 98.5 15.5s48.833 26 65.5 47s28.667 47.167 36 78.5s11 68.333 11 111v429h68v-449c0 -94 -23.167 -165.833 -69.5 -215.5
s-116.166 -74.5 -209.499 -74.5c-94 0 -164 25.333 -210 76s-69 122 -69 214v449zM239.999 914.999h78l111 -139h-51z" />
    <glyph glyph-name="Uacute" unicode="&#xda;" horiz-adv-x="722" 
d="M82 720l67.999 -0.000976562v-429c0 -89.333 16.667 -153.666 50 -192.999s87 -59 161 -59c38.667 0 71.5 5.16699 98.5 15.5s48.833 26 65.5 47s28.667 47.167 36 78.5s11 68.333 11 111v429h68v-449c0 -94 -23.167 -165.833 -69.5 -215.5
s-116.166 -74.5 -209.499 -74.5c-94 0 -164 25.333 -210 76s-69 122 -69 214v449zM303.999 775.999l111 139h77l-137 -139h-51z" />
    <glyph glyph-name="Ucircumflex" unicode="&#xdb;" horiz-adv-x="722" 
d="M82 720l67.999 -0.000976562v-429c0 -89.333 16.667 -153.666 50 -192.999s87 -59 161 -59c38.667 0 71.5 5.16699 98.5 15.5s48.833 26 65.5 47s28.667 47.167 36 78.5s11 68.333 11 111v429h68v-449c0 -94 -23.167 -165.833 -69.5 -215.5
s-116.166 -74.5 -209.499 -74.5c-94 0 -164 25.333 -210 76s-69 122 -69 214v449zM283.999 775.999h-65l114 139h67l113 -139h-65l-82 102z" />
    <glyph glyph-name="Udieresis" unicode="&#xdc;" horiz-adv-x="722" 
d="M82 720l67.999 -0.000976562v-429c0 -89.333 16.667 -153.666 50 -192.999s87 -59 161 -59c38.667 0 71.5 5.16699 98.5 15.5s48.833 26 65.5 47s28.667 47.167 36 78.5s11 68.333 11 111v429h68v-449c0 -94 -23.167 -165.833 -69.5 -215.5
s-116.166 -74.5 -209.499 -74.5c-94 0 -164 25.333 -210 76s-69 122 -69 214v449zM254.999 887.999h65v-102h-65v102zM413.999 887.999h65v-102h-65v102z" />
    <glyph glyph-name="Yacute" unicode="&#xdd;" horiz-adv-x="611" 
d="M302 373l217 347h79l-261 -406v-314h-68v309l-257 411h78zM248 776l111 139h77l-137 -139h-51z" />
    <glyph glyph-name="Thorn" unicode="&#xde;" horiz-adv-x="611" 
d="M78 0v720.001h68v-150h195c46.667 0 85.167 -5.33301 115.5 -16s54.333 -25.334 72 -44.001s30 -40.167 37 -64.5s10.5 -49.833 10.5 -76.5c0 -40 -8.16699 -73 -24.5 -99s-37.5 -46.5 -63.5 -61.5s-55.5 -25.5 -88.5 -31.5s-66.167 -9 -99.5 -9h-154v-168h-68z
M302 226.001c32 0 60.667 2.00098 86 6.00098s46.833 11.5 64.5 22.5s31.334 26 41.001 45s14.5 43.833 14.5 74.5c0 45.333 -14.833 79.666 -44.5 102.999s-76.834 35 -141.501 35h-176v-286h156z" />
    <glyph glyph-name="germandbls" unicode="&#xdf;" horiz-adv-x="500" 
d="M211 425c22 0.666992 42.666 3.16895 61.999 7.50195s36 11.333 50 21s25 22.167 33 37.5s12 34.666 12 57.999c0 37.333 -9.83301 68.5 -29.5 93.5s-51.834 37.5 -96.501 37.5c-29.333 0 -52.5 -3.5 -69.5 -10.5s-30 -17 -39 -30s-14.833 -28.5 -17.5 -46.5
s-4 -38 -4 -60v-533h-60v544c0 62 15.333 109.167 46 141.5s77.667 48.5 141 48.5c28.667 0 54.834 -4.33301 78.501 -13s44 -21 61 -37s30.167 -35.5 39.5 -58.5s14 -48.833 14 -77.5c0 -32 -7.66699 -59.5 -23 -82.5s-35.666 -43.833 -60.999 -62.5
c18.667 -6.66699 35 -16.167 49 -28.5s25.5 -26.5 34.5 -42.5s15.833 -33.333 20.5 -52s7 -37.334 7 -56.001c0 -78 -18.5 -137.167 -55.5 -177.5s-88.833 -60.5 -155.5 -60.5c-14.667 0 -27 1.66699 -37 5v53c24.667 -4.66699 48 -4.66699 70 0s41.5 13.5 58.5 26.5
s30.5 30.167 40.5 51.5s15 47 15 77c0 63.333 -14.667 108.5 -44 135.5s-76 40.5 -140 40.5v50z" />
    <glyph glyph-name="agrave" unicode="&#xe0;" 
d="M411 272c-25.333 -10.667 -51.001 -17.667 -77.001 -21s-52 -6 -78 -8c-46 -3.33301 -81.833 -13.666 -107.5 -30.999s-38.5 -43.666 -38.5 -78.999c0 -16 3.16699 -29.833 9.5 -41.5s14.666 -21.334 24.999 -29.001s22.333 -13.334 36 -17.001s27.5 -5.5 41.5 -5.5
c24 0 47.333 3 70 9s42.834 15.167 60.501 27.5s31.834 28 42.501 47s16 41.5 16 67.5v81zM309.999 302c11.333 1.33301 24.835 3.33008 40.502 5.99707s28.5 6.33398 38.5 11.001s16.167 12.5 18.5 23.5s3.5 21.167 3.5 30.5c0 30.667 -9.83301 55.834 -29.5 75.501
s-52.834 29.5 -99.501 29.5c-20.667 0 -39.667 -1.83301 -57 -5.5s-32.5 -10 -45.5 -19s-23.667 -21 -32 -36s-13.833 -33.833 -16.5 -56.5h-61c2 30.667 9 56.834 21 78.501s27.5 39.334 46.5 53.001s41 23.667 66 30s51.5 9.5 79.5 9.5c26 0 50.5 -2.83301 73.5 -8.5
s43 -14.667 60 -27s30.333 -28.833 40 -49.5s14.5 -46 14.5 -76v-282c0 -23.333 4.16699 -38.166 12.5 -44.499s25.166 -4.83301 50.499 4.5v-47l-20.5 -6c-9 -2.66699 -17.833 -4 -26.5 -4c-9.33301 0 -18.333 1 -27 3c-10 1.33301 -18 4.5 -24 9.5s-10.833 11 -14.5 18
s-6.16699 14.667 -7.5 23s-2 17.166 -2 26.499c-25.333 -28 -54.333 -49.333 -87 -64s-68 -22 -106 -22c-22.667 0 -44.5 3 -65.5 9s-39.5 15.333 -55.5 28s-28.667 28.167 -38 46.5s-14 40.166 -14 65.499c0 88 60.333 140 181 156zM157.001 712.997h78l111 -139h-51z" />
    <glyph glyph-name="aacute" unicode="&#xe1;" 
d="M411 272c-25.333 -10.667 -51.001 -17.667 -77.001 -21s-52 -6 -78 -8c-46 -3.33301 -81.833 -13.666 -107.5 -30.999s-38.5 -43.666 -38.5 -78.999c0 -16 3.16699 -29.833 9.5 -41.5s14.666 -21.334 24.999 -29.001s22.333 -13.334 36 -17.001s27.5 -5.5 41.5 -5.5
c24 0 47.333 3 70 9s42.834 15.167 60.501 27.5s31.834 28 42.501 47s16 41.5 16 67.5v81zM309.999 302c11.333 1.33301 24.835 3.33008 40.502 5.99707s28.5 6.33398 38.5 11.001s16.167 12.5 18.5 23.5s3.5 21.167 3.5 30.5c0 30.667 -9.83301 55.834 -29.5 75.501
s-52.834 29.5 -99.501 29.5c-20.667 0 -39.667 -1.83301 -57 -5.5s-32.5 -10 -45.5 -19s-23.667 -21 -32 -36s-13.833 -33.833 -16.5 -56.5h-61c2 30.667 9 56.834 21 78.501s27.5 39.334 46.5 53.001s41 23.667 66 30s51.5 9.5 79.5 9.5c26 0 50.5 -2.83301 73.5 -8.5
s43 -14.667 60 -27s30.333 -28.833 40 -49.5s14.5 -46 14.5 -76v-282c0 -23.333 4.16699 -38.166 12.5 -44.499s25.166 -4.83301 50.499 4.5v-47l-20.5 -6c-9 -2.66699 -17.833 -4 -26.5 -4c-9.33301 0 -18.333 1 -27 3c-10 1.33301 -18 4.5 -24 9.5s-10.833 11 -14.5 18
s-6.16699 14.667 -7.5 23s-2 17.166 -2 26.499c-25.333 -28 -54.333 -49.333 -87 -64s-68 -22 -106 -22c-22.667 0 -44.5 3 -65.5 9s-39.5 15.333 -55.5 28s-28.667 28.167 -38 46.5s-14 40.166 -14 65.499c0 88 60.333 140 181 156zM221.001 573.997l111 139h77l-137 -139
h-51z" />
    <glyph glyph-name="acircumflex" unicode="&#xe2;" 
d="M411 272c-25.333 -10.667 -51.001 -17.667 -77.001 -21s-52 -6 -78 -8c-46 -3.33301 -81.833 -13.666 -107.5 -30.999s-38.5 -43.666 -38.5 -78.999c0 -16 3.16699 -29.833 9.5 -41.5s14.666 -21.334 24.999 -29.001s22.333 -13.334 36 -17.001s27.5 -5.5 41.5 -5.5
c24 0 47.333 3 70 9s42.834 15.167 60.501 27.5s31.834 28 42.501 47s16 41.5 16 67.5v81zM309.999 302c11.333 1.33301 24.835 3.33008 40.502 5.99707s28.5 6.33398 38.5 11.001s16.167 12.5 18.5 23.5s3.5 21.167 3.5 30.5c0 30.667 -9.83301 55.834 -29.5 75.501
s-52.834 29.5 -99.501 29.5c-20.667 0 -39.667 -1.83301 -57 -5.5s-32.5 -10 -45.5 -19s-23.667 -21 -32 -36s-13.833 -33.833 -16.5 -56.5h-61c2 30.667 9 56.834 21 78.501s27.5 39.334 46.5 53.001s41 23.667 66 30s51.5 9.5 79.5 9.5c26 0 50.5 -2.83301 73.5 -8.5
s43 -14.667 60 -27s30.333 -28.833 40 -49.5s14.5 -46 14.5 -76v-282c0 -23.333 4.16699 -38.166 12.5 -44.499s25.166 -4.83301 50.499 4.5v-47l-20.5 -6c-9 -2.66699 -17.833 -4 -26.5 -4c-9.33301 0 -18.333 1 -27 3c-10 1.33301 -18 4.5 -24 9.5s-10.833 11 -14.5 18
s-6.16699 14.667 -7.5 23s-2 17.166 -2 26.499c-25.333 -28 -54.333 -49.333 -87 -64s-68 -22 -106 -22c-22.667 0 -44.5 3 -65.5 9s-39.5 15.333 -55.5 28s-28.667 28.167 -38 46.5s-14 40.166 -14 65.499c0 88 60.333 140 181 156zM201.001 573.997h-65l114 139h67
l113 -139h-65l-82 102z" />
    <glyph glyph-name="atilde" unicode="&#xe3;" 
d="M411 272c-25.333 -10.667 -51.001 -17.667 -77.001 -21s-52 -6 -78 -8c-46 -3.33301 -81.833 -13.666 -107.5 -30.999s-38.5 -43.666 -38.5 -78.999c0 -16 3.16699 -29.833 9.5 -41.5s14.666 -21.334 24.999 -29.001s22.333 -13.334 36 -17.001s27.5 -5.5 41.5 -5.5
c24 0 47.333 3 70 9s42.834 15.167 60.501 27.5s31.834 28 42.501 47s16 41.5 16 67.5v81zM309.999 302c11.333 1.33301 24.835 3.33008 40.502 5.99707s28.5 6.33398 38.5 11.001s16.167 12.5 18.5 23.5s3.5 21.167 3.5 30.5c0 30.667 -9.83301 55.834 -29.5 75.501
s-52.834 29.5 -99.501 29.5c-20.667 0 -39.667 -1.83301 -57 -5.5s-32.5 -10 -45.5 -19s-23.667 -21 -32 -36s-13.833 -33.833 -16.5 -56.5h-61c2 30.667 9 56.834 21 78.501s27.5 39.334 46.5 53.001s41 23.667 66 30s51.5 9.5 79.5 9.5c26 0 50.5 -2.83301 73.5 -8.5
s43 -14.667 60 -27s30.333 -28.833 40 -49.5s14.5 -46 14.5 -76v-282c0 -23.333 4.16699 -38.166 12.5 -44.499s25.166 -4.83301 50.499 4.5v-47l-20.5 -6c-9 -2.66699 -17.833 -4 -26.5 -4c-9.33301 0 -18.333 1 -27 3c-10 1.33301 -18 4.5 -24 9.5s-10.833 11 -14.5 18
s-6.16699 14.667 -7.5 23s-2 17.166 -2 26.499c-25.333 -28 -54.333 -49.333 -87 -64s-68 -22 -106 -22c-22.667 0 -44.5 3 -65.5 9s-39.5 15.333 -55.5 28s-28.667 28.167 -38 46.5s-14 40.166 -14 65.499c0 88 60.333 140 181 156zM128.001 585.997
c1.33301 12 3.66699 22.8311 7 32.498s7.66602 18.5 12.999 26.5c10 14 22.833 24.5 38.5 31.5s32.167 8.5 49.5 4.5c9.33301 -2 19.333 -5.33301 30 -10l32.5 -14.5c11 -5 21.667 -9.33301 32 -13s19.833 -5.5 28.5 -5.5c14.667 0 25 5.33301 31 16s10.333 22 13 34h38
c-0.666992 -6.66699 -1.83398 -13.167 -3.50098 -19.5s-3.16699 -12.5 -4.5 -18.5c-7.33301 -16 -16.666 -30 -27.999 -42s-26.666 -18 -45.999 -18c-14 0 -27.167 2.33301 -39.5 7s-24.5 9.83398 -36.5 15.501s-23.833 10.834 -35.5 15.501s-23.167 7 -34.5 7
c-15.333 0 -26.333 -5 -33 -15s-12 -21.333 -16 -34h-36z" />
    <glyph glyph-name="adieresis" unicode="&#xe4;" 
d="M411 272c-25.333 -10.667 -51.001 -17.667 -77.001 -21s-52 -6 -78 -8c-46 -3.33301 -81.833 -13.666 -107.5 -30.999s-38.5 -43.666 -38.5 -78.999c0 -16 3.16699 -29.833 9.5 -41.5s14.666 -21.334 24.999 -29.001s22.333 -13.334 36 -17.001s27.5 -5.5 41.5 -5.5
c24 0 47.333 3 70 9s42.834 15.167 60.501 27.5s31.834 28 42.501 47s16 41.5 16 67.5v81zM309.999 302c11.333 1.33301 24.835 3.33008 40.502 5.99707s28.5 6.33398 38.5 11.001s16.167 12.5 18.5 23.5s3.5 21.167 3.5 30.5c0 30.667 -9.83301 55.834 -29.5 75.501
s-52.834 29.5 -99.501 29.5c-20.667 0 -39.667 -1.83301 -57 -5.5s-32.5 -10 -45.5 -19s-23.667 -21 -32 -36s-13.833 -33.833 -16.5 -56.5h-61c2 30.667 9 56.834 21 78.501s27.5 39.334 46.5 53.001s41 23.667 66 30s51.5 9.5 79.5 9.5c26 0 50.5 -2.83301 73.5 -8.5
s43 -14.667 60 -27s30.333 -28.833 40 -49.5s14.5 -46 14.5 -76v-282c0 -23.333 4.16699 -38.166 12.5 -44.499s25.166 -4.83301 50.499 4.5v-47l-20.5 -6c-9 -2.66699 -17.833 -4 -26.5 -4c-9.33301 0 -18.333 1 -27 3c-10 1.33301 -18 4.5 -24 9.5s-10.833 11 -14.5 18
s-6.16699 14.667 -7.5 23s-2 17.166 -2 26.499c-25.333 -28 -54.333 -49.333 -87 -64s-68 -22 -106 -22c-22.667 0 -44.5 3 -65.5 9s-39.5 15.333 -55.5 28s-28.667 28.167 -38 46.5s-14 40.166 -14 65.499c0 88 60.333 140 181 156zM172.001 685.997h65v-102h-65v102z
M331.001 685.997h65v-102h-65v102z" />
    <glyph glyph-name="aring" unicode="&#xe5;" 
d="M411 272c-25.333 -10.667 -51.001 -17.667 -77.001 -21s-52 -6 -78 -8c-46 -3.33301 -81.833 -13.666 -107.5 -30.999s-38.5 -43.666 -38.5 -78.999c0 -16 3.16699 -29.833 9.5 -41.5s14.666 -21.334 24.999 -29.001s22.333 -13.334 36 -17.001s27.5 -5.5 41.5 -5.5
c24 0 47.333 3 70 9s42.834 15.167 60.501 27.5s31.834 28 42.501 47s16 41.5 16 67.5v81zM309.999 302c11.333 1.33301 24.835 3.33008 40.502 5.99707s28.5 6.33398 38.5 11.001s16.167 12.5 18.5 23.5s3.5 21.167 3.5 30.5c0 30.667 -9.83301 55.834 -29.5 75.501
s-52.834 29.5 -99.501 29.5c-20.667 0 -39.667 -1.83301 -57 -5.5s-32.5 -10 -45.5 -19s-23.667 -21 -32 -36s-13.833 -33.833 -16.5 -56.5h-61c2 30.667 9 56.834 21 78.501s27.5 39.334 46.5 53.001s41 23.667 66 30s51.5 9.5 79.5 9.5c26 0 50.5 -2.83301 73.5 -8.5
s43 -14.667 60 -27s30.333 -28.833 40 -49.5s14.5 -46 14.5 -76v-282c0 -23.333 4.16699 -38.166 12.5 -44.499s25.166 -4.83301 50.499 4.5v-47l-20.5 -6c-9 -2.66699 -17.833 -4 -26.5 -4c-9.33301 0 -18.333 1 -27 3c-10 1.33301 -18 4.5 -24 9.5s-10.833 11 -14.5 18
s-6.16699 14.667 -7.5 23s-2 17.166 -2 26.499c-25.333 -28 -54.333 -49.333 -87 -64s-68 -22 -106 -22c-22.667 0 -44.5 3 -65.5 9s-39.5 15.333 -55.5 28s-28.667 28.167 -38 46.5s-14 40.166 -14 65.499c0 88 60.333 140 181 156zM279.001 577.997
c-13.333 0 -26.166 2.66699 -38.499 8s-23 12.5 -32 21.5s-16.167 19.5 -21.5 31.5s-8 24.667 -8 38s2.66699 26 8 38s12.666 22.667 21.999 32s20 16.666 32 21.999s24.667 8 38 8s26 -2.66699 38 -8s22.5 -12.666 31.5 -21.999s16.167 -20 21.5 -32s8 -24.667 8 -38
s-2.66699 -26 -8 -38s-12.5 -22.5 -21.5 -31.5s-19.5 -16.167 -31.5 -21.5s-24.667 -8 -38 -8zM279.001 610.997c17.333 0 32.667 6.66797 46 20.001s20 28.666 20 45.999s-6.5 32.833 -19.5 46.5s-28.5 20.5 -46.5 20.5s-33.667 -6.66699 -47 -20s-20 -29 -20 -47
s6.83301 -33.5 20.5 -46.5s29.167 -19.5 46.5 -19.5z" />
    <glyph glyph-name="ae" unicode="&#xe6;" horiz-adv-x="889" 
d="M393 274c-16 -8.66699 -34.167 -14.832 -54.5 -18.499s-41.166 -6.83398 -62.499 -9.50098s-42.333 -5.5 -63 -8.5s-39.167 -8 -55.5 -15s-29.5 -17 -39.5 -30s-15 -30.167 -15 -51.5c0 -34 9.66699 -59.333 29 -76s45.666 -25 78.999 -25
c60.667 0 106.167 15.167 136.5 45.5s45.5 69.833 45.5 118.5v70zM783 295.002c0 24.667 -3.33301 48.1641 -10 70.4971s-16.5 41.833 -29.5 58.5s-29.5 29.834 -49.5 39.501s-43 14.5 -69 14.5c-31.333 0 -57.833 -6.16699 -79.5 -18.5s-39 -27.666 -52 -45.999
s-22.333 -38.166 -28 -59.499s-8.5 -41 -8.5 -59h326zM276 300.999c26 2.66699 46.6631 5.66797 61.9961 9.00098s27 7.33301 35 12s13.333 10.5 16 17.5s4 15.5 4 25.5c0 44 -9.5 73.833 -28.5 89.5s-51.5 23.5 -97.5 23.5c-40 0 -72.667 -8.5 -98 -25.5
s-40.666 -46.5 -45.999 -88.5h-62c2 29.333 8.5 54.5 19.5 75.5s25.667 38.333 44 52s39.5 23.834 63.5 30.501s49.667 10 77 10c16.667 0 34.167 -1.16699 52.5 -3.5s35.833 -6.66602 52.5 -12.999s31.667 -15 45 -26s23.666 -25.167 30.999 -42.5
c22.667 33.333 48.667 55.833 78 67.5s63.666 17.5 102.999 17.5c43.333 0 79.166 -7.5 107.499 -22.5s50.833 -35.5 67.5 -61.5s28.334 -56.333 35.001 -91s10 -72 10 -112h-390c0 -28 3.16699 -54.5 9.5 -79.5s16.5 -46.667 30.5 -65s31.833 -33 53.5 -44
s47.834 -16.5 78.501 -16.5c40 0 72.667 10.667 98 32s43 50.666 53 87.999h63c-13.333 -56 -38.5 -99 -75.5 -129s-84.833 -45 -143.5 -45c-45.333 0 -84.166 9.16699 -116.499 27.5s-60.166 47.166 -83.499 86.499c-9.33301 -13.333 -20 -26.666 -32 -39.999
s-26.333 -25.5 -43 -36.5s-36.667 -20 -60 -27s-51 -10.5 -83 -10.5c-23.333 0 -45.166 2.83301 -65.499 8.5s-38 14.5 -53 26.5s-26.833 27.167 -35.5 45.5s-13 40.166 -13 65.499c0 45.333 14.833 82.166 44.5 110.499s74.834 45.833 135.501 52.5z" />
    <glyph glyph-name="ccedilla" unicode="&#xe7;" 
d="M439 355c-10.667 38.667 -29.0039 68.835 -55.0039 90.502s-59 32.5 -99 32.5c-30.667 0 -57 -6.33301 -79 -19s-40 -29.5 -54 -50.5s-24.333 -44.667 -31 -71s-10 -52.833 -10 -79.5c0 -27.333 3.16699 -54 9.5 -80s16.5 -49.333 30.5 -70s32 -37.167 54 -49.5
s48.667 -18.5 80 -18.5c44.667 0 80.5 12.333 107.5 37s44.167 58.667 51.5 102h64c-5.33301 -28 -13.666 -53.667 -24.999 -77s-26 -43.5 -44 -60.5s-39.333 -30.333 -64 -40s-53 -14.834 -85 -15.501l-36 -45l18 4c6 1.33301 12 2 18 2c22 0 39.833 -5.5 53.5 -16.5
s21.5 -22.833 23.5 -35.5c3.33301 -18 2.5 -33.5 -2.5 -46.5s-12.833 -23.5 -23.5 -31.5s-23.334 -14 -38.001 -18s-30 -6 -46 -6c-15.333 0 -30.666 1.83301 -45.999 5.5s-30.333 8.16699 -45 13.5l15 30l31.5 -10c10.333 -3.33301 21.166 -5 32.499 -5
c7.33301 0 14.833 0.833008 22.5 2.5s14.834 4.33398 21.501 8.00098s12 8.5 16 14.5s6 13.333 6 22c0 13.333 -5.16699 23.166 -15.5 29.499s-21.833 9.5 -34.5 9.5c-7.33301 0 -14.666 -0.833008 -21.999 -2.5s-14.666 -3.5 -21.999 -5.5l-15 13l52 71
c-36 3.33301 -67 12.5 -93 27.5s-47.5 34.5 -64.5 58.5s-29.5 51.5 -37.5 82.5s-12 64.5 -12 100.5s5.16699 70.5 15.5 103.5s25.5 62.167 45.5 87.5s44.833 45.5 74.5 60.5s63.834 22.5 102.501 22.5c60 0 108.5 -14.333 145.5 -43s60.167 -73.334 69.5 -134.001h-61z" />
    <glyph glyph-name="egrave" unicode="&#xe8;" 
d="M447 295c0 25.333 -3.49805 49.168 -10.498 71.501s-17.333 41.666 -31 57.999s-30.834 29.333 -51.501 39s-44.334 14.5 -71.001 14.5s-50.167 -5 -70.5 -15s-37.666 -23.333 -51.999 -40s-25.833 -36 -34.5 -58s-14.334 -45.333 -17.001 -70h338zM109.002 245.002
c0 -28 3.66992 -54.499 11.0029 -79.499s18.166 -46.667 32.499 -65s32.5 -33 54.5 -44s47.333 -16.5 76 -16.5c39.333 0 73 10.333 101 31s46.667 50 56 88h67c-7.33301 -24.667 -17 -47.5 -29 -68.5s-27 -39.333 -45 -55s-39.333 -27.834 -64 -36.501
s-53.334 -13 -86.001 -13c-41.333 0 -77 7 -107 21s-54.667 33.167 -74 57.5s-33.666 53 -42.999 86s-14 68.5 -14 106.5s5.5 73.667 16.5 107s26.667 62.5 47 87.5s45.166 44.667 74.499 59s62.666 21.5 99.999 21.5c71.333 0 127.333 -24.5 168 -73.5
s60.667 -120.167 60 -213.5h-402zM157.005 713.003h78l111 -139h-51z" />
    <glyph glyph-name="eacute" unicode="&#xe9;" 
d="M447 295c0 25.333 -3.49805 49.168 -10.498 71.501s-17.333 41.666 -31 57.999s-30.834 29.333 -51.501 39s-44.334 14.5 -71.001 14.5s-50.167 -5 -70.5 -15s-37.666 -23.333 -51.999 -40s-25.833 -36 -34.5 -58s-14.334 -45.333 -17.001 -70h338zM109.002 245.002
c0 -28 3.66992 -54.499 11.0029 -79.499s18.166 -46.667 32.499 -65s32.5 -33 54.5 -44s47.333 -16.5 76 -16.5c39.333 0 73 10.333 101 31s46.667 50 56 88h67c-7.33301 -24.667 -17 -47.5 -29 -68.5s-27 -39.333 -45 -55s-39.333 -27.834 -64 -36.501
s-53.334 -13 -86.001 -13c-41.333 0 -77 7 -107 21s-54.667 33.167 -74 57.5s-33.666 53 -42.999 86s-14 68.5 -14 106.5s5.5 73.667 16.5 107s26.667 62.5 47 87.5s45.166 44.667 74.499 59s62.666 21.5 99.999 21.5c71.333 0 127.333 -24.5 168 -73.5
s60.667 -120.167 60 -213.5h-402zM221.005 574.003l111 139h77l-137 -139h-51z" />
    <glyph glyph-name="ecircumflex" unicode="&#xea;" 
d="M447 295c0 25.333 -3.49805 49.168 -10.498 71.501s-17.333 41.666 -31 57.999s-30.834 29.333 -51.501 39s-44.334 14.5 -71.001 14.5s-50.167 -5 -70.5 -15s-37.666 -23.333 -51.999 -40s-25.833 -36 -34.5 -58s-14.334 -45.333 -17.001 -70h338zM109.002 245.002
c0 -28 3.66992 -54.499 11.0029 -79.499s18.166 -46.667 32.499 -65s32.5 -33 54.5 -44s47.333 -16.5 76 -16.5c39.333 0 73 10.333 101 31s46.667 50 56 88h67c-7.33301 -24.667 -17 -47.5 -29 -68.5s-27 -39.333 -45 -55s-39.333 -27.834 -64 -36.501
s-53.334 -13 -86.001 -13c-41.333 0 -77 7 -107 21s-54.667 33.167 -74 57.5s-33.666 53 -42.999 86s-14 68.5 -14 106.5s5.5 73.667 16.5 107s26.667 62.5 47 87.5s45.166 44.667 74.499 59s62.666 21.5 99.999 21.5c71.333 0 127.333 -24.5 168 -73.5
s60.667 -120.167 60 -213.5h-402zM201.005 574.003h-65l114 139h67l113 -139h-65l-82 102z" />
    <glyph glyph-name="edieresis" unicode="&#xeb;" 
d="M447 295c0 25.333 -3.49805 49.168 -10.498 71.501s-17.333 41.666 -31 57.999s-30.834 29.333 -51.501 39s-44.334 14.5 -71.001 14.5s-50.167 -5 -70.5 -15s-37.666 -23.333 -51.999 -40s-25.833 -36 -34.5 -58s-14.334 -45.333 -17.001 -70h338zM109.002 245.002
c0 -28 3.66992 -54.499 11.0029 -79.499s18.166 -46.667 32.499 -65s32.5 -33 54.5 -44s47.333 -16.5 76 -16.5c39.333 0 73 10.333 101 31s46.667 50 56 88h67c-7.33301 -24.667 -17 -47.5 -29 -68.5s-27 -39.333 -45 -55s-39.333 -27.834 -64 -36.501
s-53.334 -13 -86.001 -13c-41.333 0 -77 7 -107 21s-54.667 33.167 -74 57.5s-33.666 53 -42.999 86s-14 68.5 -14 106.5s5.5 73.667 16.5 107s26.667 62.5 47 87.5s45.166 44.667 74.499 59s62.666 21.5 99.999 21.5c71.333 0 127.333 -24.5 168 -73.5
s60.667 -120.167 60 -213.5h-402zM172.005 686.003h65v-102h-65v102zM331.005 686.003h65v-102h-65v102z" />
    <glyph glyph-name="igrave" unicode="&#xec;" horiz-adv-x="222" 
d="M78 0v518h60v-518h-60zM-10 713h78l111 -139h-51z" />
    <glyph glyph-name="iacute" unicode="&#xed;" horiz-adv-x="222" 
d="M78 0v518h60v-518h-60zM33 574l111 139h77l-137 -139h-51z" />
    <glyph glyph-name="icircumflex" unicode="&#xee;" horiz-adv-x="222" 
d="M78 0v518h60v-518h-60zM13 574h-65l114 139h67l113 -139h-65l-82 102z" />
    <glyph glyph-name="idieresis" unicode="&#xef;" horiz-adv-x="222" 
d="M78 0v518h60v-518h-60zM-16 686h65v-102h-65v102zM143 686h65v-102h-65v102z" />
    <glyph glyph-name="eth" unicode="&#xf0;" 
d="M454 259c0 30.667 -3.33398 59.3301 -10.001 85.9971s-17 49.834 -31 69.501s-32 35.167 -54 46.5s-49 17 -81 17c-31.333 0 -58.166 -6.16699 -80.499 -18.5s-40.5 -28.666 -54.5 -48.999s-24.333 -43.666 -31 -69.999s-10 -53.5 -10 -81.5
c0 -32 3.83301 -61.5 11.5 -88.5s18.834 -50.167 33.501 -69.5s33 -34.333 55 -45s47.333 -16 76 -16c31.333 0 58.166 6.16699 80.499 18.5s40.5 28.833 54.5 49.5s24.333 44 31 70s10 53 10 81zM267.999 585.996l-38.002 23.9951l65 52
c-11.333 8 -23.666 15.5 -36.999 22.5l-43 21.5l41 33c14 -6 27.5 -12.667 40.5 -20s25.833 -15.666 38.5 -24.999l55 45l37 -25l-59 -48c46.667 -44 83.334 -100.5 110.001 -169.5s40 -148.167 40 -237.5c0 -41.333 -5.66699 -78.666 -17 -111.999s-27.5 -62 -48.5 -86
s-46.333 -42.5 -76 -55.5s-62.5 -19.5 -98.5 -19.5c-33.333 0.666992 -64.5 6.66699 -93.5 18s-54.333 28.333 -76 51s-38.834 51 -51.501 85s-19 73.667 -19 119c0 34 4.5 67.333 13.5 100s23 61.834 42 87.501s43.5 46.334 73.5 62.001s65.667 23.5 107 23.5
c16.667 0 31.334 -0.666992 44.001 -2s24.5 -3.66602 35.5 -6.99902s21.833 -8 32.5 -14s22 -13.667 34 -23c-12 34 -25.333 63 -40 87s-31.667 44.667 -51 62z" />
    <glyph glyph-name="ntilde" unicode="&#xf1;" 
d="M132 0l-60 0.000976562v518h60v-72c24 25.333 48.833 46 74.5 62s56.5 24 92.5 24c32 0 61.667 -5.5 89 -16.5s50.333 -30.167 69 -57.5c12.667 -18.667 20.167 -37.834 22.5 -57.501s3.5 -40.167 3.5 -61.5v-339h-60v338c0 46.667 -10.333 81.667 -31 105
s-55 35 -103 35c-18.667 0 -35.667 -2.83301 -51 -8.5s-29.166 -13.167 -41.499 -22.5s-22.833 -20 -31.5 -32s-15.334 -24.667 -20.001 -38c-6 -16.667 -9.66699 -32.667 -11 -48s-2 -32 -2 -50v-279zM128 586.001c1.33301 12 3.66699 22.8311 7 32.498
s7.66602 18.5 12.999 26.5c10 14 22.833 24.5 38.5 31.5s32.167 8.5 49.5 4.5c9.33301 -2 19.333 -5.33301 30 -10l32.5 -14.5c11 -5 21.667 -9.33301 32 -13s19.833 -5.5 28.5 -5.5c14.667 0 25 5.33301 31 16s10.333 22 13 34h38
c-0.666992 -6.66699 -1.83398 -13.167 -3.50098 -19.5s-3.16699 -12.5 -4.5 -18.5c-7.33301 -16 -16.666 -30 -27.999 -42s-26.666 -18 -45.999 -18c-14 0 -27.167 2.33301 -39.5 7s-24.5 9.83398 -36.5 15.501s-23.833 10.834 -35.5 15.501s-23.167 7 -34.5 7
c-15.333 0 -26.333 -5 -33 -15s-12 -21.333 -16 -34h-36z" />
    <glyph glyph-name="ograve" unicode="&#xf2;" 
d="M278 -14c-33.333 0.666992 -64.499 6.66406 -93.499 17.9971s-54.333 28.333 -76 51s-38.834 51 -51.501 85s-19 73.667 -19 119c0 38 5 73.5 15 106.5s25 61.833 45 86.5s45 44.167 75 58.5s65 21.5 105 21.5c40.667 0 76 -7.16699 106 -21.5s55 -33.666 75 -57.999
s34.833 -53.166 44.5 -86.499s14.5 -69 14.5 -107c0 -41.333 -5.66699 -78.666 -17 -111.999s-27.5 -62 -48.5 -86s-46.333 -42.5 -76 -55.5s-62.5 -19.5 -98.5 -19.5zM454.001 258.997c0 30.667 -3.33398 59.3301 -10.001 85.9971s-17 49.834 -31 69.501
s-32 35.167 -54 46.5s-49 17 -81 17c-31.333 0 -58.166 -6.16699 -80.499 -18.5s-40.5 -28.666 -54.5 -48.999s-24.333 -43.666 -31 -69.999s-10 -53.5 -10 -81.5c0 -32 3.83301 -61.5 11.5 -88.5s18.834 -50.167 33.501 -69.5s33 -34.333 55 -45s47.333 -16 76 -16
c31.333 0 58.166 6.16699 80.499 18.5s40.5 28.833 54.5 49.5s24.333 44 31 70s10 53 10 81zM157 712.993h78l111 -139h-51z" />
    <glyph glyph-name="oacute" unicode="&#xf3;" 
d="M278 -14c-33.333 0.666992 -64.499 6.66406 -93.499 17.9971s-54.333 28.333 -76 51s-38.834 51 -51.501 85s-19 73.667 -19 119c0 38 5 73.5 15 106.5s25 61.833 45 86.5s45 44.167 75 58.5s65 21.5 105 21.5c40.667 0 76 -7.16699 106 -21.5s55 -33.666 75 -57.999
s34.833 -53.166 44.5 -86.499s14.5 -69 14.5 -107c0 -41.333 -5.66699 -78.666 -17 -111.999s-27.5 -62 -48.5 -86s-46.333 -42.5 -76 -55.5s-62.5 -19.5 -98.5 -19.5zM454.001 258.997c0 30.667 -3.33398 59.3301 -10.001 85.9971s-17 49.834 -31 69.501
s-32 35.167 -54 46.5s-49 17 -81 17c-31.333 0 -58.166 -6.16699 -80.499 -18.5s-40.5 -28.666 -54.5 -48.999s-24.333 -43.666 -31 -69.999s-10 -53.5 -10 -81.5c0 -32 3.83301 -61.5 11.5 -88.5s18.834 -50.167 33.501 -69.5s33 -34.333 55 -45s47.333 -16 76 -16
c31.333 0 58.166 6.16699 80.499 18.5s40.5 28.833 54.5 49.5s24.333 44 31 70s10 53 10 81zM221 573.993l111 139h77l-137 -139h-51z" />
    <glyph glyph-name="ocircumflex" unicode="&#xf4;" 
d="M278 -14c-33.333 0.666992 -64.499 6.66406 -93.499 17.9971s-54.333 28.333 -76 51s-38.834 51 -51.501 85s-19 73.667 -19 119c0 38 5 73.5 15 106.5s25 61.833 45 86.5s45 44.167 75 58.5s65 21.5 105 21.5c40.667 0 76 -7.16699 106 -21.5s55 -33.666 75 -57.999
s34.833 -53.166 44.5 -86.499s14.5 -69 14.5 -107c0 -41.333 -5.66699 -78.666 -17 -111.999s-27.5 -62 -48.5 -86s-46.333 -42.5 -76 -55.5s-62.5 -19.5 -98.5 -19.5zM454.001 258.997c0 30.667 -3.33398 59.3301 -10.001 85.9971s-17 49.834 -31 69.501
s-32 35.167 -54 46.5s-49 17 -81 17c-31.333 0 -58.166 -6.16699 -80.499 -18.5s-40.5 -28.666 -54.5 -48.999s-24.333 -43.666 -31 -69.999s-10 -53.5 -10 -81.5c0 -32 3.83301 -61.5 11.5 -88.5s18.834 -50.167 33.501 -69.5s33 -34.333 55 -45s47.333 -16 76 -16
c31.333 0 58.166 6.16699 80.499 18.5s40.5 28.833 54.5 49.5s24.333 44 31 70s10 53 10 81zM201 573.993h-65l114 139h67l113 -139h-65l-82 102z" />
    <glyph glyph-name="otilde" unicode="&#xf5;" 
d="M278 -14c-33.333 0.666992 -64.499 6.66406 -93.499 17.9971s-54.333 28.333 -76 51s-38.834 51 -51.501 85s-19 73.667 -19 119c0 38 5 73.5 15 106.5s25 61.833 45 86.5s45 44.167 75 58.5s65 21.5 105 21.5c40.667 0 76 -7.16699 106 -21.5s55 -33.666 75 -57.999
s34.833 -53.166 44.5 -86.499s14.5 -69 14.5 -107c0 -41.333 -5.66699 -78.666 -17 -111.999s-27.5 -62 -48.5 -86s-46.333 -42.5 -76 -55.5s-62.5 -19.5 -98.5 -19.5zM454.001 258.997c0 30.667 -3.33398 59.3301 -10.001 85.9971s-17 49.834 -31 69.501
s-32 35.167 -54 46.5s-49 17 -81 17c-31.333 0 -58.166 -6.16699 -80.499 -18.5s-40.5 -28.666 -54.5 -48.999s-24.333 -43.666 -31 -69.999s-10 -53.5 -10 -81.5c0 -32 3.83301 -61.5 11.5 -88.5s18.834 -50.167 33.501 -69.5s33 -34.333 55 -45s47.333 -16 76 -16
c31.333 0 58.166 6.16699 80.499 18.5s40.5 28.833 54.5 49.5s24.333 44 31 70s10 53 10 81zM128 585.993c1.33301 12 3.66699 22.8311 7 32.498s7.66602 18.5 12.999 26.5c10 14 22.833 24.5 38.5 31.5s32.167 8.5 49.5 4.5c9.33301 -2 19.333 -5.33301 30 -10l32.5 -14.5
c11 -5 21.667 -9.33301 32 -13s19.833 -5.5 28.5 -5.5c14.667 0 25 5.33301 31 16s10.333 22 13 34h38c-0.666992 -6.66699 -1.83398 -13.167 -3.50098 -19.5s-3.16699 -12.5 -4.5 -18.5c-7.33301 -16 -16.666 -30 -27.999 -42s-26.666 -18 -45.999 -18
c-14 0 -27.167 2.33301 -39.5 7s-24.5 9.83398 -36.5 15.501s-23.833 10.834 -35.5 15.501s-23.167 7 -34.5 7c-15.333 0 -26.333 -5 -33 -15s-12 -21.333 -16 -34h-36z" />
    <glyph glyph-name="odieresis" unicode="&#xf6;" 
d="M278 -14c-33.333 0.666992 -64.499 6.66406 -93.499 17.9971s-54.333 28.333 -76 51s-38.834 51 -51.501 85s-19 73.667 -19 119c0 38 5 73.5 15 106.5s25 61.833 45 86.5s45 44.167 75 58.5s65 21.5 105 21.5c40.667 0 76 -7.16699 106 -21.5s55 -33.666 75 -57.999
s34.833 -53.166 44.5 -86.499s14.5 -69 14.5 -107c0 -41.333 -5.66699 -78.666 -17 -111.999s-27.5 -62 -48.5 -86s-46.333 -42.5 -76 -55.5s-62.5 -19.5 -98.5 -19.5zM454.001 258.997c0 30.667 -3.33398 59.3301 -10.001 85.9971s-17 49.834 -31 69.501
s-32 35.167 -54 46.5s-49 17 -81 17c-31.333 0 -58.166 -6.16699 -80.499 -18.5s-40.5 -28.666 -54.5 -48.999s-24.333 -43.666 -31 -69.999s-10 -53.5 -10 -81.5c0 -32 3.83301 -61.5 11.5 -88.5s18.834 -50.167 33.501 -69.5s33 -34.333 55 -45s47.333 -16 76 -16
c31.333 0 58.166 6.16699 80.499 18.5s40.5 28.833 54.5 49.5s24.333 44 31 70s10 53 10 81zM172 685.993h65v-102h-65v102zM331 685.993h65v-102h-65v102z" />
    <glyph glyph-name="divide" unicode="&#xf7;" horiz-adv-x="660" 
d="M80 280h500v-60h-500v60zM294 0v88h73v-88h-73zM294 412v88h73v-88h-73z" />
    <glyph glyph-name="oslash" unicode="&#xf8;" 
d="M395 433c-9.33301 10.667 -23.334 20.8311 -42.001 30.498s-43 14.5 -73 14.5c-31.333 0 -58.166 -6.16699 -80.499 -18.5s-40.5 -28.833 -54.5 -49.5s-24.333 -44.167 -31 -70.5s-10 -53.5 -10 -81.5c0 -31.333 3 -58.166 9 -80.499s13.333 -40.166 22 -53.499z
M161.999 84.9971c15.333 -15.333 33.501 -26.666 54.501 -33.999s42.167 -11 63.5 -11c31.333 0 58.166 6.16699 80.499 18.5s40.5 28.666 54.5 48.999s24.333 43.5 31 69.5s10 53 10 81c0 25.333 -2.16699 50 -6.5 74s-12.5 45.667 -24.5 65zM71 -23.0029l-35.999 29.001
l58 68c-18.667 24.667 -32.167 52.667 -40.5 84s-12.5 64.666 -12.5 99.999c0 38 5 73.5 15 106.5s25 62 45 87s45 44.667 75 59s65 21.5 105 21.5c32 0 60.833 -4.5 86.5 -13.5s48.167 -22.167 67.5 -39.5l52 62l35 -31l-55 -65c18 -24 31.5 -52 40.5 -84
s13.5 -66.333 13.5 -103c0 -40 -5.33301 -76.667 -16 -110s-26.167 -62 -46.5 -86s-45.5 -42.667 -75.5 -56s-64 -20 -102 -20c-37.333 0 -68.833 5.83301 -94.5 17.5s-45.834 24.167 -60.501 37.5z" />
    <glyph glyph-name="ugrave" unicode="&#xf9;" 
d="M423 518l59.998 0.000976562v-518h-60v72c-8 -9.33301 -17 -19 -27 -29s-21.5 -19.167 -34.5 -27.5s-28.167 -15.333 -45.5 -21s-37.333 -8.5 -60 -8.5c-34.667 0 -63.667 4.83301 -87 14.5s-42.166 23.167 -56.499 40.5s-24.666 37.5 -30.999 60.5
s-9.5 48.167 -9.5 75.5v341h60v-340c0 -44.667 10.333 -78.834 31 -102.501s54.667 -35.5 102 -35.5c24.667 0 46.834 4.83301 66.501 14.5s36.167 23.167 49.5 40.5s23.666 38 30.999 62s11 50.333 11 79v282zM156.998 713.001h78l111 -139h-51z" />
    <glyph glyph-name="uacute" unicode="&#xfa;" 
d="M423 518l59.998 0.000976562v-518h-60v72c-8 -9.33301 -17 -19 -27 -29s-21.5 -19.167 -34.5 -27.5s-28.167 -15.333 -45.5 -21s-37.333 -8.5 -60 -8.5c-34.667 0 -63.667 4.83301 -87 14.5s-42.166 23.167 -56.499 40.5s-24.666 37.5 -30.999 60.5
s-9.5 48.167 -9.5 75.5v341h60v-340c0 -44.667 10.333 -78.834 31 -102.501s54.667 -35.5 102 -35.5c24.667 0 46.834 4.83301 66.501 14.5s36.167 23.167 49.5 40.5s23.666 38 30.999 62s11 50.333 11 79v282zM220.998 574.001l111 139h77l-137 -139h-51z" />
    <glyph glyph-name="ucircumflex" unicode="&#xfb;" 
d="M423 518l59.998 0.000976562v-518h-60v72c-8 -9.33301 -17 -19 -27 -29s-21.5 -19.167 -34.5 -27.5s-28.167 -15.333 -45.5 -21s-37.333 -8.5 -60 -8.5c-34.667 0 -63.667 4.83301 -87 14.5s-42.166 23.167 -56.499 40.5s-24.666 37.5 -30.999 60.5
s-9.5 48.167 -9.5 75.5v341h60v-340c0 -44.667 10.333 -78.834 31 -102.501s54.667 -35.5 102 -35.5c24.667 0 46.834 4.83301 66.501 14.5s36.167 23.167 49.5 40.5s23.666 38 30.999 62s11 50.333 11 79v282zM200.998 574.001h-65l114 139h67l113 -139h-65l-82 102z" />
    <glyph glyph-name="udieresis" unicode="&#xfc;" 
d="M423 518l59.998 0.000976562v-518h-60v72c-8 -9.33301 -17 -19 -27 -29s-21.5 -19.167 -34.5 -27.5s-28.167 -15.333 -45.5 -21s-37.333 -8.5 -60 -8.5c-34.667 0 -63.667 4.83301 -87 14.5s-42.166 23.167 -56.499 40.5s-24.666 37.5 -30.999 60.5
s-9.5 48.167 -9.5 75.5v341h60v-340c0 -44.667 10.333 -78.834 31 -102.501s54.667 -35.5 102 -35.5c24.667 0 46.834 4.83301 66.501 14.5s36.167 23.167 49.5 40.5s23.666 38 30.999 62s11 50.333 11 79v282zM171.998 686.001h65v-102h-65v102zM330.998 686.001h65v-102
h-65v102z" />
    <glyph glyph-name="yacute" unicode="&#xfd;" horiz-adv-x="500" 
d="M68 -141l24.5 -3.99902c8.33301 -1.33301 16.833 -2 25.5 -2c16.667 0 30.334 5.33301 41.001 16s19.5 23.5 26.5 38.5s12.833 30.667 17.5 47s10 30.166 16 41.499l-201 522h67l166 -445l166 445h65l-193 -511c-12 -32.667 -23.5 -62 -34.5 -88
s-22.667 -48.167 -35 -66.5s-26 -32.333 -41 -42s-32.833 -14.5 -53.5 -14.5c-10.667 0 -20.834 0.666992 -30.501 2s-18.5 3 -26.5 5v56zM193 574.001l111 139h77l-137 -139h-51z" />
    <glyph glyph-name="thorn" unicode="&#xfe;" horiz-adv-x="611" 
d="M139 257c0 -29.333 3.99805 -57.1641 11.998 -83.4971s19.5 -49.333 34.5 -69s33.333 -35.334 55 -47.001s46.167 -17.5 73.5 -17.5c30.667 0 57.5 6.16699 80.5 18.5s41.833 29.166 56.5 50.499s25.334 46.166 32.001 74.499s9.33398 58.833 8.00098 91.5
c0 32.667 -4.5 61.5 -13.5 86.5s-21.5 46.167 -37.5 63.5s-34.667 30.5 -56 39.5s-44.666 13.5 -69.999 13.5c-28 0 -53 -5.66699 -75 -17s-40.333 -26.833 -55 -46.5s-25.834 -43 -33.501 -70s-11.5 -56.167 -11.5 -87.5zM138.998 -203.998l-59.999 -0.00195312v924h60
v-293h2c8.66699 16.667 19.834 31.667 33.501 45s28.667 24.333 45 33s33.166 15.334 50.499 20.001s34.333 7 51 7c42 0 77.667 -7 107 -21s53.5 -33.167 72.5 -57.5s32.833 -53.166 41.5 -86.499s13 -69 13 -107c0 -36 -4.66699 -70.667 -14 -104s-23.5 -62.5 -42.5 -87.5
s-43 -45 -72 -60s-63.167 -22.5 -102.5 -22.5c-36.667 0 -71.834 8.16699 -105.501 24.5s-60.167 40.5 -79.5 72.5v-287z" />
    <glyph glyph-name="ydieresis" unicode="&#xff;" horiz-adv-x="500" 
d="M68 -141l24.5 -3.99902c8.33301 -1.33301 16.833 -2 25.5 -2c16.667 0 30.334 5.33301 41.001 16s19.5 23.5 26.5 38.5s12.833 30.667 17.5 47s10 30.166 16 41.499l-201 522h67l166 -445l166 445h65l-193 -511c-12 -32.667 -23.5 -62 -34.5 -88
s-22.667 -48.167 -35 -66.5s-26 -32.333 -41 -42s-32.833 -14.5 -53.5 -14.5c-10.667 0 -20.834 0.666992 -30.501 2s-18.5 3 -26.5 5v56zM144 686.001h65v-102h-65v102zM303 686.001h65v-102h-65v102z" />
    <glyph glyph-name="Amacron" unicode="&#x100;" horiz-adv-x="667" 
d="M15 0l283 720h77l276 -720h-70l-83 226h-328l-85 -226h-70zM193 284h282l-141 378zM185 815h296v-45h-296v45z" />
    <glyph glyph-name="amacron" unicode="&#x101;" 
d="M411 272c-25.333 -10.667 -51.001 -17.667 -77.001 -21s-52 -6 -78 -8c-46 -3.33301 -81.833 -13.666 -107.5 -30.999s-38.5 -43.666 -38.5 -78.999c0 -16 3.16699 -29.833 9.5 -41.5s14.666 -21.334 24.999 -29.001s22.333 -13.334 36 -17.001s27.5 -5.5 41.5 -5.5
c24 0 47.333 3 70 9s42.834 15.167 60.501 27.5s31.834 28 42.501 47s16 41.5 16 67.5v81zM309.999 302c11.333 1.33301 24.835 3.33008 40.502 5.99707s28.5 6.33398 38.5 11.001s16.167 12.5 18.5 23.5s3.5 21.167 3.5 30.5c0 30.667 -9.83301 55.834 -29.5 75.501
s-52.834 29.5 -99.501 29.5c-20.667 0 -39.667 -1.83301 -57 -5.5s-32.5 -10 -45.5 -19s-23.667 -21 -32 -36s-13.833 -33.833 -16.5 -56.5h-61c2 30.667 9 56.834 21 78.501s27.5 39.334 46.5 53.001s41 23.667 66 30s51.5 9.5 79.5 9.5c26 0 50.5 -2.83301 73.5 -8.5
s43 -14.667 60 -27s30.333 -28.833 40 -49.5s14.5 -46 14.5 -76v-282c0 -23.333 4.16699 -38.166 12.5 -44.499s25.166 -4.83301 50.499 4.5v-47l-20.5 -6c-9 -2.66699 -17.833 -4 -26.5 -4c-9.33301 0 -18.333 1 -27 3c-10 1.33301 -18 4.5 -24 9.5s-10.833 11 -14.5 18
s-6.16699 14.667 -7.5 23s-2 17.166 -2 26.499c-25.333 -28 -54.333 -49.333 -87 -64s-68 -22 -106 -22c-22.667 0 -44.5 3 -65.5 9s-39.5 15.333 -55.5 28s-28.667 28.167 -38 46.5s-14 40.166 -14 65.499c0 88 60.333 140 181 156zM142.001 626.997h296v-45h-296v45z" />
    <glyph glyph-name="Abreve" unicode="&#x102;" horiz-adv-x="667" 
d="M15 0l283 720h77l276 -720h-70l-83 226h-328l-85 -226h-70zM193 284h282l-141 378zM228 896c5.33301 -28 17.168 -48.5 35.501 -61.5s41.5 -19.5 69.5 -19.5s51 6.5 69 19.5s30.667 33.5 38 61.5h37c-4.66699 -42 -20.334 -73.5 -47.001 -94.5s-60.667 -31.5 -102 -31.5
c-40 0 -72.333 11 -97 33s-38.667 53 -42 93h39z" />
    <glyph glyph-name="abreve" unicode="&#x103;" 
d="M411 272c-25.333 -10.667 -51.001 -17.667 -77.001 -21s-52 -6 -78 -8c-46 -3.33301 -81.833 -13.666 -107.5 -30.999s-38.5 -43.666 -38.5 -78.999c0 -16 3.16699 -29.833 9.5 -41.5s14.666 -21.334 24.999 -29.001s22.333 -13.334 36 -17.001s27.5 -5.5 41.5 -5.5
c24 0 47.333 3 70 9s42.834 15.167 60.501 27.5s31.834 28 42.501 47s16 41.5 16 67.5v81zM309.999 302c11.333 1.33301 24.835 3.33008 40.502 5.99707s28.5 6.33398 38.5 11.001s16.167 12.5 18.5 23.5s3.5 21.167 3.5 30.5c0 30.667 -9.83301 55.834 -29.5 75.501
s-52.834 29.5 -99.501 29.5c-20.667 0 -39.667 -1.83301 -57 -5.5s-32.5 -10 -45.5 -19s-23.667 -21 -32 -36s-13.833 -33.833 -16.5 -56.5h-61c2 30.667 9 56.834 21 78.501s27.5 39.334 46.5 53.001s41 23.667 66 30s51.5 9.5 79.5 9.5c26 0 50.5 -2.83301 73.5 -8.5
s43 -14.667 60 -27s30.333 -28.833 40 -49.5s14.5 -46 14.5 -76v-282c0 -23.333 4.16699 -38.166 12.5 -44.499s25.166 -4.83301 50.499 4.5v-47l-20.5 -6c-9 -2.66699 -17.833 -4 -26.5 -4c-9.33301 0 -18.333 1 -27 3c-10 1.33301 -18 4.5 -24 9.5s-10.833 11 -14.5 18
s-6.16699 14.667 -7.5 23s-2 17.166 -2 26.499c-25.333 -28 -54.333 -49.333 -87 -64s-68 -22 -106 -22c-22.667 0 -44.5 3 -65.5 9s-39.5 15.333 -55.5 28s-28.667 28.167 -38 46.5s-14 40.166 -14 65.499c0 88 60.333 140 181 156zM185.001 707.997
c5.33301 -28 17.168 -48.5 35.501 -61.5s41.5 -19.5 69.5 -19.5s51 6.5 69 19.5s30.667 33.5 38 61.5h37c-4.66699 -42 -20.334 -73.5 -47.001 -94.5s-60.667 -31.5 -102 -31.5c-40 0 -72.333 11 -97 33s-38.667 53 -42 93h39z" />
    <glyph glyph-name="Aogonek" unicode="&#x104;" horiz-adv-x="667" 
d="M15 0l283 720h77l276 -720h-70l-83 226h-328l-85 -226h-70zM193 284h282l-141 378zM622 0l0.000976562 -1.99902c-8 -4 -16.667 -8.83301 -26 -14.5s-18 -12.334 -26 -20.001s-14.667 -15.834 -20 -24.501s-8 -18 -8 -28c0 -19.333 6.83301 -33.666 20.5 -42.999
s29.167 -14 46.5 -14c14 0 28 3 42 9v-44c-17.333 -6 -34.666 -9 -51.999 -9c-13.333 0 -26 1.83301 -38 5.5s-22.833 9.16699 -32.5 16.5s-17.334 16.5 -23.001 27.5s-8.5 23.5 -8.5 37.5c0 23.333 7.66699 43.833 23 61.5s32.666 31.5 51.999 41.5h50z" />
    <glyph glyph-name="aogonek" unicode="&#x105;" 
d="M411 272c-25.333 -10.667 -51.001 -17.667 -77.001 -21s-52 -6 -78 -8c-46 -3.33301 -81.833 -13.666 -107.5 -30.999s-38.5 -43.666 -38.5 -78.999c0 -16 3.16699 -29.833 9.5 -41.5s14.666 -21.334 24.999 -29.001s22.333 -13.334 36 -17.001s27.5 -5.5 41.5 -5.5
c24 0 47.333 3 70 9s42.834 15.167 60.501 27.5s31.834 28 42.501 47s16 41.5 16 67.5v81zM309.999 302c11.333 1.33301 24.835 3.33008 40.502 5.99707s28.5 6.33398 38.5 11.001s16.167 12.5 18.5 23.5s3.5 21.167 3.5 30.5c0 30.667 -9.83301 55.834 -29.5 75.501
s-52.834 29.5 -99.501 29.5c-20.667 0 -39.667 -1.83301 -57 -5.5s-32.5 -10 -45.5 -19s-23.667 -21 -32 -36s-13.833 -33.833 -16.5 -56.5h-61c2 30.667 9 56.834 21 78.501s27.5 39.334 46.5 53.001s41 23.667 66 30s51.5 9.5 79.5 9.5c26 0 50.5 -2.83301 73.5 -8.5
s43 -14.667 60 -27s30.333 -28.833 40 -49.5s14.5 -46 14.5 -76v-282c0 -23.333 4.16699 -38.166 12.5 -44.499s25.166 -4.83301 50.499 4.5v-47l-20.5 -6c-9 -2.66699 -17.833 -4 -26.5 -4c-9.33301 0 -18.333 1 -27 3c-10 1.33301 -18 4.5 -24 9.5s-10.833 11 -14.5 18
s-6.16699 14.667 -7.5 23s-2 17.166 -2 26.499c-25.333 -28 -54.333 -49.333 -87 -64s-68 -22 -106 -22c-22.667 0 -44.5 3 -65.5 9s-39.5 15.333 -55.5 28s-28.667 28.167 -38 46.5s-14 40.166 -14 65.499c0 88 60.333 140 181 156zM505.001 -14.0029l0.000976562 -1.99902
c-8 -4 -16.667 -8.83301 -26 -14.5s-18 -12.334 -26 -20.001s-14.667 -15.834 -20 -24.501s-8 -18 -8 -28c0 -19.333 6.83301 -33.666 20.5 -42.999s29.167 -14 46.5 -14c14 0 28 3 42 9v-44c-17.333 -6 -34.666 -9 -51.999 -9c-13.333 0 -26 1.83301 -38 5.5
s-22.833 9.16699 -32.5 16.5s-17.334 16.5 -23.001 27.5s-8.5 23.5 -8.5 37.5c0 23.333 7.66699 43.833 23 61.5s32.666 31.5 51.999 41.5h50z" />
    <glyph glyph-name="Cacute" unicode="&#x106;" horiz-adv-x="722" 
d="M592 511c-14 61.333 -40.0029 104.995 -78.0029 130.995s-87.667 39 -149 39c-43.333 0 -80.666 -8.66699 -111.999 -26s-57.166 -40.666 -77.499 -69.999s-35.333 -63.166 -45 -101.499s-14.5 -78.833 -14.5 -121.5c0 -40 4.16699 -79.333 12.5 -118
s22.166 -73.167 41.499 -103.5s45.333 -54.833 78 -73.5s73.667 -28 123 -28c30.667 0 58.667 5 84 15s47.5 23.833 66.5 41.5s35 38.5 48 62.5s22.833 50.333 29.5 79h71c-8 -34.667 -19.667 -67.5 -35 -98.5s-35.5 -58.167 -60.5 -81.5s-55.333 -41.833 -91 -55.5
s-77.5 -20.5 -125.5 -20.5c-55.333 0 -102.666 10.167 -141.999 30.5s-71.5 47.833 -96.5 82.5s-43.167 74.834 -54.5 120.501s-17 94.167 -17 145.5c0 68.667 8.5 127 25.5 175s40.5 87.167 70.5 117.5s65.333 52.333 106 66s85 20.5 133 20.5
c36.667 0 70.834 -4.83301 102.501 -14.5s59.667 -24.167 84 -43.5s44.333 -43.166 60 -71.499s26.5 -61.166 32.5 -98.499h-70zM266.997 788.995l111 139h77l-137 -139h-51z" />
    <glyph glyph-name="cacute" unicode="&#x107;" 
d="M439 355c-10.667 38.667 -29.0029 68.8359 -55.0029 90.5029s-59 32.5 -99 32.5c-30.667 0 -57 -6.33301 -79 -19s-40 -29.5 -54 -50.5s-24.333 -44.667 -31 -71s-10 -52.833 -10 -79.5c0 -27.333 3.16699 -54 9.5 -80s16.5 -49.333 30.5 -70s32 -37.167 54 -49.5
s48.667 -18.5 80 -18.5c44.667 0 80.5 12.333 107.5 37s44.167 58.667 51.5 102h64c-5.33301 -28.667 -13.833 -54.834 -25.5 -78.501s-26.667 -44 -45 -61s-40.166 -30.167 -65.499 -39.5s-54.333 -14 -87 -14c-41.333 0 -77 7 -107 21s-54.667 33.167 -74 57.5
s-33.666 53.166 -42.999 86.499s-14 69 -14 107c0 36 5.16699 70.5 15.5 103.5s25.5 62.167 45.5 87.5s44.833 45.5 74.5 60.5s63.834 22.5 102.501 22.5c60 0 108.5 -14.333 145.5 -43s60.167 -73.334 69.5 -134.001h-61zM184.997 582.002l111 139h77l-137 -139h-51z" />
    <glyph glyph-name="Ccircumflex" unicode="&#x108;" horiz-adv-x="722" 
d="M592 511c-14 61.333 -40.0029 104.995 -78.0029 130.995s-87.667 39 -149 39c-43.333 0 -80.666 -8.66699 -111.999 -26s-57.166 -40.666 -77.499 -69.999s-35.333 -63.166 -45 -101.499s-14.5 -78.833 -14.5 -121.5c0 -40 4.16699 -79.333 12.5 -118
s22.166 -73.167 41.499 -103.5s45.333 -54.833 78 -73.5s73.667 -28 123 -28c30.667 0 58.667 5 84 15s47.5 23.833 66.5 41.5s35 38.5 48 62.5s22.833 50.333 29.5 79h71c-8 -34.667 -19.667 -67.5 -35 -98.5s-35.5 -58.167 -60.5 -81.5s-55.333 -41.833 -91 -55.5
s-77.5 -20.5 -125.5 -20.5c-55.333 0 -102.666 10.167 -141.999 30.5s-71.5 47.833 -96.5 82.5s-43.167 74.834 -54.5 120.501s-17 94.167 -17 145.5c0 68.667 8.5 127 25.5 175s40.5 87.167 70.5 117.5s65.333 52.333 106 66s85 20.5 133 20.5
c36.667 0 70.834 -4.83301 102.501 -14.5s59.667 -24.167 84 -43.5s44.333 -43.166 60 -71.499s26.5 -61.166 32.5 -98.499h-70zM276.997 788.995h-65l114 139h67l113 -139h-65l-82 102z" />
    <glyph glyph-name="ccircumflex" unicode="&#x109;" 
d="M439 355c-10.667 38.667 -29.0029 68.8359 -55.0029 90.5029s-59 32.5 -99 32.5c-30.667 0 -57 -6.33301 -79 -19s-40 -29.5 -54 -50.5s-24.333 -44.667 -31 -71s-10 -52.833 -10 -79.5c0 -27.333 3.16699 -54 9.5 -80s16.5 -49.333 30.5 -70s32 -37.167 54 -49.5
s48.667 -18.5 80 -18.5c44.667 0 80.5 12.333 107.5 37s44.167 58.667 51.5 102h64c-5.33301 -28.667 -13.833 -54.834 -25.5 -78.501s-26.667 -44 -45 -61s-40.166 -30.167 -65.499 -39.5s-54.333 -14 -87 -14c-41.333 0 -77 7 -107 21s-54.667 33.167 -74 57.5
s-33.666 53.166 -42.999 86.499s-14 69 -14 107c0 36 5.16699 70.5 15.5 103.5s25.5 62.167 45.5 87.5s44.833 45.5 74.5 60.5s63.834 22.5 102.501 22.5c60 0 108.5 -14.333 145.5 -43s60.167 -73.334 69.5 -134.001h-61zM194.997 582.002h-65l114 139h67l113 -139h-65
l-82 102z" />
    <glyph glyph-name="Cdotaccent" unicode="&#x10a;" horiz-adv-x="722" 
d="M592 511c-14 61.333 -40.0029 104.995 -78.0029 130.995s-87.667 39 -149 39c-43.333 0 -80.666 -8.66699 -111.999 -26s-57.166 -40.666 -77.499 -69.999s-35.333 -63.166 -45 -101.499s-14.5 -78.833 -14.5 -121.5c0 -40 4.16699 -79.333 12.5 -118
s22.166 -73.167 41.499 -103.5s45.333 -54.833 78 -73.5s73.667 -28 123 -28c30.667 0 58.667 5 84 15s47.5 23.833 66.5 41.5s35 38.5 48 62.5s22.833 50.333 29.5 79h71c-8 -34.667 -19.667 -67.5 -35 -98.5s-35.5 -58.167 -60.5 -81.5s-55.333 -41.833 -91 -55.5
s-77.5 -20.5 -125.5 -20.5c-55.333 0 -102.666 10.167 -141.999 30.5s-71.5 47.833 -96.5 82.5s-43.167 74.834 -54.5 120.501s-17 94.167 -17 145.5c0 68.667 8.5 127 25.5 175s40.5 87.167 70.5 117.5s65.333 52.333 106 66s85 20.5 133 20.5
c36.667 0 70.834 -4.83301 102.501 -14.5s59.667 -24.167 84 -43.5s44.333 -43.166 60 -71.499s26.5 -61.166 32.5 -98.499h-70zM325.997 890.995h65v-102h-65v102z" />
    <glyph glyph-name="cdotaccent" unicode="&#x10b;" 
d="M439 355c-10.667 38.667 -29.0029 68.8359 -55.0029 90.5029s-59 32.5 -99 32.5c-30.667 0 -57 -6.33301 -79 -19s-40 -29.5 -54 -50.5s-24.333 -44.667 -31 -71s-10 -52.833 -10 -79.5c0 -27.333 3.16699 -54 9.5 -80s16.5 -49.333 30.5 -70s32 -37.167 54 -49.5
s48.667 -18.5 80 -18.5c44.667 0 80.5 12.333 107.5 37s44.167 58.667 51.5 102h64c-5.33301 -28.667 -13.833 -54.834 -25.5 -78.501s-26.667 -44 -45 -61s-40.166 -30.167 -65.499 -39.5s-54.333 -14 -87 -14c-41.333 0 -77 7 -107 21s-54.667 33.167 -74 57.5
s-33.666 53.166 -42.999 86.499s-14 69 -14 107c0 36 5.16699 70.5 15.5 103.5s25.5 62.167 45.5 87.5s44.833 45.5 74.5 60.5s63.834 22.5 102.501 22.5c60 0 108.5 -14.333 145.5 -43s60.167 -73.334 69.5 -134.001h-61zM243.997 684.002h65v-102h-65v102z" />
    <glyph glyph-name="Ccaron" unicode="&#x10c;" horiz-adv-x="722" 
d="M592 511c-14 61.333 -40.0029 104.995 -78.0029 130.995s-87.667 39 -149 39c-43.333 0 -80.666 -8.66699 -111.999 -26s-57.166 -40.666 -77.499 -69.999s-35.333 -63.166 -45 -101.499s-14.5 -78.833 -14.5 -121.5c0 -40 4.16699 -79.333 12.5 -118
s22.166 -73.167 41.499 -103.5s45.333 -54.833 78 -73.5s73.667 -28 123 -28c30.667 0 58.667 5 84 15s47.5 23.833 66.5 41.5s35 38.5 48 62.5s22.833 50.333 29.5 79h71c-8 -34.667 -19.667 -67.5 -35 -98.5s-35.5 -58.167 -60.5 -81.5s-55.333 -41.833 -91 -55.5
s-77.5 -20.5 -125.5 -20.5c-55.333 0 -102.666 10.167 -141.999 30.5s-71.5 47.833 -96.5 82.5s-43.167 74.834 -54.5 120.501s-17 94.167 -17 145.5c0 68.667 8.5 127 25.5 175s40.5 87.167 70.5 117.5s65.333 52.333 106 66s85 20.5 133 20.5
c36.667 0 70.834 -4.83301 102.501 -14.5s59.667 -24.167 84 -43.5s44.333 -43.166 60 -71.499s26.5 -61.166 32.5 -98.499h-70zM442.997 927.995h65l-113 -139h-67l-114 139h65l82 -102z" />
    <glyph glyph-name="ccaron" unicode="&#x10d;" 
d="M439 355c-10.667 38.667 -29.0029 68.8359 -55.0029 90.5029s-59 32.5 -99 32.5c-30.667 0 -57 -6.33301 -79 -19s-40 -29.5 -54 -50.5s-24.333 -44.667 -31 -71s-10 -52.833 -10 -79.5c0 -27.333 3.16699 -54 9.5 -80s16.5 -49.333 30.5 -70s32 -37.167 54 -49.5
s48.667 -18.5 80 -18.5c44.667 0 80.5 12.333 107.5 37s44.167 58.667 51.5 102h64c-5.33301 -28.667 -13.833 -54.834 -25.5 -78.501s-26.667 -44 -45 -61s-40.166 -30.167 -65.499 -39.5s-54.333 -14 -87 -14c-41.333 0 -77 7 -107 21s-54.667 33.167 -74 57.5
s-33.666 53.166 -42.999 86.499s-14 69 -14 107c0 36 5.16699 70.5 15.5 103.5s25.5 62.167 45.5 87.5s44.833 45.5 74.5 60.5s63.834 22.5 102.501 22.5c60 0 108.5 -14.333 145.5 -43s60.167 -73.334 69.5 -134.001h-61zM360.997 721.002h65l-113 -139h-67l-114 139h65
l82 -102z" />
    <glyph glyph-name="Dcaron" unicode="&#x10e;" horiz-adv-x="722" 
d="M81 0v720h246c20 0 39.667 -0.5 59 -1.5s38.333 -3.33301 57 -7s36.834 -9.16699 54.501 -16.5s34.834 -17 51.501 -29c24 -17.333 43.667 -38.5 59 -63.5s27.5 -51.333 36.5 -79s15.333 -55.667 19 -84s5.5 -54.5 5.5 -78.5s-1.5 -48.333 -4.5 -73
s-7.83301 -48.834 -14.5 -72.501s-15.5 -46.334 -26.5 -68.001s-24.833 -41.5 -41.5 -59.5c-16.667 -18.667 -34.834 -33.667 -54.501 -45s-40.334 -20.166 -62.001 -26.499s-44.167 -10.666 -67.5 -12.999s-47 -3.5 -71 -3.5h-246zM149 58l162.998 0.000976562
c30.667 0 59.5 1.83301 86.5 5.5s54.5 12.834 82.5 27.501c24 12 43.667 28.333 59 49s27.5 43.167 36.5 67.5s15.333 49.833 19 76.5s5.5 52.334 5.5 77.001c0 26 -1.66699 52.5 -5 79.5s-9.66602 52.667 -18.999 77s-22 46.666 -38 66.999s-36.667 37.166 -62 50.499
c-21.333 11.333 -46.666 18.666 -75.999 21.999s-59 5 -89 5h-163v-604zM458.998 909.001h65l-113 -139h-67l-114 139h65l82 -102z" />
    <glyph glyph-name="dcaron" unicode="&#x10f;" horiz-adv-x="722" 
d="M673 602c0 -18 -1.16699 -33 -3.5 -45s-6 -22 -11 -30s-11.5 -14.5 -19.5 -19.5s-17.333 -9.16699 -28 -12.5v225h62v-118zM472 261c0 29.333 -3.99707 57.1641 -11.9971 83.4971s-19.5 49.333 -34.5 69s-33.333 35.334 -55 47.001s-46.167 17.5 -73.5 17.5
c-31.333 0 -58.333 -6.16699 -81 -18.5s-41.334 -29.166 -56.001 -50.499s-25.334 -46.166 -32.001 -74.499s-9.33398 -58.833 -8.00098 -91.5c0 -32.667 4.5 -61.5 13.5 -86.5s21.5 -46.167 37.5 -63.5s34.667 -30.5 56 -39.5s44.666 -13.5 69.999 -13.5
c28 0 53 5.66699 75 17s40.333 26.833 55 46.5s25.834 43 33.501 70s11.5 56.167 11.5 87.5zM472.003 719.998l59.999 0.00195312v-720h-60v91h-2c-8.66699 -17.333 -19.834 -32.5 -33.501 -45.5s-28.667 -23.833 -45 -32.5s-33.166 -15.334 -50.499 -20.001
s-34.333 -7 -51 -7c-42 0 -77.667 7 -107 21s-53.5 33.167 -72.5 57.5s-32.833 53.166 -41.5 86.499s-13 69 -13 107c0 36 4.66699 70.667 14 104s23.5 62.5 42.5 87.5s43 45 72 60s63.167 22.5 102.5 22.5c36.667 0 71.834 -8.16699 105.501 -24.5s60.167 -40.5 79.5 -72.5
v285z" />
    <glyph glyph-name="Dcroat" unicode="&#x110;" horiz-adv-x="722" 
d="M149 411l160.998 0.000976562v-58h-161v-295h163c30.667 0 59.5 1.83301 86.5 5.5s54.5 12.834 82.5 27.501c24 12 43.667 28.333 59 49s27.5 43.167 36.5 67.5s15.333 49.833 19 76.5s5.5 52.334 5.5 77.001c0 26 -1.66699 52.5 -5 79.5s-9.66602 52.667 -18.999 77
s-22 46.666 -38 66.999s-36.667 37.166 -62 50.499c-21.333 11.333 -46.666 18.666 -75.999 21.999s-59 5 -89 5h-163v-251zM80.998 720.001h246c20 0 39.667 -0.5 59 -1.5s38.333 -3.33301 57 -7s36.834 -9.16699 54.501 -16.5s34.834 -17 51.501 -29
c24 -17.333 43.667 -38.5 59 -63.5s27.5 -51.333 36.5 -79s15.333 -55.667 19 -84s5.5 -54.5 5.5 -78.5s-1.5 -48.333 -4.5 -73s-7.83301 -48.834 -14.5 -72.501s-15.5 -46.334 -26.5 -68.001s-24.833 -41.5 -41.5 -59.5c-16.667 -18.667 -34.834 -33.667 -54.501 -45
s-40.334 -20.166 -62.001 -26.499s-44.167 -10.666 -67.5 -12.999s-47 -3.5 -71 -3.5h-246v353h-71v58h71v309z" />
    <glyph glyph-name="uni0111" unicode="&#x111;" horiz-adv-x="611" 
d="M604 648l-0.000976562 -45.998h-72v-602h-60v91h-2c-8.66699 -17.333 -19.834 -32.5 -33.501 -45.5s-28.667 -23.833 -45 -32.5s-33.166 -15.334 -50.499 -20.001s-34.333 -7 -51 -7c-42 0 -77.667 7 -107 21s-53.5 33.167 -72.5 57.5s-32.833 53.166 -41.5 86.499
s-13 69 -13 107c0 36 4.66699 70.667 14 104s23.5 62.5 42.5 87.5s43 45 72 60s63.167 22.5 102.5 22.5c36.667 0 71.834 -8.16699 105.501 -24.5s60.167 -40.5 79.5 -72.5v167h-113v46h113v72h60v-72h72zM471.999 261.002c0 29.333 -3.99707 57.1641 -11.9971 83.4971
s-19.5 49.333 -34.5 69s-33.333 35.334 -55 47.001s-46.167 17.5 -73.5 17.5c-31.333 0 -58.333 -6.16699 -81 -18.5s-41.334 -29.166 -56.001 -50.499s-25.334 -46.166 -32.001 -74.499s-9.33398 -58.833 -8.00098 -91.5c0 -32.667 4.5 -61.5 13.5 -86.5
s21.5 -46.167 37.5 -63.5s34.667 -30.5 56 -39.5s44.666 -13.5 69.999 -13.5c28 0 53 5.66699 75 17s40.333 26.833 55 46.5s25.834 43 33.501 70s11.5 56.167 11.5 87.5z" />
    <glyph glyph-name="Emacron" unicode="&#x112;" horiz-adv-x="611" 
d="M81 0v720h479v-58h-411v-260h371v-58h-371v-286h421v-58h-489zM177 815h296v-45h-296v45z" />
    <glyph glyph-name="emacron" unicode="&#x113;" 
d="M447 295c0 25.333 -3.49805 49.168 -10.498 71.501s-17.333 41.666 -31 57.999s-30.834 29.333 -51.501 39s-44.334 14.5 -71.001 14.5s-50.167 -5 -70.5 -15s-37.666 -23.333 -51.999 -40s-25.833 -36 -34.5 -58s-14.334 -45.333 -17.001 -70h338zM109.002 245.002
c0 -28 3.66992 -54.499 11.0029 -79.499s18.166 -46.667 32.499 -65s32.5 -33 54.5 -44s47.333 -16.5 76 -16.5c39.333 0 73 10.333 101 31s46.667 50 56 88h67c-7.33301 -24.667 -17 -47.5 -29 -68.5s-27 -39.333 -45 -55s-39.333 -27.834 -64 -36.501
s-53.334 -13 -86.001 -13c-41.333 0 -77 7 -107 21s-54.667 33.167 -74 57.5s-33.666 53 -42.999 86s-14 68.5 -14 106.5s5.5 73.667 16.5 107s26.667 62.5 47 87.5s45.166 44.667 74.499 59s62.666 21.5 99.999 21.5c71.333 0 127.333 -24.5 168 -73.5
s60.667 -120.167 60 -213.5h-402zM130.005 627.003h296v-45h-296v45z" />
    <glyph glyph-name="Ebreve" unicode="&#x114;" horiz-adv-x="611" 
d="M81 0v720h479v-58h-411v-260h371v-58h-371v-286h421v-58h-489zM220 896c5.33301 -28 17.168 -48.5 35.501 -61.5s41.5 -19.5 69.5 -19.5s51 6.5 69 19.5s30.667 33.5 38 61.5h37c-4.66699 -42 -20.334 -73.5 -47.001 -94.5s-60.667 -31.5 -102 -31.5
c-40 0 -72.333 11 -97 33s-38.667 53 -42 93h39z" />
    <glyph glyph-name="ebreve" unicode="&#x115;" 
d="M447 295c0 25.333 -3.49805 49.168 -10.498 71.501s-17.333 41.666 -31 57.999s-30.834 29.333 -51.501 39s-44.334 14.5 -71.001 14.5s-50.167 -5 -70.5 -15s-37.666 -23.333 -51.999 -40s-25.833 -36 -34.5 -58s-14.334 -45.333 -17.001 -70h338zM109.002 245.002
c0 -28 3.66992 -54.499 11.0029 -79.499s18.166 -46.667 32.499 -65s32.5 -33 54.5 -44s47.333 -16.5 76 -16.5c39.333 0 73 10.333 101 31s46.667 50 56 88h67c-7.33301 -24.667 -17 -47.5 -29 -68.5s-27 -39.333 -45 -55s-39.333 -27.834 -64 -36.501
s-53.334 -13 -86.001 -13c-41.333 0 -77 7 -107 21s-54.667 33.167 -74 57.5s-33.666 53 -42.999 86s-14 68.5 -14 106.5s5.5 73.667 16.5 107s26.667 62.5 47 87.5s45.166 44.667 74.499 59s62.666 21.5 99.999 21.5c71.333 0 127.333 -24.5 168 -73.5
s60.667 -120.167 60 -213.5h-402zM173.005 708.003c5.33301 -28 17.168 -48.5 35.501 -61.5s41.5 -19.5 69.5 -19.5s51 6.5 69 19.5s30.667 33.5 38 61.5h37c-4.66699 -42 -20.334 -73.5 -47.001 -94.5s-60.667 -31.5 -102 -31.5c-40 0 -72.333 11 -97 33s-38.667 53 -42 93
h39z" />
    <glyph glyph-name="Edotaccent" unicode="&#x116;" horiz-adv-x="611" 
d="M81 0v720h479v-58h-411v-260h371v-58h-371v-286h421v-58h-489zM292 872h65v-102h-65v102z" />
    <glyph glyph-name="edotaccent" unicode="&#x117;" 
d="M447 295c0 25.333 -3.49805 49.168 -10.498 71.501s-17.333 41.666 -31 57.999s-30.834 29.333 -51.501 39s-44.334 14.5 -71.001 14.5s-50.167 -5 -70.5 -15s-37.666 -23.333 -51.999 -40s-25.833 -36 -34.5 -58s-14.334 -45.333 -17.001 -70h338zM109.002 245.002
c0 -28 3.66992 -54.499 11.0029 -79.499s18.166 -46.667 32.499 -65s32.5 -33 54.5 -44s47.333 -16.5 76 -16.5c39.333 0 73 10.333 101 31s46.667 50 56 88h67c-7.33301 -24.667 -17 -47.5 -29 -68.5s-27 -39.333 -45 -55s-39.333 -27.834 -64 -36.501
s-53.334 -13 -86.001 -13c-41.333 0 -77 7 -107 21s-54.667 33.167 -74 57.5s-33.666 53 -42.999 86s-14 68.5 -14 106.5s5.5 73.667 16.5 107s26.667 62.5 47 87.5s45.166 44.667 74.499 59s62.666 21.5 99.999 21.5c71.333 0 127.333 -24.5 168 -73.5
s60.667 -120.167 60 -213.5h-402zM245.005 684.003h65v-102h-65v102z" />
    <glyph glyph-name="Eogonek" unicode="&#x118;" horiz-adv-x="611" 
d="M81 0v720h479v-58h-411v-260h371v-58h-371v-286h421v-58h-489zM373 0l0.000976562 -1.99902c-8 -4 -16.667 -8.83301 -26 -14.5s-18 -12.334 -26 -20.001s-14.667 -15.834 -20 -24.501s-8 -18 -8 -28c0 -19.333 6.83301 -33.666 20.5 -42.999s29.167 -14 46.5 -14
c14 0 28 3 42 9v-44c-17.333 -6 -34.666 -9 -51.999 -9c-13.333 0 -26 1.83301 -38 5.5s-22.833 9.16699 -32.5 16.5s-17.334 16.5 -23.001 27.5s-8.5 23.5 -8.5 37.5c0 23.333 7.66699 43.833 23 61.5s32.666 31.5 51.999 41.5h50z" />
    <glyph glyph-name="eogonek" unicode="&#x119;" 
d="M447 295c0 25.333 -3.49805 49.168 -10.498 71.501s-17.333 41.666 -31 57.999s-30.834 29.333 -51.501 39s-44.334 14.5 -71.001 14.5s-50.167 -5 -70.5 -15s-37.666 -23.333 -51.999 -40s-25.833 -36 -34.5 -58s-14.334 -45.333 -17.001 -70h338zM109.002 245.002
c0 -28 3.66992 -54.499 11.0029 -79.499s18.166 -46.667 32.499 -65s32.5 -33 54.5 -44s47.333 -16.5 76 -16.5c39.333 0 73 10.333 101 31s46.667 50 56 88h67c-7.33301 -24.667 -17 -47.5 -29 -68.5s-27 -39.333 -45 -55s-39.333 -27.834 -64 -36.501
s-53.334 -13 -86.001 -13c-41.333 0 -77 7 -107 21s-54.667 33.167 -74 57.5s-33.666 53 -42.999 86s-14 68.5 -14 106.5s5.5 73.667 16.5 107s26.667 62.5 47 87.5s45.166 44.667 74.499 59s62.666 21.5 99.999 21.5c71.333 0 127.333 -24.5 168 -73.5
s60.667 -120.167 60 -213.5h-402zM326.005 -13.9971l0.000976562 -1.99902c-8 -4 -16.667 -8.83301 -26 -14.5s-18 -12.334 -26 -20.001s-14.667 -15.834 -20 -24.501s-8 -18 -8 -28c0 -19.333 6.83301 -33.666 20.5 -42.999s29.167 -14 46.5 -14c14 0 28 3 42 9v-44
c-17.333 -6 -34.666 -9 -51.999 -9c-13.333 0 -26 1.83301 -38 5.5s-22.833 9.16699 -32.5 16.5s-17.334 16.5 -23.001 27.5s-8.5 23.5 -8.5 37.5c0 23.333 7.66699 43.833 23 61.5s32.666 31.5 51.999 41.5h50z" />
    <glyph glyph-name="Ecaron" unicode="&#x11a;" horiz-adv-x="611" 
d="M81 0v720h479v-58h-411v-260h371v-58h-371v-286h421v-58h-489zM409 909h65l-113 -139h-67l-114 139h65l82 -102z" />
    <glyph glyph-name="ecaron" unicode="&#x11b;" 
d="M447 295c0 25.333 -3.49805 49.168 -10.498 71.501s-17.333 41.666 -31 57.999s-30.834 29.333 -51.501 39s-44.334 14.5 -71.001 14.5s-50.167 -5 -70.5 -15s-37.666 -23.333 -51.999 -40s-25.833 -36 -34.5 -58s-14.334 -45.333 -17.001 -70h338zM109.002 245.002
c0 -28 3.66992 -54.499 11.0029 -79.499s18.166 -46.667 32.499 -65s32.5 -33 54.5 -44s47.333 -16.5 76 -16.5c39.333 0 73 10.333 101 31s46.667 50 56 88h67c-7.33301 -24.667 -17 -47.5 -29 -68.5s-27 -39.333 -45 -55s-39.333 -27.834 -64 -36.501
s-53.334 -13 -86.001 -13c-41.333 0 -77 7 -107 21s-54.667 33.167 -74 57.5s-33.666 53 -42.999 86s-14 68.5 -14 106.5s5.5 73.667 16.5 107s26.667 62.5 47 87.5s45.166 44.667 74.499 59s62.666 21.5 99.999 21.5c71.333 0 127.333 -24.5 168 -73.5
s60.667 -120.167 60 -213.5h-402zM362.005 721.003h65l-113 -139h-67l-114 139h65l82 -102z" />
    <glyph glyph-name="Gcircumflex" unicode="&#x11c;" horiz-adv-x="778" 
d="M387 314l0.000976562 57.9971h308v-372h-58v123c-12.667 -21.333 -27.167 -40.833 -43.5 -58.5s-35.166 -32.667 -56.499 -45s-46 -21.833 -74 -28.5s-59.667 -10 -95 -10c-45.333 0 -87.333 8 -126 24s-72 39.833 -100 71.5s-49.833 71.5 -65.5 119.5
s-23.5 104 -23.5 168c0 52.667 6.66699 101.834 20 147.501s33.833 85.334 61.5 119.001s62.334 60.167 104.001 79.5s90.834 29 147.501 29c38 0 73.5 -4.66699 106.5 -14s62.667 -23.5 89 -42.5s48.5 -42.667 66.5 -71s31 -61.833 39 -100.5h-70
c-6 26.667 -16.167 50.667 -30.5 72s-31.5 39.166 -51.5 53.499s-42.333 25.333 -67 33s-50.334 11.5 -77.001 11.5c-47.333 0 -88 -8.33301 -122 -25s-62 -40.167 -84 -70.5s-38.167 -66.666 -48.5 -108.999s-15.5 -88.833 -15.5 -139.5c0 -40 5.83301 -78 17.5 -114
s28.667 -67.667 51 -95s49.666 -49 81.999 -65s69.166 -24 110.499 -24c19.333 0 39.333 2.16699 60 6.5s40.667 11.5 60 21.5s37.333 23 54 39s31 35.667 43 59c11.333 22.667 19.166 46.334 23.499 71.001s6.83301 50.667 7.5 78h-243zM292.001 788.997h-65l114 139h67
l113 -139h-65l-82 102z" />
    <glyph glyph-name="gcircumflex" unicode="&#x11d;" horiz-adv-x="611" 
d="M472 257c0 31.333 -3.83594 60.498 -11.5029 87.498s-18.834 50.333 -33.501 70s-33 35.167 -55 46.5s-47 17 -75 17c-25.333 0 -48.666 -4.5 -69.999 -13.5s-40 -22.167 -56 -39.5s-28.5 -38.5 -37.5 -63.5s-13.5 -53.833 -13.5 -86.5
c-1.33301 -32.667 1.33398 -63.167 8.00098 -91.5s17.334 -53.166 32.001 -74.499s33.334 -38.166 56.001 -50.499s49.667 -18.5 81 -18.5c27.333 0 51.833 5.83301 73.5 17.5s40 27.334 55 47.001s26.5 42.667 34.5 69s12 54.166 12 83.499zM471.997 517.998
l59.9951 -0.000976562v-468c0 -34.667 -3.5 -67.834 -10.5 -99.501s-19.5 -59.5 -37.5 -83.5s-42.667 -43.167 -74 -57.5s-71.666 -21.5 -120.999 -21.5c-38 0 -70.667 4.83301 -98 14.5s-49.666 21.834 -66.999 36.501s-30.5 30.834 -39.5 48.501
s-13.833 34.167 -14.5 49.5h64c4.66699 -19.333 12 -35.166 22 -47.499s21.833 -22 35.5 -29s28.834 -11.833 45.501 -14.5s34 -4 52 -4c40.667 0 73.334 7 98.001 21s43.334 32.333 56.001 55s20.834 48.334 24.501 77.001s5.16699 58 4.5 88
c-19.333 -32 -45.833 -56.167 -79.5 -72.5s-68.834 -24.5 -105.501 -24.5c-39.333 0 -73.5 7.5 -102.5 22.5s-53 35 -72 60s-33.167 54.167 -42.5 87.5s-14 68 -14 104c0 38 4.33301 73.667 13 107s22.5 62.166 41.5 86.499s43.167 43.5 72.5 57.5s65 21 107 21
c16.667 0 33.667 -2.33301 51 -7s34.166 -11.334 50.499 -20.001s31.333 -19.667 45 -33s24.834 -28.333 33.501 -45h2v91zM211.992 581.997h-65l114 139h67l113 -139h-65l-82 102z" />
    <glyph glyph-name="Gbreve" unicode="&#x11e;" horiz-adv-x="778" 
d="M387 314l0.000976562 57.9971h308v-372h-58v123c-12.667 -21.333 -27.167 -40.833 -43.5 -58.5s-35.166 -32.667 -56.499 -45s-46 -21.833 -74 -28.5s-59.667 -10 -95 -10c-45.333 0 -87.333 8 -126 24s-72 39.833 -100 71.5s-49.833 71.5 -65.5 119.5
s-23.5 104 -23.5 168c0 52.667 6.66699 101.834 20 147.501s33.833 85.334 61.5 119.001s62.334 60.167 104.001 79.5s90.834 29 147.501 29c38 0 73.5 -4.66699 106.5 -14s62.667 -23.5 89 -42.5s48.5 -42.667 66.5 -71s31 -61.833 39 -100.5h-70
c-6 26.667 -16.167 50.667 -30.5 72s-31.5 39.166 -51.5 53.499s-42.333 25.333 -67 33s-50.334 11.5 -77.001 11.5c-47.333 0 -88 -8.33301 -122 -25s-62 -40.167 -84 -70.5s-38.167 -66.666 -48.5 -108.999s-15.5 -88.833 -15.5 -139.5c0 -40 5.83301 -78 17.5 -114
s28.667 -67.667 51 -95s49.666 -49 81.999 -65s69.166 -24 110.499 -24c19.333 0 39.333 2.16699 60 6.5s40.667 11.5 60 21.5s37.333 23 54 39s31 35.667 43 59c11.333 22.667 19.166 46.334 23.499 71.001s6.83301 50.667 7.5 78h-243zM269.001 914.997
c5.33301 -28 17.168 -48.5 35.501 -61.5s41.5 -19.5 69.5 -19.5s51 6.5 69 19.5s30.667 33.5 38 61.5h37c-4.66699 -42 -20.334 -73.5 -47.001 -94.5s-60.667 -31.5 -102 -31.5c-40 0 -72.333 11 -97 33s-38.667 53 -42 93h39z" />
    <glyph glyph-name="gbreve" unicode="&#x11f;" horiz-adv-x="611" 
d="M472 257c0 31.333 -3.83594 60.498 -11.5029 87.498s-18.834 50.333 -33.501 70s-33 35.167 -55 46.5s-47 17 -75 17c-25.333 0 -48.666 -4.5 -69.999 -13.5s-40 -22.167 -56 -39.5s-28.5 -38.5 -37.5 -63.5s-13.5 -53.833 -13.5 -86.5
c-1.33301 -32.667 1.33398 -63.167 8.00098 -91.5s17.334 -53.166 32.001 -74.499s33.334 -38.166 56.001 -50.499s49.667 -18.5 81 -18.5c27.333 0 51.833 5.83301 73.5 17.5s40 27.334 55 47.001s26.5 42.667 34.5 69s12 54.166 12 83.499zM471.997 517.998
l59.9951 -0.000976562v-468c0 -34.667 -3.5 -67.834 -10.5 -99.501s-19.5 -59.5 -37.5 -83.5s-42.667 -43.167 -74 -57.5s-71.666 -21.5 -120.999 -21.5c-38 0 -70.667 4.83301 -98 14.5s-49.666 21.834 -66.999 36.501s-30.5 30.834 -39.5 48.501
s-13.833 34.167 -14.5 49.5h64c4.66699 -19.333 12 -35.166 22 -47.499s21.833 -22 35.5 -29s28.834 -11.833 45.501 -14.5s34 -4 52 -4c40.667 0 73.334 7 98.001 21s43.334 32.333 56.001 55s20.834 48.334 24.501 77.001s5.16699 58 4.5 88
c-19.333 -32 -45.833 -56.167 -79.5 -72.5s-68.834 -24.5 -105.501 -24.5c-39.333 0 -73.5 7.5 -102.5 22.5s-53 35 -72 60s-33.167 54.167 -42.5 87.5s-14 68 -14 104c0 38 4.33301 73.667 13 107s22.5 62.166 41.5 86.499s43.167 43.5 72.5 57.5s65 21 107 21
c16.667 0 33.667 -2.33301 51 -7s34.166 -11.334 50.499 -20.001s31.333 -19.667 45 -33s24.834 -28.333 33.501 -45h2v91zM188.992 707.997c5.33301 -28 17.168 -48.5 35.501 -61.5s41.5 -19.5 69.5 -19.5s51 6.5 69 19.5s30.667 33.5 38 61.5h37
c-4.66699 -42 -20.334 -73.5 -47.001 -94.5s-60.667 -31.5 -102 -31.5c-40 0 -72.333 11 -97 33s-38.667 53 -42 93h39z" />
    <glyph glyph-name="Gdotaccent" unicode="&#x120;" horiz-adv-x="778" 
d="M387 314l0.000976562 57.9971h308v-372h-58v123c-12.667 -21.333 -27.167 -40.833 -43.5 -58.5s-35.166 -32.667 -56.499 -45s-46 -21.833 -74 -28.5s-59.667 -10 -95 -10c-45.333 0 -87.333 8 -126 24s-72 39.833 -100 71.5s-49.833 71.5 -65.5 119.5
s-23.5 104 -23.5 168c0 52.667 6.66699 101.834 20 147.501s33.833 85.334 61.5 119.001s62.334 60.167 104.001 79.5s90.834 29 147.501 29c38 0 73.5 -4.66699 106.5 -14s62.667 -23.5 89 -42.5s48.5 -42.667 66.5 -71s31 -61.833 39 -100.5h-70
c-6 26.667 -16.167 50.667 -30.5 72s-31.5 39.166 -51.5 53.499s-42.333 25.333 -67 33s-50.334 11.5 -77.001 11.5c-47.333 0 -88 -8.33301 -122 -25s-62 -40.167 -84 -70.5s-38.167 -66.666 -48.5 -108.999s-15.5 -88.833 -15.5 -139.5c0 -40 5.83301 -78 17.5 -114
s28.667 -67.667 51 -95s49.666 -49 81.999 -65s69.166 -24 110.499 -24c19.333 0 39.333 2.16699 60 6.5s40.667 11.5 60 21.5s37.333 23 54 39s31 35.667 43 59c11.333 22.667 19.166 46.334 23.499 71.001s6.83301 50.667 7.5 78h-243zM341.001 890.997h65v-102h-65v102z
" />
    <glyph glyph-name="gdotaccent" unicode="&#x121;" horiz-adv-x="611" 
d="M472 257c0 31.333 -3.83594 60.498 -11.5029 87.498s-18.834 50.333 -33.501 70s-33 35.167 -55 46.5s-47 17 -75 17c-25.333 0 -48.666 -4.5 -69.999 -13.5s-40 -22.167 -56 -39.5s-28.5 -38.5 -37.5 -63.5s-13.5 -53.833 -13.5 -86.5
c-1.33301 -32.667 1.33398 -63.167 8.00098 -91.5s17.334 -53.166 32.001 -74.499s33.334 -38.166 56.001 -50.499s49.667 -18.5 81 -18.5c27.333 0 51.833 5.83301 73.5 17.5s40 27.334 55 47.001s26.5 42.667 34.5 69s12 54.166 12 83.499zM471.997 517.998
l59.9951 -0.000976562v-468c0 -34.667 -3.5 -67.834 -10.5 -99.501s-19.5 -59.5 -37.5 -83.5s-42.667 -43.167 -74 -57.5s-71.666 -21.5 -120.999 -21.5c-38 0 -70.667 4.83301 -98 14.5s-49.666 21.834 -66.999 36.501s-30.5 30.834 -39.5 48.501
s-13.833 34.167 -14.5 49.5h64c4.66699 -19.333 12 -35.166 22 -47.499s21.833 -22 35.5 -29s28.834 -11.833 45.501 -14.5s34 -4 52 -4c40.667 0 73.334 7 98.001 21s43.334 32.333 56.001 55s20.834 48.334 24.501 77.001s5.16699 58 4.5 88
c-19.333 -32 -45.833 -56.167 -79.5 -72.5s-68.834 -24.5 -105.501 -24.5c-39.333 0 -73.5 7.5 -102.5 22.5s-53 35 -72 60s-33.167 54.167 -42.5 87.5s-14 68 -14 104c0 38 4.33301 73.667 13 107s22.5 62.166 41.5 86.499s43.167 43.5 72.5 57.5s65 21 107 21
c16.667 0 33.667 -2.33301 51 -7s34.166 -11.334 50.499 -20.001s31.333 -19.667 45 -33s24.834 -28.333 33.501 -45h2v91zM260.992 683.997h65v-102h-65v102z" />
    <glyph glyph-name="Gcommaaccent" unicode="&#x122;" horiz-adv-x="778" 
d="M387 314l0.000976562 57.9971h308v-372h-58v123c-12.667 -21.333 -27.167 -40.833 -43.5 -58.5s-35.166 -32.667 -56.499 -45s-46 -21.833 -74 -28.5s-59.667 -10 -95 -10c-45.333 0 -87.333 8 -126 24s-72 39.833 -100 71.5s-49.833 71.5 -65.5 119.5
s-23.5 104 -23.5 168c0 52.667 6.66699 101.834 20 147.501s33.833 85.334 61.5 119.001s62.334 60.167 104.001 79.5s90.834 29 147.501 29c38 0 73.5 -4.66699 106.5 -14s62.667 -23.5 89 -42.5s48.5 -42.667 66.5 -71s31 -61.833 39 -100.5h-70
c-6 26.667 -16.167 50.667 -30.5 72s-31.5 39.166 -51.5 53.499s-42.333 25.333 -67 33s-50.334 11.5 -77.001 11.5c-47.333 0 -88 -8.33301 -122 -25s-62 -40.167 -84 -70.5s-38.167 -66.666 -48.5 -108.999s-15.5 -88.833 -15.5 -139.5c0 -40 5.83301 -78 17.5 -114
s28.667 -67.667 51 -95s49.666 -49 81.999 -65s69.166 -24 110.499 -24c19.333 0 39.333 2.16699 60 6.5s40.667 11.5 60 21.5s37.333 23 54 39s31 35.667 43 59c11.333 22.667 19.166 46.334 23.499 71.001s6.83301 50.667 7.5 78h-243zM409.001 -146.003
c0 -29.333 -6.83301 -52.8311 -20.5 -70.498s-31.167 -29.834 -52.5 -36.501v37c8 5.33301 15.667 12.666 23 21.999s11 24 11 44v34h-34v88h73v-118z" />
    <glyph glyph-name="gcommaaccent" unicode="&#x123;" horiz-adv-x="611" 
d="M472 257c0 31.333 -3.83594 60.498 -11.5029 87.498s-18.834 50.333 -33.501 70s-33 35.167 -55 46.5s-47 17 -75 17c-25.333 0 -48.666 -4.5 -69.999 -13.5s-40 -22.167 -56 -39.5s-28.5 -38.5 -37.5 -63.5s-13.5 -53.833 -13.5 -86.5
c-1.33301 -32.667 1.33398 -63.167 8.00098 -91.5s17.334 -53.166 32.001 -74.499s33.334 -38.166 56.001 -50.499s49.667 -18.5 81 -18.5c27.333 0 51.833 5.83301 73.5 17.5s40 27.334 55 47.001s26.5 42.667 34.5 69s12 54.166 12 83.499zM471.997 517.998
l59.9951 -0.000976562v-468c0 -34.667 -3.5 -67.834 -10.5 -99.501s-19.5 -59.5 -37.5 -83.5s-42.667 -43.167 -74 -57.5s-71.666 -21.5 -120.999 -21.5c-38 0 -70.667 4.83301 -98 14.5s-49.666 21.834 -66.999 36.501s-30.5 30.834 -39.5 48.501
s-13.833 34.167 -14.5 49.5h64c4.66699 -19.333 12 -35.166 22 -47.499s21.833 -22 35.5 -29s28.834 -11.833 45.501 -14.5s34 -4 52 -4c40.667 0 73.334 7 98.001 21s43.334 32.333 56.001 55s20.834 48.334 24.501 77.001s5.16699 58 4.5 88
c-19.333 -32 -45.833 -56.167 -79.5 -72.5s-68.834 -24.5 -105.501 -24.5c-39.333 0 -73.5 7.5 -102.5 22.5s-53 35 -72 60s-33.167 54.167 -42.5 87.5s-14 68 -14 104c0 38 4.33301 73.667 13 107s22.5 62.166 41.5 86.499s43.167 43.5 72.5 57.5s65 21 107 21
c16.667 0 33.667 -2.33301 51 -7s34.166 -11.334 50.499 -20.001s31.333 -19.667 45 -33s24.834 -28.333 33.501 -45h2v91zM256.992 699.997c0 29.333 6.83301 52.8311 20.5 70.498s31.167 29.834 52.5 36.501v-37c-8 -5.33301 -15.667 -12.666 -23 -21.999s-11 -24 -11 -44
v-34h34v-88h-73v118z" />
    <glyph glyph-name="Hcircumflex" unicode="&#x124;" horiz-adv-x="722" 
d="M80 0v720h68v-309h426v309h68v-720h-68v353h-426v-353h-68zM279 770h-65l114 139h67l113 -139h-65l-82 102z" />
    <glyph glyph-name="hcircumflex" unicode="&#x125;" 
d="M72 0v720.001h60v-274c24 25.333 48.833 46 74.5 62s56.5 24 92.5 24c32 0 61.667 -5.5 89 -16.5s50.333 -30.167 69 -57.5c12.667 -18.667 20.167 -37.834 22.5 -57.501s3.5 -40.167 3.5 -61.5v-339h-60v338c0 46.667 -10.333 81.667 -31 105s-55 35 -103 35
c-18.667 0 -35.667 -2.83301 -51 -8.5s-29.166 -13.167 -41.499 -22.5s-22.833 -20 -31.5 -32s-15.334 -24.667 -20.001 -38c-6 -16.667 -9.66699 -32.667 -11 -48s-2 -32 -2 -50v-279h-60zM195 770.001h-65l114 139h67l113 -139h-65l-82 102z" />
    <glyph glyph-name="Hbar" unicode="&#x126;" horiz-adv-x="796" 
d="M118 0v530h-77v50h77v140h68v-140h426v140h68v-140h74v-50h-74v-530h-68v353h-426v-353h-68zM612 411v119h-426v-119h426z" />
    <glyph glyph-name="hbar" unicode="&#x127;" horiz-adv-x="551" 
d="M109 0v596.001h-70v50h70v74h60v-74h107v-50h-107v-150c24 25.333 48.833 46 74.5 62s56.5 24 92.5 24c32 0 61.667 -5.5 89 -16.5s50.333 -30.167 69 -57.5c12.667 -18.667 20.167 -37.834 22.5 -57.501s3.5 -40.167 3.5 -61.5v-339h-60v338
c0 46.667 -10.333 81.667 -31 105s-55 35 -103 35c-18.667 0 -35.667 -2.83301 -51 -8.5s-29.166 -13.167 -41.499 -22.5s-22.833 -20 -31.5 -32s-15.334 -24.667 -20.001 -38c-6 -16.667 -9.66699 -32.667 -11 -48s-2 -32 -2 -50v-279h-60z" />
    <glyph glyph-name="Itilde" unicode="&#x128;" horiz-adv-x="278" 
d="M105 0v720h68v-720h-68zM-12 770c1.33301 12 3.66699 22.8311 7 32.498s7.66602 18.5 12.999 26.5c10 14 22.833 24.5 38.5 31.5s32.167 8.5 49.5 4.5c9.33301 -2 19.333 -5.33301 30 -10l32.5 -14.5c11 -5 21.667 -9.33301 32 -13s19.833 -5.5 28.5 -5.5
c14.667 0 25 5.33301 31 16s10.333 22 13 34h38c-0.666992 -6.66699 -1.83398 -13.167 -3.50098 -19.5s-3.16699 -12.5 -4.5 -18.5c-7.33301 -16 -16.666 -30 -27.999 -42s-26.666 -18 -45.999 -18c-14 0 -27.167 2.33301 -39.5 7s-24.5 9.83398 -36.5 15.501
s-23.833 10.834 -35.5 15.501s-23.167 7 -34.5 7c-15.333 0 -26.333 -5 -33 -15s-12 -21.333 -16 -34h-36z" />
    <glyph glyph-name="itilde" unicode="&#x129;" horiz-adv-x="222" 
d="M78 0v518h60v-518h-60zM-43 568c1.33301 12 3.66699 22.8311 7 32.498s7.66602 18.5 12.999 26.5c10 14 22.833 24.5 38.5 31.5s32.167 8.5 49.5 4.5c9.33301 -2 19.333 -5.33301 30 -10l32.5 -14.5c11 -5 21.667 -9.33301 32 -13s19.833 -5.5 28.5 -5.5
c14.667 0 25 5.33301 31 16s10.333 22 13 34h38c-0.666992 -6.66699 -1.83398 -13.167 -3.50098 -19.5s-3.16699 -12.5 -4.5 -18.5c-7.33301 -16 -16.666 -30 -27.999 -42s-26.666 -18 -45.999 -18c-14 0 -27.167 2.33301 -39.5 7s-24.5 9.83398 -36.5 15.501
s-23.833 10.834 -35.5 15.501s-23.167 7 -34.5 7c-15.333 0 -26.333 -5 -33 -15s-12 -21.333 -16 -34h-36z" />
    <glyph glyph-name="Imacron" unicode="&#x12a;" horiz-adv-x="278" 
d="M105 0v720h68v-720h-68zM-9 815h296v-45h-296v45z" />
    <glyph glyph-name="imacron" unicode="&#x12b;" horiz-adv-x="222" 
d="M78 0v518h60v-518h-60zM-40 613h296v-45h-296v45z" />
    <glyph glyph-name="Ibreve" unicode="&#x12c;" horiz-adv-x="278" 
d="M105 0v720h68v-720h-68zM35 896c5.33301 -28 17.168 -48.5 35.501 -61.5s41.5 -19.5 69.5 -19.5s51 6.5 69 19.5s30.667 33.5 38 61.5h37c-4.66699 -42 -20.334 -73.5 -47.001 -94.5s-60.667 -31.5 -102 -31.5c-40 0 -72.333 11 -97 33s-38.667 53 -42 93h39z" />
    <glyph glyph-name="ibreve" unicode="&#x12d;" horiz-adv-x="222" 
d="M78 0v518h60v-518h-60zM4 695c5.33301 -28 17.168 -48.5 35.501 -61.5s41.5 -19.5 69.5 -19.5s51 6.5 69 19.5s30.667 33.5 38 61.5h37c-4.66699 -42 -20.334 -73.5 -47.001 -94.5s-60.667 -31.5 -102 -31.5c-40 0 -72.333 11 -97 33s-38.667 53 -42 93h39z" />
    <glyph glyph-name="Iogonek" unicode="&#x12e;" horiz-adv-x="278" 
d="M105 0v720h68v-720h-68zM187 0l0.000976562 -1.99902c-8 -4 -16.667 -8.83301 -26 -14.5s-18 -12.334 -26 -20.001s-14.667 -15.834 -20 -24.501s-8 -18 -8 -28c0 -19.333 6.83301 -33.666 20.5 -42.999s29.167 -14 46.5 -14c14 0 28 3 42 9v-44
c-17.333 -6 -34.666 -9 -51.999 -9c-13.333 0 -26 1.83301 -38 5.5s-22.833 9.16699 -32.5 16.5s-17.334 16.5 -23.001 27.5s-8.5 23.5 -8.5 37.5c0 23.333 7.66699 43.833 23 61.5s32.666 31.5 51.999 41.5h50z" />
    <glyph glyph-name="iogonek" unicode="&#x12f;" horiz-adv-x="222" 
d="M81 0v518h60v-518h-60zM78 631v89h66v-89h-66zM159 0l0.000976562 -1.99902c-8 -4 -16.667 -8.83301 -26 -14.5s-18 -12.334 -26 -20.001s-14.667 -15.834 -20 -24.501s-8 -18 -8 -28c0 -19.333 6.83301 -33.666 20.5 -42.999s29.167 -14 46.5 -14c14 0 28 3 42 9v-44
c-17.333 -6 -34.666 -9 -51.999 -9c-13.333 0 -26 1.83301 -38 5.5s-22.833 9.16699 -32.5 16.5s-17.334 16.5 -23.001 27.5s-8.5 23.5 -8.5 37.5c0 23.333 7.66699 43.833 23 61.5s32.666 31.5 51.999 41.5h50z" />
    <glyph glyph-name="Idotaccent" unicode="&#x130;" horiz-adv-x="278" 
d="M105 0v720h68v-720h-68zM108 872h65v-102h-65v102z" />
    <glyph glyph-name="dotlessi" unicode="&#x131;" horiz-adv-x="222" 
d="M78 0v518h60v-518h-60z" />
    <glyph glyph-name="IJ" unicode="&#x132;" horiz-adv-x="778" 
d="M105 0v720h68v-720h-68zM368 228c0 -22.667 0.835938 -45 2.50293 -67s6.66699 -41.833 15 -59.5s21.333 -31.834 39 -42.501s42.167 -16 73.5 -16c46.667 0 79.5 13.333 98.5 40s28.5 65.334 28.5 116.001v521h68v-523c0 -70 -16.333 -123.5 -49 -160.5
s-84 -55.5 -154 -55.5c-40.667 0 -73.334 6.83301 -98.001 20.5s-43.834 32 -57.501 55s-22.834 49.333 -27.501 79s-7 60.5 -7 92.5h68z" />
    <glyph glyph-name="ij" unicode="&#x133;" horiz-adv-x="444" 
d="M81 0v518h60v-518h-60zM78 631v89h66v-89h-66zM370 518v-586.998c0 -22 -1 -41.333 -3 -58s-6.5 -30.834 -13.5 -42.501s-17.333 -20.334 -31 -26.001s-32.5 -8.5 -56.5 -8.5c-14.667 0 -27.667 1.33301 -39 4v53c17.333 -2 31.333 -2.16699 42 -0.5s19 5.5 25 11.5
s10.167 14 12.5 24s3.5 21.667 3.5 35v595h60zM373 631.002h-66v89h66v-89z" />
    <glyph glyph-name="Jcircumflex" unicode="&#x134;" horiz-adv-x="500" 
d="M90 228c0 -22.667 0.835938 -45 2.50293 -67s6.66699 -41.833 15 -59.5s21.333 -31.834 39 -42.501s42.167 -16 73.5 -16c46.667 0 79.5 13.333 98.5 40s28.5 65.334 28.5 116.001v521h68v-523c0 -70 -16.333 -123.5 -49 -160.5s-84 -55.5 -154 -55.5
c-40.667 0 -73.334 6.83301 -98.001 20.5s-43.834 32 -57.501 55s-22.834 49.333 -27.501 79s-7 60.5 -7 92.5h68zM296.003 770h-65l114 139h67l113 -139h-65l-82 102z" />
    <glyph glyph-name="jcircumflex" unicode="&#x135;" horiz-adv-x="222" 
d="M148 518v-586.998c0 -22 -1 -41.333 -3 -58s-6.5 -30.834 -13.5 -42.501s-17.333 -20.334 -31 -26.001s-32.5 -8.5 -56.5 -8.5c-14.667 0 -27.667 1.33301 -39 4v53c17.333 -2 31.333 -2.16699 42 -0.5s19 5.5 25 11.5s10.167 14 12.5 24s3.5 21.667 3.5 35v595h60z
M36 568.002h-65l114 139h67l113 -139h-65l-82 102z" />
    <glyph glyph-name="Kcommaaccent" unicode="&#x136;" horiz-adv-x="667" 
d="M85 0v720h68v-373l369 373h77l-284 -287l334 -433h-83l-300 391l-113 -113v-278h-68zM402 -127c0 -29.333 -6.83301 -52.8311 -20.5 -70.498s-31.167 -29.834 -52.5 -36.501v37c8 5.33301 15.667 12.666 23 21.999s11 24 11 44v34h-34v88h73v-118z" />
    <glyph glyph-name="kcommaaccent" unicode="&#x137;" horiz-adv-x="500" 
d="M68 0v720h60v-448l254 246h82l-194 -187l217 -331h-67l-194 289l-98 -93v-196h-60zM312 -127c0 -29.333 -6.83301 -52.8311 -20.5 -70.498s-31.167 -29.834 -52.5 -36.501v37c8 5.33301 15.667 12.666 23 21.999s11 24 11 44v34h-34v88h73v-118z" />
    <glyph glyph-name="kgreenlandic" unicode="&#x138;" horiz-adv-x="500" 
d="M68 0v518h60v-246l254 246h82l-194 -187l217 -331h-67l-194 289l-98 -93v-196h-60z" />
    <glyph glyph-name="Lacute" unicode="&#x139;" 
d="M81 0v720h68v-662h386v-58h-454zM216 770l111 139h77l-137 -139h-51z" />
    <glyph glyph-name="lacute" unicode="&#x13a;" horiz-adv-x="222" 
d="M81 0v720h60v-720h-60zM19 770l111 139h77l-137 -139h-51z" />
    <glyph glyph-name="Lcommaaccent" unicode="&#x13b;" 
d="M81 0v720h68v-662h386v-58h-454zM343 -127c0 -29.333 -6.83301 -52.8311 -20.5 -70.498s-31.167 -29.834 -52.5 -36.501v37c8 5.33301 15.667 12.666 23 21.999s11 24 11 44v34h-34v88h73v-118z" />
    <glyph glyph-name="lcommaaccent" unicode="&#x13c;" horiz-adv-x="222" 
d="M81 0v720h60v-720h-60zM146 -127c0 -29.333 -6.83301 -52.8311 -20.5 -70.498s-31.167 -29.834 -52.5 -36.501v37c8 5.33301 15.667 12.666 23 21.999s11 24 11 44v34h-34v88h73v-118z" />
    <glyph glyph-name="Lcaron" unicode="&#x13d;" 
d="M81 0v720h68v-662h386v-58h-454zM392 909h65l-113 -139h-67l-114 139h65l82 -102z" />
    <glyph glyph-name="lcaron" unicode="&#x13e;" horiz-adv-x="288" 
d="M259 602c0 -18 -1.16699 -33 -3.5 -45s-6 -22 -11 -30s-11.5 -14.5 -19.5 -19.5s-17.333 -9.16699 -28 -12.5v225h62v-118zM81 0v720h60v-720h-60z" />
    <glyph glyph-name="Ldot" unicode="&#x13f;" 
d="M81 0v720h68v-662h386v-58h-454zM302 354v88h73v-88h-73z" />
    <glyph glyph-name="ldot" unicode="&#x140;" horiz-adv-x="275" 
d="M61 0v720h60v-720h-60zM202 354v88h73v-88h-73z" />
    <glyph glyph-name="Lslash" unicode="&#x141;" 
d="M81 0v360l-81 -40v60l81 40v300h68v-250l81 40v-60l-81 -40v-352h386v-58h-454z" />
    <glyph glyph-name="lslash" unicode="&#x142;" horiz-adv-x="222" 
d="M81 0v340l-71 -40v60l71 40v320h60v-270l71 40v-60l-71 -40v-390h-60z" />
    <glyph glyph-name="Nacute" unicode="&#x143;" horiz-adv-x="722" 
d="M149 628h-2v-628h-68v720h77l416 -629h2v629h68v-720h-79zM268 770l111 139h77l-137 -139h-51z" />
    <glyph glyph-name="nacute" unicode="&#x144;" 
d="M132 0l-60 0.000976562v518h60v-72c24 25.333 48.833 46 74.5 62s56.5 24 92.5 24c32 0 61.667 -5.5 89 -16.5s50.333 -30.167 69 -57.5c12.667 -18.667 20.167 -37.834 22.5 -57.501s3.5 -40.167 3.5 -61.5v-339h-60v338c0 46.667 -10.333 81.667 -31 105
s-55 35 -103 35c-18.667 0 -35.667 -2.83301 -51 -8.5s-29.166 -13.167 -41.499 -22.5s-22.833 -20 -31.5 -32s-15.334 -24.667 -20.001 -38c-6 -16.667 -9.66699 -32.667 -11 -48s-2 -32 -2 -50v-279zM185 582.001l111 139h77l-137 -139h-51z" />
    <glyph glyph-name="Ncommaaccent" unicode="&#x145;" horiz-adv-x="722" 
d="M149 628h-2v-628h-68v720h77l416 -629h2v629h68v-720h-79zM395 -127c0 -29.333 -6.83301 -52.8311 -20.5 -70.498s-31.167 -29.834 -52.5 -36.501v37c8 5.33301 15.667 12.666 23 21.999s11 24 11 44v34h-34v88h73v-118z" />
    <glyph glyph-name="ncedilla" unicode="&#x146;" 
d="M132 0l-60 0.000976562v518h60v-72c24 25.333 48.833 46 74.5 62s56.5 24 92.5 24c32 0 61.667 -5.5 89 -16.5s50.333 -30.167 69 -57.5c12.667 -18.667 20.167 -37.834 22.5 -57.501s3.5 -40.167 3.5 -61.5v-339h-60v338c0 46.667 -10.333 81.667 -31 105
s-55 35 -103 35c-18.667 0 -35.667 -2.83301 -51 -8.5s-29.166 -13.167 -41.499 -22.5s-22.833 -20 -31.5 -32s-15.334 -24.667 -20.001 -38c-6 -16.667 -9.66699 -32.667 -11 -48s-2 -32 -2 -50v-279zM312 -126.999c0 -29.333 -6.83301 -52.8311 -20.5 -70.498
s-31.167 -29.834 -52.5 -36.501v37c8 5.33301 15.667 12.666 23 21.999s11 24 11 44v34h-34v88h73v-118z" />
    <glyph glyph-name="Ncaron" unicode="&#x147;" horiz-adv-x="722" 
d="M149 628h-2v-628h-68v720h77l416 -629h2v629h68v-720h-79zM444 909h65l-113 -139h-67l-114 139h65l82 -102z" />
    <glyph glyph-name="ncaron" unicode="&#x148;" 
d="M132 0l-60 0.000976562v518h60v-72c24 25.333 48.833 46 74.5 62s56.5 24 92.5 24c32 0 61.667 -5.5 89 -16.5s50.333 -30.167 69 -57.5c12.667 -18.667 20.167 -37.834 22.5 -57.501s3.5 -40.167 3.5 -61.5v-339h-60v338c0 46.667 -10.333 81.667 -31 105
s-55 35 -103 35c-18.667 0 -35.667 -2.83301 -51 -8.5s-29.166 -13.167 -41.499 -22.5s-22.833 -20 -31.5 -32s-15.334 -24.667 -20.001 -38c-6 -16.667 -9.66699 -32.667 -11 -48s-2 -32 -2 -50v-279zM361 721.001h65l-113 -139h-67l-114 139h65l82 -102z" />
    <glyph glyph-name="napostrophe" unicode="&#x149;" horiz-adv-x="631" 
d="M110 604c0 -29.333 -6.83301 -52.8311 -20.5 -70.498s-31.167 -29.834 -52.5 -36.501v37c8 5.33301 15.667 12.666 23 21.999s11 24 11 44v34h-34v88h73v-118zM207 0.00195312l-60 0.000976562v518h60v-72c24 25.333 48.833 46 74.5 62s56.5 24 92.5 24
c32 0 61.667 -5.5 89 -16.5s50.333 -30.167 69 -57.5c12.667 -18.667 20.167 -37.834 22.5 -57.501s3.5 -40.167 3.5 -61.5v-339h-60v338c0 46.667 -10.333 81.667 -31 105s-55 35 -103 35c-18.667 0 -35.667 -2.83301 -51 -8.5s-29.166 -13.167 -41.499 -22.5
s-22.833 -20 -31.5 -32s-15.334 -24.667 -20.001 -38c-6 -16.667 -9.66699 -32.667 -11 -48s-2 -32 -2 -50v-279z" />
    <glyph glyph-name="Eng" unicode="&#x14a;" horiz-adv-x="722" 
d="M642 720v-788.998c0 -22 -1 -41.333 -3 -58s-6.5 -30.834 -13.5 -42.501s-17.333 -20.334 -31 -26.001s-32.5 -8.5 -56.5 -8.5c-14.667 0 -27.667 1.33301 -39 4l-19 53c17.333 -2 31.333 -2.16699 42 -0.5s19 5.5 25 11.5s10.167 14 12.5 24s3.5 21.667 3.5 35v77
l-414 628h-2v-628h-68v720h77l416 -629h2v629h68z" />
    <glyph glyph-name="eng" unicode="&#x14b;" 
d="M132 0l-60 0.00292969v518h60v-72c24 25.333 48.833 46 74.5 62s56.5 24 92.5 24c32 0 61.667 -5.5 89 -16.5s50.333 -30.167 69 -57.5c12.667 -18.667 20.167 -37.834 22.5 -57.501s3.5 -40.167 3.5 -61.5v-408c0 -22 -1 -41.333 -3 -58s-6.5 -30.834 -13.5 -42.501
s-17.333 -20.334 -31 -26.001s-32.5 -8.5 -56.5 -8.5c-14.667 0 -27.667 1.33301 -39 4v53c17.333 -2 31.333 -2.16699 42 -0.5s19 5.5 25 11.5s10.167 14 12.5 24s3.5 21.667 3.5 35v415c0 46.667 -10.333 81.667 -31 105s-55 35 -103 35
c-18.667 0 -35.667 -2.83301 -51 -8.5s-29.166 -13.167 -41.499 -22.5s-22.833 -20 -31.5 -32s-15.334 -24.667 -20.001 -38c-6 -16.667 -9.66699 -32.667 -11 -48s-2 -32 -2 -50v-279z" />
    <glyph glyph-name="Omacron" unicode="&#x14c;" horiz-adv-x="778" 
d="M53 359c0 52.667 7.16895 101.999 21.502 147.999s35.5 86.167 63.5 120.5s62.667 61.5 104 81.5s89 30 143 30c56 0 105.167 -9.83301 147.5 -29.5s77.666 -46.667 105.999 -81s49.666 -74.666 63.999 -120.999s21.5 -95.833 21.5 -148.5
c0 -52 -7.16699 -100.833 -21.5 -146.5s-35.5 -85.667 -63.5 -120s-63 -61.5 -105 -81.5s-90.667 -30 -146 -30s-104 10 -146 30s-77 47.167 -105 81.5s-49 74.333 -63 120s-21 94.5 -21 146.5zM389.002 38.999c46.667 0 86.8291 8.83398 120.496 26.501
s61.334 41.167 83.001 70.5s37.667 63.333 48 102s15.5 79 15.5 121c0 50 -6.16699 94.833 -18.5 134.5s-30.166 73.5 -53.499 101.5s-51.666 49.333 -84.999 64s-70.666 22 -111.999 22c-46 0 -85.833 -9 -119.5 -27s-61.334 -41.833 -83.001 -71.5
s-37.667 -63.834 -48 -102.501s-15.5 -79 -15.5 -121c0 -42.667 5.16699 -83.334 15.5 -122.001s26.333 -72.667 48 -102s49.334 -52.666 83.001 -69.999s74.167 -26 121.5 -26zM239.997 834h296v-45h-296v45z" />
    <glyph glyph-name="omacron" unicode="&#x14d;" 
d="M278 -14c-33.333 0.666992 -64.499 6.66406 -93.499 17.9971s-54.333 28.333 -76 51s-38.834 51 -51.501 85s-19 73.667 -19 119c0 38 5 73.5 15 106.5s25 61.833 45 86.5s45 44.167 75 58.5s65 21.5 105 21.5c40.667 0 76 -7.16699 106 -21.5s55 -33.666 75 -57.999
s34.833 -53.166 44.5 -86.499s14.5 -69 14.5 -107c0 -41.333 -5.66699 -78.666 -17 -111.999s-27.5 -62 -48.5 -86s-46.333 -42.5 -76 -55.5s-62.5 -19.5 -98.5 -19.5zM454.001 258.997c0 30.667 -3.33398 59.3301 -10.001 85.9971s-17 49.834 -31 69.501
s-32 35.167 -54 46.5s-49 17 -81 17c-31.333 0 -58.166 -6.16699 -80.499 -18.5s-40.5 -28.666 -54.5 -48.999s-24.333 -43.666 -31 -69.999s-10 -53.5 -10 -81.5c0 -32 3.83301 -61.5 11.5 -88.5s18.834 -50.167 33.501 -69.5s33 -34.333 55 -45s47.333 -16 76 -16
c31.333 0 58.166 6.16699 80.499 18.5s40.5 28.833 54.5 49.5s24.333 44 31 70s10 53 10 81zM130 626.993h296v-45h-296v45z" />
    <glyph glyph-name="Obreve" unicode="&#x14e;" horiz-adv-x="778" 
d="M53 359c0 52.667 7.16895 101.999 21.502 147.999s35.5 86.167 63.5 120.5s62.667 61.5 104 81.5s89 30 143 30c56 0 105.167 -9.83301 147.5 -29.5s77.666 -46.667 105.999 -81s49.666 -74.666 63.999 -120.999s21.5 -95.833 21.5 -148.5
c0 -52 -7.16699 -100.833 -21.5 -146.5s-35.5 -85.667 -63.5 -120s-63 -61.5 -105 -81.5s-90.667 -30 -146 -30s-104 10 -146 30s-77 47.167 -105 81.5s-49 74.333 -63 120s-21 94.5 -21 146.5zM389.002 38.999c46.667 0 86.8291 8.83398 120.496 26.501
s61.334 41.167 83.001 70.5s37.667 63.333 48 102s15.5 79 15.5 121c0 50 -6.16699 94.833 -18.5 134.5s-30.166 73.5 -53.499 101.5s-51.666 49.333 -84.999 64s-70.666 22 -111.999 22c-46 0 -85.833 -9 -119.5 -27s-61.334 -41.833 -83.001 -71.5
s-37.667 -63.834 -48 -102.501s-15.5 -79 -15.5 -121c0 -42.667 5.16699 -83.334 15.5 -122.001s26.333 -72.667 48 -102s49.334 -52.666 83.001 -69.999s74.167 -26 121.5 -26zM282.997 915c5.33301 -28 17.168 -48.5 35.501 -61.5s41.5 -19.5 69.5 -19.5s51 6.5 69 19.5
s30.667 33.5 38 61.5h37c-4.66699 -42 -20.334 -73.5 -47.001 -94.5s-60.667 -31.5 -102 -31.5c-40 0 -72.333 11 -97 33s-38.667 53 -42 93h39z" />
    <glyph glyph-name="obreve" unicode="&#x14f;" 
d="M278 -14c-33.333 0.666992 -64.499 6.66406 -93.499 17.9971s-54.333 28.333 -76 51s-38.834 51 -51.501 85s-19 73.667 -19 119c0 38 5 73.5 15 106.5s25 61.833 45 86.5s45 44.167 75 58.5s65 21.5 105 21.5c40.667 0 76 -7.16699 106 -21.5s55 -33.666 75 -57.999
s34.833 -53.166 44.5 -86.499s14.5 -69 14.5 -107c0 -41.333 -5.66699 -78.666 -17 -111.999s-27.5 -62 -48.5 -86s-46.333 -42.5 -76 -55.5s-62.5 -19.5 -98.5 -19.5zM454.001 258.997c0 30.667 -3.33398 59.3301 -10.001 85.9971s-17 49.834 -31 69.501
s-32 35.167 -54 46.5s-49 17 -81 17c-31.333 0 -58.166 -6.16699 -80.499 -18.5s-40.5 -28.666 -54.5 -48.999s-24.333 -43.666 -31 -69.999s-10 -53.5 -10 -81.5c0 -32 3.83301 -61.5 11.5 -88.5s18.834 -50.167 33.501 -69.5s33 -34.333 55 -45s47.333 -16 76 -16
c31.333 0 58.166 6.16699 80.499 18.5s40.5 28.833 54.5 49.5s24.333 44 31 70s10 53 10 81zM173 707.993c5.33301 -28 17.168 -48.5 35.501 -61.5s41.5 -19.5 69.5 -19.5s51 6.5 69 19.5s30.667 33.5 38 61.5h37c-4.66699 -42 -20.334 -73.5 -47.001 -94.5
s-60.667 -31.5 -102 -31.5c-40 0 -72.333 11 -97 33s-38.667 53 -42 93h39z" />
    <glyph glyph-name="Ohungarumlaut" unicode="&#x150;" horiz-adv-x="778" 
d="M53 359c0 52.667 7.16895 101.999 21.502 147.999s35.5 86.167 63.5 120.5s62.667 61.5 104 81.5s89 30 143 30c56 0 105.167 -9.83301 147.5 -29.5s77.666 -46.667 105.999 -81s49.666 -74.666 63.999 -120.999s21.5 -95.833 21.5 -148.5
c0 -52 -7.16699 -100.833 -21.5 -146.5s-35.5 -85.667 -63.5 -120s-63 -61.5 -105 -81.5s-90.667 -30 -146 -30s-104 10 -146 30s-77 47.167 -105 81.5s-49 74.333 -63 120s-21 94.5 -21 146.5zM389.002 38.999c46.667 0 86.8291 8.83398 120.496 26.501
s61.334 41.167 83.001 70.5s37.667 63.333 48 102s15.5 79 15.5 121c0 50 -6.16699 94.833 -18.5 134.5s-30.166 73.5 -53.499 101.5s-51.666 49.333 -84.999 64s-70.666 22 -111.999 22c-46 0 -85.833 -9 -119.5 -27s-61.334 -41.833 -83.001 -71.5
s-37.667 -63.834 -48 -102.501s-15.5 -79 -15.5 -121c0 -42.667 5.16699 -83.334 15.5 -122.001s26.333 -72.667 48 -102s49.334 -52.666 83.001 -69.999s74.167 -26 121.5 -26zM212.997 789l111 139h77l-137 -139h-51zM374.997 789l111 139h77l-137 -139h-51z" />
    <glyph glyph-name="ohungarumlaut" unicode="&#x151;" 
d="M278 -14c-33.333 0.666992 -64.499 6.66406 -93.499 17.9971s-54.333 28.333 -76 51s-38.834 51 -51.501 85s-19 73.667 -19 119c0 38 5 73.5 15 106.5s25 61.833 45 86.5s45 44.167 75 58.5s65 21.5 105 21.5c40.667 0 76 -7.16699 106 -21.5s55 -33.666 75 -57.999
s34.833 -53.166 44.5 -86.499s14.5 -69 14.5 -107c0 -41.333 -5.66699 -78.666 -17 -111.999s-27.5 -62 -48.5 -86s-46.333 -42.5 -76 -55.5s-62.5 -19.5 -98.5 -19.5zM454.001 258.997c0 30.667 -3.33398 59.3301 -10.001 85.9971s-17 49.834 -31 69.501
s-32 35.167 -54 46.5s-49 17 -81 17c-31.333 0 -58.166 -6.16699 -80.499 -18.5s-40.5 -28.666 -54.5 -48.999s-24.333 -43.666 -31 -69.999s-10 -53.5 -10 -81.5c0 -32 3.83301 -61.5 11.5 -88.5s18.834 -50.167 33.501 -69.5s33 -34.333 55 -45s47.333 -16 76 -16
c31.333 0 58.166 6.16699 80.499 18.5s40.5 28.833 54.5 49.5s24.333 44 31 70s10 53 10 81zM103 581.993l111 139h77l-137 -139h-51zM265 581.993l111 139h77l-137 -139h-51z" />
    <glyph glyph-name="OE" unicode="&#x152;" horiz-adv-x="1000" 
d="M547 498c0 60 -17.832 105.498 -53.499 136.498s-84.834 46.5 -147.501 46.5c-76 0 -134.5 -26.833 -175.5 -80.5s-61.5 -133.5 -61.5 -239.5c0 -47.333 4.66699 -90.666 14 -129.999s24 -73.166 44 -101.499s45.333 -50.5 76 -66.5s67.667 -24 111 -24
c25.333 0 50.833 5 76.5 15s48.167 23 67.5 39c20.667 17.333 34 36.5 40 57.5s9 44.5 9 70.5v277zM550.001 71.998c-12 -12 -24.6689 -23.498 -38.002 -34.498s-28 -20.667 -44 -29s-33.833 -15 -53.5 -20s-41.5 -7.5 -65.5 -7.5c-55.333 0 -102.333 10.5 -141 31.5
s-70.5 49 -95.5 84s-43.167 75.167 -54.5 120.5s-17 92.666 -17 141.999c0 52 5.83301 101.167 17.5 147.5s29.834 86.666 54.501 120.999s56.334 61.5 95.001 81.5s84.667 30 138 30c42.667 0 81.5 -6.33301 116.5 -19s64.167 -38 87.5 -76v76h407v-58h-342v-260h320v-58
h-320v-286h352v-58h-417v72z" />
    <glyph glyph-name="oe" unicode="&#x153;" horiz-adv-x="944" 
d="M511 245c-2 -18.667 -0.49707 -39.834 4.50293 -63.501s14.5 -46 28.5 -67s32.667 -38.667 56 -53s52 -21.5 86 -21.5c38 0 70.5 11 97.5 33s44.5 51 52.5 87h61c-12 -56.667 -36.833 -99.834 -74.5 -129.501s-83.834 -44.5 -138.501 -44.5c-49.333 0 -91.333 12 -126 36
s-61 54 -79 90c-20.667 -42 -49.667 -73.5 -87 -94.5s-79 -31.5 -125 -31.5c-34.667 0 -66.167 6.33301 -94.5 19s-52.666 30.834 -72.999 54.501s-36 52.334 -47 86.001s-16.5 71.167 -16.5 112.5c0 38 4.5 73.5 13.5 106.5s23.167 62 42.5 87s43.666 44.667 72.999 59
s64.666 21.5 105.999 21.5c48.667 0 90.167 -9.83301 124.5 -29.5s62.166 -51.5 83.499 -95.5c22 42 49.667 73.333 83 94s74 31 122 31c45.333 0 82.333 -8 111 -24s51 -37.167 67 -63.5s27 -56.833 33 -91.5s9 -70.667 9 -108h-393zM100.003 249
c0 -28 3.49902 -54.668 10.499 -80.001s17.667 -47.5 32 -66.5s32.166 -34.167 53.499 -45.5s46.666 -17 75.999 -17c28.667 0 53.834 5.66699 75.501 17s39.834 27 54.501 47s25.834 44 33.501 72s11.5 59 11.5 93c0 30 -3.83301 57.833 -11.5 83.5s-19 47.834 -34 66.501
s-33.833 33.167 -56.5 43.5s-49 15.5 -79 15.5c-54 0 -95.667 -20.5 -125 -61.5s-43 -96.833 -41 -167.5zM840.002 294.999c0 26 -3.00195 50.1699 -9.00195 72.5029s-15.5 41.666 -28.5 57.999s-29.5 29.166 -49.5 38.499s-44 14 -72 14
c-25.333 0 -48.333 -4.83301 -69 -14.5s-38.167 -22.834 -52.5 -39.501s-25.666 -36.167 -33.999 -58.5s-13.166 -45.833 -14.499 -70.5h329z" />
    <glyph glyph-name="Racute" unicode="&#x154;" horiz-adv-x="667" 
d="M360 385c25.333 0 48.833 2.66699 70.5 8s40.5 13.833 56.5 25.5s28.667 26.5 38 44.5s14 39.667 14 65c0 26.667 -4.83301 48.667 -14.5 66s-22.667 31 -39 41s-35 17 -56 21s-42.833 6 -65.5 6h-216v-277h212zM148 327v-326.999h-68v720h282
c79.333 0 140 -14.833 182 -44.5s63 -77.834 63 -144.501c0 -45.333 -9.16699 -81.333 -27.5 -108s-48.166 -49.334 -89.499 -68.001c21.333 -7.33301 38 -18 50 -32s21 -30 27 -48s9.83301 -37 11.5 -57s2.83398 -39.333 3.50098 -58
c0.666992 -27.333 1.83398 -50 3.50098 -68s3.66699 -32.667 6 -44s5.16602 -20.166 8.49902 -26.499s7.33301 -11.166 12 -14.499v-7h-75c-7.33301 12 -12.5 28.667 -15.5 50s-5.33301 43.666 -7 66.999s-3 46 -4 68s-2.83301 40 -5.5 54
c-4 19.333 -10.5 34.833 -19.5 46.5s-19.833 20.5 -32.5 26.5s-26.834 10 -42.501 12s-31.834 3 -48.501 3h-214zM254 770.001l111 139h77l-137 -139h-51z" />
    <glyph glyph-name="racute" unicode="&#x155;" horiz-adv-x="333" 
d="M135 0l-59.999 -0.00195312v518h60v-97h2c16.667 41.333 38.167 70.166 64.5 86.499s61.166 24.5 104.499 24.5v-65c-34 0.666992 -62 -4.66602 -84 -15.999s-39.5 -26.666 -52.5 -45.999s-22 -42.166 -27 -68.499s-7.5 -53.833 -7.5 -82.5v-254zM98.001 581.998l111 139
h77l-137 -139h-51z" />
    <glyph glyph-name="Rcommaaccent" unicode="&#x156;" horiz-adv-x="667" 
d="M360 385c25.333 0 48.833 2.66699 70.5 8s40.5 13.833 56.5 25.5s28.667 26.5 38 44.5s14 39.667 14 65c0 26.667 -4.83301 48.667 -14.5 66s-22.667 31 -39 41s-35 17 -56 21s-42.833 6 -65.5 6h-216v-277h212zM148 327v-326.999h-68v720h282
c79.333 0 140 -14.833 182 -44.5s63 -77.834 63 -144.501c0 -45.333 -9.16699 -81.333 -27.5 -108s-48.166 -49.334 -89.499 -68.001c21.333 -7.33301 38 -18 50 -32s21 -30 27 -48s9.83301 -37 11.5 -57s2.83398 -39.333 3.50098 -58
c0.666992 -27.333 1.83398 -50 3.50098 -68s3.66699 -32.667 6 -44s5.16602 -20.166 8.49902 -26.499s7.33301 -11.166 12 -14.499v-7h-75c-7.33301 12 -12.5 28.667 -15.5 50s-5.33301 43.666 -7 66.999s-3 46 -4 68s-2.83301 40 -5.5 54
c-4 19.333 -10.5 34.833 -19.5 46.5s-19.833 20.5 -32.5 26.5s-26.834 10 -42.501 12s-31.834 3 -48.501 3h-214zM381 -126.999c0 -29.333 -6.83301 -52.8311 -20.5 -70.498s-31.167 -29.834 -52.5 -36.501v37c8 5.33301 15.667 12.666 23 21.999s11 24 11 44v34h-34v88h73
v-118z" />
    <glyph glyph-name="rcommaaccent" unicode="&#x157;" horiz-adv-x="333" 
d="M135 0l-59.999 -0.00195312v518h60v-97h2c16.667 41.333 38.167 70.166 64.5 86.499s61.166 24.5 104.499 24.5v-65c-34 0.666992 -62 -4.66602 -84 -15.999s-39.5 -26.666 -52.5 -45.999s-22 -42.166 -27 -68.499s-7.5 -53.833 -7.5 -82.5v-254zM225.001 -127.002
c0 -29.333 -6.83301 -52.8311 -20.5 -70.498s-31.167 -29.834 -52.5 -36.501v37c8 5.33301 15.667 12.666 23 21.999s11 24 11 44v34h-34v88h73v-118z" />
    <glyph glyph-name="Rcaron" unicode="&#x158;" horiz-adv-x="667" 
d="M360 385c25.333 0 48.833 2.66699 70.5 8s40.5 13.833 56.5 25.5s28.667 26.5 38 44.5s14 39.667 14 65c0 26.667 -4.83301 48.667 -14.5 66s-22.667 31 -39 41s-35 17 -56 21s-42.833 6 -65.5 6h-216v-277h212zM148 327v-326.999h-68v720h282
c79.333 0 140 -14.833 182 -44.5s63 -77.834 63 -144.501c0 -45.333 -9.16699 -81.333 -27.5 -108s-48.166 -49.334 -89.499 -68.001c21.333 -7.33301 38 -18 50 -32s21 -30 27 -48s9.83301 -37 11.5 -57s2.83398 -39.333 3.50098 -58
c0.666992 -27.333 1.83398 -50 3.50098 -68s3.66699 -32.667 6 -44s5.16602 -20.166 8.49902 -26.499s7.33301 -11.166 12 -14.499v-7h-75c-7.33301 12 -12.5 28.667 -15.5 50s-5.33301 43.666 -7 66.999s-3 46 -4 68s-2.83301 40 -5.5 54
c-4 19.333 -10.5 34.833 -19.5 46.5s-19.833 20.5 -32.5 26.5s-26.834 10 -42.501 12s-31.834 3 -48.501 3h-214zM430 909.001h65l-113 -139h-67l-114 139h65l82 -102z" />
    <glyph glyph-name="rcaron" unicode="&#x159;" horiz-adv-x="333" 
d="M135 0l-59.999 -0.00195312v518h60v-97h2c16.667 41.333 38.167 70.166 64.5 86.499s61.166 24.5 104.499 24.5v-65c-34 0.666992 -62 -4.66602 -84 -15.999s-39.5 -26.666 -52.5 -45.999s-22 -42.166 -27 -68.499s-7.5 -53.833 -7.5 -82.5v-254zM274.001 720.998h65
l-113 -139h-67l-114 139h65l82 -102z" />
    <glyph glyph-name="Sacute" unicode="&#x15a;" horiz-adv-x="611" 
d="M109 215c2.66699 -32 9.83398 -59.166 21.501 -81.499s26.667 -40.5 45 -54.5s39.5 -24.167 63.5 -30.5s49.667 -9.5 77 -9.5c32 0 59.667 4 83 12s42.333 18.833 57 32.5s25.5 29.5 32.5 47.5s10.5 37 10.5 57c0 28 -6.33301 50.667 -19 68s-29.167 31.5 -49.5 42.5
s-43.666 19.833 -69.999 26.5s-53.333 13.167 -81 19.5s-54.667 13.833 -81 22.5s-49.666 20.334 -69.999 35.001s-36.833 33.5 -49.5 56.5s-19 52.167 -19 87.5c0 24.667 5.16699 48.667 15.5 72s25.666 44 45.999 62s45.833 32.333 76.5 43s66 16 106 16
c40.667 0 76.167 -5.66699 106.5 -17s55.5 -26.833 75.5 -46.5s35 -42.5 45 -68.5s15 -53.667 15 -83h-65c0 27.333 -4.83301 51 -14.5 71s-22.834 36.333 -39.501 49s-35.667 22 -57 28s-43.333 9 -66 9c-34.667 0 -63.834 -4.83301 -87.501 -14.5
s-42.5 -22.167 -56.5 -37.5s-23.667 -32.333 -29 -51s-6.33301 -37.334 -3 -56.001c4 -23.333 13.333 -42 28 -56s32.667 -25.5 54 -34.5s44.833 -16.333 70.5 -22l78.5 -18c26.667 -6.33301 52.5 -13.833 77.5 -22.5s47.167 -20.334 66.5 -35.001s34.833 -33.5 46.5 -56.5
s17.5 -51.833 17.5 -86.5c0 -66.667 -23 -118.334 -69 -155.001s-110.667 -55 -194 -55c-37.333 0 -72 4.83301 -104 14.5s-59.667 24.334 -83 44.001s-41.5 44 -54.5 73s-19.5 63.167 -19.5 102.5h66zM213 789.001l111 139h77l-137 -139h-51z" />
    <glyph glyph-name="sacute" unicode="&#x15b;" horiz-adv-x="500" 
d="M107 162c9.33301 -44.667 26.1729 -76.167 50.5059 -94.5s59.166 -27.5 104.499 -27.5c22 0 41 2.66699 57 8s29.167 12.5 39.5 21.5s18.166 19.167 23.499 30.5s8 23.333 8 36c0 25.333 -8.16699 44.166 -24.5 56.499s-36.833 22 -61.5 29s-51.334 13 -80.001 18
s-55.334 12.5 -80.001 22.5s-45.167 24.333 -61.5 43s-24.5 45 -24.5 79c0 43.333 15.833 78.833 47.5 106.5s76.5 41.5 134.5 41.5c56 0 101.5 -12.5 136.5 -37.5s56.167 -66.833 63.5 -125.5h-61c-5.33301 40 -20.5 68.167 -45.5 84.5s-56.5 24.5 -94.5 24.5
s-67 -8.16699 -87 -24.5s-30 -37.833 -30 -64.5c0 -23.333 8.16699 -41.166 24.5 -53.499s36.833 -22.333 61.5 -30s51.334 -14.5 80.001 -20.5s55.334 -14.5 80.001 -25.5s45.167 -25.833 61.5 -44.5s24.5 -44.667 24.5 -78c0 -24.667 -5.33301 -46.5 -16 -65.5
s-25.334 -34.833 -44.001 -47.5s-40.834 -22.167 -66.501 -28.5s-53.834 -9.5 -84.501 -9.5s-57.834 4.5 -81.501 13.5s-43.834 21.5 -60.501 37.5s-29.667 34.667 -39 56s-14.666 44.333 -15.999 69h61zM158.007 582l111 139h77l-137 -139h-51z" />
    <glyph glyph-name="Scircumflex" unicode="&#x15c;" horiz-adv-x="611" 
d="M109 215c2.66699 -32 9.83398 -59.166 21.501 -81.499s26.667 -40.5 45 -54.5s39.5 -24.167 63.5 -30.5s49.667 -9.5 77 -9.5c32 0 59.667 4 83 12s42.333 18.833 57 32.5s25.5 29.5 32.5 47.5s10.5 37 10.5 57c0 28 -6.33301 50.667 -19 68s-29.167 31.5 -49.5 42.5
s-43.666 19.833 -69.999 26.5s-53.333 13.167 -81 19.5s-54.667 13.833 -81 22.5s-49.666 20.334 -69.999 35.001s-36.833 33.5 -49.5 56.5s-19 52.167 -19 87.5c0 24.667 5.16699 48.667 15.5 72s25.666 44 45.999 62s45.833 32.333 76.5 43s66 16 106 16
c40.667 0 76.167 -5.66699 106.5 -17s55.5 -26.833 75.5 -46.5s35 -42.5 45 -68.5s15 -53.667 15 -83h-65c0 27.333 -4.83301 51 -14.5 71s-22.834 36.333 -39.501 49s-35.667 22 -57 28s-43.333 9 -66 9c-34.667 0 -63.834 -4.83301 -87.501 -14.5
s-42.5 -22.167 -56.5 -37.5s-23.667 -32.333 -29 -51s-6.33301 -37.334 -3 -56.001c4 -23.333 13.333 -42 28 -56s32.667 -25.5 54 -34.5s44.833 -16.333 70.5 -22l78.5 -18c26.667 -6.33301 52.5 -13.833 77.5 -22.5s47.167 -20.334 66.5 -35.001s34.833 -33.5 46.5 -56.5
s17.5 -51.833 17.5 -86.5c0 -66.667 -23 -118.334 -69 -155.001s-110.667 -55 -194 -55c-37.333 0 -72 4.83301 -104 14.5s-59.667 24.334 -83 44.001s-41.5 44 -54.5 73s-19.5 63.167 -19.5 102.5h66zM223 789.001h-65l114 139h67l113 -139h-65l-82 102z" />
    <glyph glyph-name="scircumflex" unicode="&#x15d;" horiz-adv-x="500" 
d="M107 162c9.33301 -44.667 26.1729 -76.167 50.5059 -94.5s59.166 -27.5 104.499 -27.5c22 0 41 2.66699 57 8s29.167 12.5 39.5 21.5s18.166 19.167 23.499 30.5s8 23.333 8 36c0 25.333 -8.16699 44.166 -24.5 56.499s-36.833 22 -61.5 29s-51.334 13 -80.001 18
s-55.334 12.5 -80.001 22.5s-45.167 24.333 -61.5 43s-24.5 45 -24.5 79c0 43.333 15.833 78.833 47.5 106.5s76.5 41.5 134.5 41.5c56 0 101.5 -12.5 136.5 -37.5s56.167 -66.833 63.5 -125.5h-61c-5.33301 40 -20.5 68.167 -45.5 84.5s-56.5 24.5 -94.5 24.5
s-67 -8.16699 -87 -24.5s-30 -37.833 -30 -64.5c0 -23.333 8.16699 -41.166 24.5 -53.499s36.833 -22.333 61.5 -30s51.334 -14.5 80.001 -20.5s55.334 -14.5 80.001 -25.5s45.167 -25.833 61.5 -44.5s24.5 -44.667 24.5 -78c0 -24.667 -5.33301 -46.5 -16 -65.5
s-25.334 -34.833 -44.001 -47.5s-40.834 -22.167 -66.501 -28.5s-53.834 -9.5 -84.501 -9.5s-57.834 4.5 -81.501 13.5s-43.834 21.5 -60.501 37.5s-29.667 34.667 -39 56s-14.666 44.333 -15.999 69h61zM168.007 582h-65l114 139h67l113 -139h-65l-82 102z" />
    <glyph glyph-name="Scedilla" unicode="&#x15e;" horiz-adv-x="611" 
d="M109 215c2.66699 -32 9.83398 -59.166 21.501 -81.499s26.667 -40.5 45 -54.5s39.5 -24.167 63.5 -30.5s49.667 -9.5 77 -9.5c32 0 59.667 4 83 12s42.333 18.833 57 32.5s25.5 29.5 32.5 47.5s10.5 37 10.5 57c0 28 -6.33301 50.667 -19 68s-29.167 31.5 -49.5 42.5
s-43.666 19.833 -69.999 26.5s-53.333 13.167 -81 19.5s-54.667 13.833 -81 22.5s-49.666 20.334 -69.999 35.001s-36.833 33.5 -49.5 56.5s-19 52.167 -19 87.5c0 24.667 5.16699 48.667 15.5 72s25.666 44 45.999 62s45.833 32.333 76.5 43s66 16 106 16
c40.667 0 76.167 -5.66699 106.5 -17s55.5 -26.833 75.5 -46.5s35 -42.5 45 -68.5s15 -53.667 15 -83h-65c0 27.333 -4.83301 51 -14.5 71s-22.834 36.333 -39.501 49s-35.667 22 -57 28s-43.333 9 -66 9c-34.667 0 -63.834 -4.83301 -87.501 -14.5
s-42.5 -22.167 -56.5 -37.5s-23.667 -32.333 -29 -51s-6.33301 -37.334 -3 -56.001c4 -23.333 13.333 -42 28 -56s32.667 -25.5 54 -34.5s44.833 -16.333 70.5 -22l78.5 -18c26.667 -6.33301 52.5 -13.833 77.5 -22.5s47.167 -20.334 66.5 -35.001s34.833 -33.5 46.5 -56.5
s17.5 -51.833 17.5 -86.5c0 -66.667 -23 -118.334 -69 -155.001s-110.667 -55 -194 -55c-37.333 0 -72 4.83301 -104 14.5s-59.667 24.334 -83 44.001s-41.5 44 -54.5 73s-19.5 63.167 -19.5 102.5h66zM209 -176.999l31.498 -10c10.333 -3.33301 21.166 -5 32.499 -5
c7.33301 0 14.833 0.833008 22.5 2.5s14.834 4.33398 21.501 8.00098s12 8.5 16 14.5s6 13.333 6 22c0 13.333 -5.16699 23.166 -15.5 29.499s-21.833 9.5 -34.5 9.5c-7.33301 0 -14.666 -0.833008 -21.999 -2.5s-14.666 -3.5 -21.999 -5.5l-15 13l60 82h39l-47 -59l18 4
c6 1.33301 12 2 18 2c22 0 39.833 -5.5 53.5 -16.5s21.5 -22.833 23.5 -35.5c3.33301 -18 2.5 -33.5 -2.5 -46.5s-12.833 -23.5 -23.5 -31.5s-23.334 -14 -38.001 -18s-30 -6 -46 -6c-15.333 0 -30.666 1.83301 -45.999 5.5s-30.333 8.16699 -45 13.5z" />
    <glyph glyph-name="scedilla" unicode="&#x15f;" horiz-adv-x="500" 
d="M107 162c9.33301 -44.667 26.1729 -76.167 50.5059 -94.5s59.166 -27.5 104.499 -27.5c22 0 41 2.66699 57 8s29.167 12.5 39.5 21.5s18.166 19.167 23.499 30.5s8 23.333 8 36c0 25.333 -8.16699 44.166 -24.5 56.499s-36.833 22 -61.5 29s-51.334 13 -80.001 18
s-55.334 12.5 -80.001 22.5s-45.167 24.333 -61.5 43s-24.5 45 -24.5 79c0 43.333 15.833 78.833 47.5 106.5s76.5 41.5 134.5 41.5c56 0 101.5 -12.5 136.5 -37.5s56.167 -66.833 63.5 -125.5h-61c-5.33301 40 -20.5 68.167 -45.5 84.5s-56.5 24.5 -94.5 24.5
s-67 -8.16699 -87 -24.5s-30 -37.833 -30 -64.5c0 -23.333 8.16699 -41.166 24.5 -53.499s36.833 -22.333 61.5 -30s51.334 -14.5 80.001 -20.5s55.334 -14.5 80.001 -25.5s45.167 -25.833 61.5 -44.5s24.5 -44.667 24.5 -78c0 -24.667 -5.33301 -46.5 -16 -65.5
s-25.334 -34.833 -44.001 -47.5s-40.834 -22.167 -66.501 -28.5s-53.834 -9.5 -84.501 -9.5s-57.834 4.5 -81.501 13.5s-43.834 21.5 -60.501 37.5s-29.667 34.667 -39 56s-14.666 44.333 -15.999 69h61zM154.007 -172l31.498 -10c10.333 -3.33301 21.166 -5 32.499 -5
c7.33301 0 14.833 0.833008 22.5 2.5s14.834 4.33398 21.501 8.00098s12 8.5 16 14.5s6 13.333 6 22c0 13.333 -5.16699 23.166 -15.5 29.499s-21.833 9.5 -34.5 9.5c-7.33301 0 -14.666 -0.833008 -21.999 -2.5s-14.666 -3.5 -21.999 -5.5l-15 13l60 82h39l-47 -59l18 4
c6 1.33301 12 2 18 2c22 0 39.833 -5.5 53.5 -16.5s21.5 -22.833 23.5 -35.5c3.33301 -18 2.5 -33.5 -2.5 -46.5s-12.833 -23.5 -23.5 -31.5s-23.334 -14 -38.001 -18s-30 -6 -46 -6c-15.333 0 -30.666 1.83301 -45.999 5.5s-30.333 8.16699 -45 13.5z" />
    <glyph glyph-name="Scaron" unicode="&#x160;" horiz-adv-x="611" 
d="M109 215c2.66699 -32 9.83398 -59.166 21.501 -81.499s26.667 -40.5 45 -54.5s39.5 -24.167 63.5 -30.5s49.667 -9.5 77 -9.5c32 0 59.667 4 83 12s42.333 18.833 57 32.5s25.5 29.5 32.5 47.5s10.5 37 10.5 57c0 28 -6.33301 50.667 -19 68s-29.167 31.5 -49.5 42.5
s-43.666 19.833 -69.999 26.5s-53.333 13.167 -81 19.5s-54.667 13.833 -81 22.5s-49.666 20.334 -69.999 35.001s-36.833 33.5 -49.5 56.5s-19 52.167 -19 87.5c0 24.667 5.16699 48.667 15.5 72s25.666 44 45.999 62s45.833 32.333 76.5 43s66 16 106 16
c40.667 0 76.167 -5.66699 106.5 -17s55.5 -26.833 75.5 -46.5s35 -42.5 45 -68.5s15 -53.667 15 -83h-65c0 27.333 -4.83301 51 -14.5 71s-22.834 36.333 -39.501 49s-35.667 22 -57 28s-43.333 9 -66 9c-34.667 0 -63.834 -4.83301 -87.501 -14.5
s-42.5 -22.167 -56.5 -37.5s-23.667 -32.333 -29 -51s-6.33301 -37.334 -3 -56.001c4 -23.333 13.333 -42 28 -56s32.667 -25.5 54 -34.5s44.833 -16.333 70.5 -22l78.5 -18c26.667 -6.33301 52.5 -13.833 77.5 -22.5s47.167 -20.334 66.5 -35.001s34.833 -33.5 46.5 -56.5
s17.5 -51.833 17.5 -86.5c0 -66.667 -23 -118.334 -69 -155.001s-110.667 -55 -194 -55c-37.333 0 -72 4.83301 -104 14.5s-59.667 24.334 -83 44.001s-41.5 44 -54.5 73s-19.5 63.167 -19.5 102.5h66zM392 915.001h65l-113 -139h-67l-114 139h65l82 -102z" />
    <glyph glyph-name="scaron" unicode="&#x161;" horiz-adv-x="500" 
d="M107 162c9.33301 -44.667 26.1729 -76.167 50.5059 -94.5s59.166 -27.5 104.499 -27.5c22 0 41 2.66699 57 8s29.167 12.5 39.5 21.5s18.166 19.167 23.499 30.5s8 23.333 8 36c0 25.333 -8.16699 44.166 -24.5 56.499s-36.833 22 -61.5 29s-51.334 13 -80.001 18
s-55.334 12.5 -80.001 22.5s-45.167 24.333 -61.5 43s-24.5 45 -24.5 79c0 43.333 15.833 78.833 47.5 106.5s76.5 41.5 134.5 41.5c56 0 101.5 -12.5 136.5 -37.5s56.167 -66.833 63.5 -125.5h-61c-5.33301 40 -20.5 68.167 -45.5 84.5s-56.5 24.5 -94.5 24.5
s-67 -8.16699 -87 -24.5s-30 -37.833 -30 -64.5c0 -23.333 8.16699 -41.166 24.5 -53.499s36.833 -22.333 61.5 -30s51.334 -14.5 80.001 -20.5s55.334 -14.5 80.001 -25.5s45.167 -25.833 61.5 -44.5s24.5 -44.667 24.5 -78c0 -24.667 -5.33301 -46.5 -16 -65.5
s-25.334 -34.833 -44.001 -47.5s-40.834 -22.167 -66.501 -28.5s-53.834 -9.5 -84.501 -9.5s-57.834 4.5 -81.501 13.5s-43.834 21.5 -60.501 37.5s-29.667 34.667 -39 56s-14.666 44.333 -15.999 69h61zM337.007 713h65l-113 -139h-67l-114 139h65l82 -102z" />
    <glyph glyph-name="Tcedilla" unicode="&#x162;" 
d="M16 720h524v-58h-228v-662h-68v662h-228v58zM182 -158l31.498 -10c10.333 -3.33301 21.166 -5 32.499 -5c7.33301 0 14.833 0.833008 22.5 2.5s14.834 4.33398 21.501 8.00098s12 8.5 16 14.5s6 13.333 6 22c0 13.333 -5.16699 23.166 -15.5 29.499
s-21.833 9.5 -34.5 9.5c-7.33301 0 -14.666 -0.833008 -21.999 -2.5s-14.666 -3.5 -21.999 -5.5l-15 13l60 82h39l-47 -59l18 4c6 1.33301 12 2 18 2c22 0 39.833 -5.5 53.5 -16.5s21.5 -22.833 23.5 -35.5c3.33301 -18 2.5 -33.5 -2.5 -46.5s-12.833 -23.5 -23.5 -31.5
s-23.334 -14 -38.001 -18s-30 -6 -46 -6c-15.333 0 -30.666 1.83301 -45.999 5.5s-30.333 8.16699 -45 13.5z" />
    <glyph glyph-name="tcedilla" unicode="&#x163;" horiz-adv-x="278" 
d="M254 -2c-7.33301 -1.33301 -17 -3.66699 -29 -7s-25.333 -5 -40 -5c-30 0 -52.833 7.5 -68.5 22.5s-23.5 41.833 -23.5 80.5v379h-73v50h73v144h60v-144h97v-50h-97v-355c0 -12.667 0.333008 -23.667 1 -33s2.66699 -17 6 -23s8.5 -10.333 15.5 -13s16.833 -4 29.5 -4
c8 0 16.167 0.666992 24.5 2s16.5 3 24.5 5v-49zM41 -172.001l31.498 -10c10.333 -3.33301 21.166 -5 32.499 -5c7.33301 0 14.833 0.833008 22.5 2.5s14.834 4.33398 21.501 8.00098s12 8.5 16 14.5s6 13.333 6 22c0 13.333 -5.16699 23.166 -15.5 29.499
s-21.833 9.5 -34.5 9.5c-7.33301 0 -14.666 -0.833008 -21.999 -2.5s-14.666 -3.5 -21.999 -5.5l-15 13l60 82h39l-47 -59l18 4c6 1.33301 12 2 18 2c22 0 39.833 -5.5 53.5 -16.5s21.5 -22.833 23.5 -35.5c3.33301 -18 2.5 -33.5 -2.5 -46.5s-12.833 -23.5 -23.5 -31.5
s-23.334 -14 -38.001 -18s-30 -6 -46 -6c-15.333 0 -30.666 1.83301 -45.999 5.5s-30.333 8.16699 -45 13.5z" />
    <glyph glyph-name="Tcaron" unicode="&#x164;" 
d="M16 720h524v-58h-228v-662h-68v662h-228v58zM362 909h65l-113 -139h-67l-114 139h65l82 -102z" />
    <glyph glyph-name="tcaron" unicode="&#x165;" horiz-adv-x="500" 
d="M254 -2c-7.33301 -1.33301 -17 -3.66699 -29 -7s-25.333 -5 -40 -5c-30 0 -52.833 7.5 -68.5 22.5s-23.5 41.833 -23.5 80.5v379h-73v50h73v144h60v-144h97v-50h-97v-355c0 -12.667 0.333008 -23.667 1 -33s2.66699 -17 6 -23s8.5 -10.333 15.5 -13s16.833 -4 29.5 -4
c8 0 16.167 0.666992 24.5 2s16.5 3 24.5 5v-49zM431 601.999c0 -29.333 -6.83301 -52.8311 -20.5 -70.498s-31.167 -29.834 -52.5 -36.501v37c8 5.33301 15.667 12.666 23 21.999s11 24 11 44v34h-34v88h73v-118z" />
    <glyph glyph-name="Tbar" unicode="&#x166;" 
d="M130 396v50h114v216h-228v58h524v-58h-228v-216h108v-50h-108v-396h-68v396h-114z" />
    <glyph glyph-name="tbar" unicode="&#x167;" horiz-adv-x="278" 
d="M20 296v49.999h73v122h-73v50h73v144h60v-144h97v-50h-97v-122h97v-50h-97v-183c0 -12.667 0.333008 -23.667 1 -33s2.66699 -17 6 -23s8.5 -10.333 15.5 -13s16.833 -4 29.5 -4c8 0 16.167 0.666992 24.5 2s16.5 3 24.5 5v-49
c-7.33301 -1.33301 -17 -3.66602 -29 -6.99902s-25.333 -5 -40 -5c-30 0 -52.833 7.5 -68.5 22.5s-23.5 41.833 -23.5 80.5v207h-73z" />
    <glyph glyph-name="Utilde" unicode="&#x168;" horiz-adv-x="722" 
d="M82 720l67.999 -0.000976562v-429c0 -89.333 16.667 -153.666 50 -192.999s87 -59 161 -59c38.667 0 71.5 5.16699 98.5 15.5s48.833 26 65.5 47s28.667 47.167 36 78.5s11 68.333 11 111v429h68v-449c0 -94 -23.167 -165.833 -69.5 -215.5
s-116.166 -74.5 -209.499 -74.5c-94 0 -164 25.333 -210 76s-69 122 -69 214v449zM209.999 769.999c1.33301 12 3.66699 22.8311 7 32.498s7.66602 18.5 12.999 26.5c10 14 22.833 24.5 38.5 31.5s32.167 8.5 49.5 4.5c9.33301 -2 19.333 -5.33301 30 -10l32.5 -14.5
c11 -5 21.667 -9.33301 32 -13s19.833 -5.5 28.5 -5.5c14.667 0 25 5.33301 31 16s10.333 22 13 34h38c-0.666992 -6.66699 -1.83398 -13.167 -3.50098 -19.5s-3.16699 -12.5 -4.5 -18.5c-7.33301 -16 -16.666 -30 -27.999 -42s-26.666 -18 -45.999 -18
c-14 0 -27.167 2.33301 -39.5 7s-24.5 9.83398 -36.5 15.501s-23.833 10.834 -35.5 15.501s-23.167 7 -34.5 7c-15.333 0 -26.333 -5 -33 -15s-12 -21.333 -16 -34h-36z" />
    <glyph glyph-name="utilde" unicode="&#x169;" 
d="M423 518l59.998 0.000976562v-518h-60v72c-8 -9.33301 -17 -19 -27 -29s-21.5 -19.167 -34.5 -27.5s-28.167 -15.333 -45.5 -21s-37.333 -8.5 -60 -8.5c-34.667 0 -63.667 4.83301 -87 14.5s-42.166 23.167 -56.499 40.5s-24.666 37.5 -30.999 60.5
s-9.5 48.167 -9.5 75.5v341h60v-340c0 -44.667 10.333 -78.834 31 -102.501s54.667 -35.5 102 -35.5c24.667 0 46.834 4.83301 66.501 14.5s36.167 23.167 49.5 40.5s23.666 38 30.999 62s11 50.333 11 79v282zM125.998 568.001c1.33301 12 3.66699 22.8311 7 32.498
s7.66602 18.5 12.999 26.5c10 14 22.833 24.5 38.5 31.5s32.167 8.5 49.5 4.5c9.33301 -2 19.333 -5.33301 30 -10l32.5 -14.5c11 -5 21.667 -9.33301 32 -13s19.833 -5.5 28.5 -5.5c14.667 0 25 5.33301 31 16s10.333 22 13 34h38
c-0.666992 -6.66699 -1.83398 -13.167 -3.50098 -19.5s-3.16699 -12.5 -4.5 -18.5c-7.33301 -16 -16.666 -30 -27.999 -42s-26.666 -18 -45.999 -18c-14 0 -27.167 2.33301 -39.5 7s-24.5 9.83398 -36.5 15.501s-23.833 10.834 -35.5 15.501s-23.167 7 -34.5 7
c-15.333 0 -26.333 -5 -33 -15s-12 -21.333 -16 -34h-36z" />
    <glyph glyph-name="Umacron" unicode="&#x16a;" horiz-adv-x="722" 
d="M82 720l67.999 -0.000976562v-429c0 -89.333 16.667 -153.666 50 -192.999s87 -59 161 -59c38.667 0 71.5 5.16699 98.5 15.5s48.833 26 65.5 47s28.667 47.167 36 78.5s11 68.333 11 111v429h68v-449c0 -94 -23.167 -165.833 -69.5 -215.5
s-116.166 -74.5 -209.499 -74.5c-94 0 -164 25.333 -210 76s-69 122 -69 214v449zM212.999 814.999h296v-45h-296v45z" />
    <glyph glyph-name="umacron" unicode="&#x16b;" 
d="M423 518l59.998 0.000976562v-518h-60v72c-8 -9.33301 -17 -19 -27 -29s-21.5 -19.167 -34.5 -27.5s-28.167 -15.333 -45.5 -21s-37.333 -8.5 -60 -8.5c-34.667 0 -63.667 4.83301 -87 14.5s-42.166 23.167 -56.499 40.5s-24.666 37.5 -30.999 60.5
s-9.5 48.167 -9.5 75.5v341h60v-340c0 -44.667 10.333 -78.834 31 -102.501s54.667 -35.5 102 -35.5c24.667 0 46.834 4.83301 66.501 14.5s36.167 23.167 49.5 40.5s23.666 38 30.999 62s11 50.333 11 79v282zM128.998 613.001h296v-45h-296v45z" />
    <glyph glyph-name="Ubreve" unicode="&#x16c;" horiz-adv-x="722" 
d="M82 720l67.999 -0.000976562v-429c0 -89.333 16.667 -153.666 50 -192.999s87 -59 161 -59c38.667 0 71.5 5.16699 98.5 15.5s48.833 26 65.5 47s28.667 47.167 36 78.5s11 68.333 11 111v429h68v-449c0 -94 -23.167 -165.833 -69.5 -215.5
s-116.166 -74.5 -209.499 -74.5c-94 0 -164 25.333 -210 76s-69 122 -69 214v449zM255.999 895.999c5.33301 -28 17.168 -48.5 35.501 -61.5s41.5 -19.5 69.5 -19.5s51 6.5 69 19.5s30.667 33.5 38 61.5h37c-4.66699 -42 -20.334 -73.5 -47.001 -94.5
s-60.667 -31.5 -102 -31.5c-40 0 -72.333 11 -97 33s-38.667 53 -42 93h39z" />
    <glyph glyph-name="ubreve" unicode="&#x16d;" 
d="M423 518l59.998 0.000976562v-518h-60v72c-8 -9.33301 -17 -19 -27 -29s-21.5 -19.167 -34.5 -27.5s-28.167 -15.333 -45.5 -21s-37.333 -8.5 -60 -8.5c-34.667 0 -63.667 4.83301 -87 14.5s-42.166 23.167 -56.499 40.5s-24.666 37.5 -30.999 60.5
s-9.5 48.167 -9.5 75.5v341h60v-340c0 -44.667 10.333 -78.834 31 -102.501s54.667 -35.5 102 -35.5c24.667 0 46.834 4.83301 66.501 14.5s36.167 23.167 49.5 40.5s23.666 38 30.999 62s11 50.333 11 79v282zM171.998 694.001c5.33301 -28 17.168 -48.5 35.501 -61.5
s41.5 -19.5 69.5 -19.5s51 6.5 69 19.5s30.667 33.5 38 61.5h37c-4.66699 -42 -20.334 -73.5 -47.001 -94.5s-60.667 -31.5 -102 -31.5c-40 0 -72.333 11 -97 33s-38.667 53 -42 93h39z" />
    <glyph glyph-name="Uring" unicode="&#x16e;" horiz-adv-x="722" 
d="M82 720l67.999 -0.000976562v-429c0 -89.333 16.667 -153.666 50 -192.999s87 -59 161 -59c38.667 0 71.5 5.16699 98.5 15.5s48.833 26 65.5 47s28.667 47.167 36 78.5s11 68.333 11 111v429h68v-449c0 -94 -23.167 -165.833 -69.5 -215.5
s-116.166 -74.5 -209.499 -74.5c-94 0 -164 25.333 -210 76s-69 122 -69 214v449zM367.999 769.999c-13.333 0 -26.166 2.66699 -38.499 8s-23 12.5 -32 21.5s-16.167 19.5 -21.5 31.5s-8 24.667 -8 38s2.66699 26 8 38s12.666 22.667 21.999 32s20 16.666 32 21.999
s24.667 8 38 8s26 -2.66699 38 -8s22.5 -12.666 31.5 -21.999s16.167 -20 21.5 -32s8 -24.667 8 -38s-2.66699 -26 -8 -38s-12.5 -22.5 -21.5 -31.5s-19.5 -16.167 -31.5 -21.5s-24.667 -8 -38 -8zM367.999 802.999c17.333 0 32.667 6.66797 46 20.001s20 28.666 20 45.999
s-6.5 32.833 -19.5 46.5s-28.5 20.5 -46.5 20.5s-33.667 -6.66699 -47 -20s-20 -29 -20 -47s6.83301 -33.5 20.5 -46.5s29.167 -19.5 46.5 -19.5z" />
    <glyph glyph-name="uring" unicode="&#x16f;" 
d="M423 518l59.998 0.000976562v-518h-60v72c-8 -9.33301 -17 -19 -27 -29s-21.5 -19.167 -34.5 -27.5s-28.167 -15.333 -45.5 -21s-37.333 -8.5 -60 -8.5c-34.667 0 -63.667 4.83301 -87 14.5s-42.166 23.167 -56.499 40.5s-24.666 37.5 -30.999 60.5
s-9.5 48.167 -9.5 75.5v341h60v-340c0 -44.667 10.333 -78.834 31 -102.501s54.667 -35.5 102 -35.5c24.667 0 46.834 4.83301 66.501 14.5s36.167 23.167 49.5 40.5s23.666 38 30.999 62s11 50.333 11 79v282zM283.998 568.001c-13.333 0 -26.166 2.66699 -38.499 8
s-23 12.5 -32 21.5s-16.167 19.5 -21.5 31.5s-8 24.667 -8 38s2.66699 26 8 38s12.666 22.667 21.999 32s20 16.666 32 21.999s24.667 8 38 8s26 -2.66699 38 -8s22.5 -12.666 31.5 -21.999s16.167 -20 21.5 -32s8 -24.667 8 -38s-2.66699 -26 -8 -38
s-12.5 -22.5 -21.5 -31.5s-19.5 -16.167 -31.5 -21.5s-24.667 -8 -38 -8zM283.998 601.001c17.333 0 32.667 6.66797 46 20.001s20 28.666 20 45.999s-6.5 32.833 -19.5 46.5s-28.5 20.5 -46.5 20.5s-33.667 -6.66699 -47 -20s-20 -29 -20 -47s6.83301 -33.5 20.5 -46.5
s29.167 -19.5 46.5 -19.5z" />
    <glyph glyph-name="Uhungarumlaut" unicode="&#x170;" horiz-adv-x="722" 
d="M82 720l67.999 -0.000976562v-429c0 -89.333 16.667 -153.666 50 -192.999s87 -59 161 -59c38.667 0 71.5 5.16699 98.5 15.5s48.833 26 65.5 47s28.667 47.167 36 78.5s11 68.333 11 111v429h68v-449c0 -94 -23.167 -165.833 -69.5 -215.5
s-116.166 -74.5 -209.499 -74.5c-94 0 -164 25.333 -210 76s-69 122 -69 214v449zM185.999 769.999l111 139h77l-137 -139h-51zM347.999 769.999l111 139h77l-137 -139h-51z" />
    <glyph glyph-name="uhungarumlaut" unicode="&#x171;" 
d="M423 518l59.998 0.000976562v-518h-60v72c-8 -9.33301 -17 -19 -27 -29s-21.5 -19.167 -34.5 -27.5s-28.167 -15.333 -45.5 -21s-37.333 -8.5 -60 -8.5c-34.667 0 -63.667 4.83301 -87 14.5s-42.166 23.167 -56.499 40.5s-24.666 37.5 -30.999 60.5
s-9.5 48.167 -9.5 75.5v341h60v-340c0 -44.667 10.333 -78.834 31 -102.501s54.667 -35.5 102 -35.5c24.667 0 46.834 4.83301 66.501 14.5s36.167 23.167 49.5 40.5s23.666 38 30.999 62s11 50.333 11 79v282zM101.998 568.001l111 139h77l-137 -139h-51zM263.998 568.001
l111 139h77l-137 -139h-51z" />
    <glyph glyph-name="Uogonek" unicode="&#x172;" horiz-adv-x="722" 
d="M82 720l67.999 -0.000976562v-429c0 -89.333 16.667 -153.666 50 -192.999s87 -59 161 -59c38.667 0 71.5 5.16699 98.5 15.5s48.833 26 65.5 47s28.667 47.167 36 78.5s11 68.333 11 111v429h68v-449c0 -94 -23.167 -165.833 -69.5 -215.5
s-116.166 -74.5 -209.499 -74.5c-94 0 -164 25.333 -210 76s-69 122 -69 214v449zM408.999 -19.001l0.000976562 -1.99902c-8 -4 -16.667 -8.83301 -26 -14.5s-18 -12.334 -26 -20.001s-14.667 -15.834 -20 -24.501s-8 -18 -8 -28c0 -19.333 6.83301 -33.666 20.5 -42.999
s29.167 -14 46.5 -14c14 0 28 3 42 9v-44c-17.333 -6 -34.666 -9 -51.999 -9c-13.333 0 -26 1.83301 -38 5.5s-22.833 9.16699 -32.5 16.5s-17.334 16.5 -23.001 27.5s-8.5 23.5 -8.5 37.5c0 23.333 7.66699 43.833 23 61.5s32.666 31.5 51.999 41.5h50z" />
    <glyph glyph-name="uogonek" unicode="&#x173;" 
d="M423 518l59.998 0.000976562v-518h-60v72c-8 -9.33301 -17 -19 -27 -29s-21.5 -19.167 -34.5 -27.5s-28.167 -15.333 -45.5 -21s-37.333 -8.5 -60 -8.5c-34.667 0 -63.667 4.83301 -87 14.5s-42.166 23.167 -56.499 40.5s-24.666 37.5 -30.999 60.5
s-9.5 48.167 -9.5 75.5v341h60v-340c0 -44.667 10.333 -78.834 31 -102.501s54.667 -35.5 102 -35.5c24.667 0 46.834 4.83301 66.501 14.5s36.167 23.167 49.5 40.5s23.666 38 30.999 62s11 50.333 11 79v282zM324.998 -13.999l0.000976562 -1.99902
c-8 -4 -16.667 -8.83301 -26 -14.5s-18 -12.334 -26 -20.001s-14.667 -15.834 -20 -24.501s-8 -18 -8 -28c0 -19.333 6.83301 -33.666 20.5 -42.999s29.167 -14 46.5 -14c14 0 28 3 42 9v-44c-17.333 -6 -34.666 -9 -51.999 -9c-13.333 0 -26 1.83301 -38 5.5
s-22.833 9.16699 -32.5 16.5s-17.334 16.5 -23.001 27.5s-8.5 23.5 -8.5 37.5c0 23.333 7.66699 43.833 23 61.5s32.666 31.5 51.999 41.5h50z" />
    <glyph glyph-name="Wcircumflex" unicode="&#x174;" horiz-adv-x="889" 
d="M646 96h2l157 624h70l-189 -720h-75l-167 636h-2l-167 -636h-75l-186 720h68l155 -624h2l167 624h76zM362 770h-65l114 139h67l113 -139h-65l-82 102z" />
    <glyph glyph-name="wcircumflex" unicode="&#x175;" horiz-adv-x="722" 
d="M510 80l136 438h61l-168 -518h-64l-113 435h-2l-115 -435h-72l-158 518h60l134 -442l120 442h67zM279 568h-65l114 139h67l113 -139h-65l-82 102z" />
    <glyph glyph-name="Ycircumflex" unicode="&#x176;" horiz-adv-x="611" 
d="M302 373l217 347h79l-261 -406v-314h-68v309l-257 411h78zM223 770h-65l114 139h67l113 -139h-65l-82 102z" />
    <glyph glyph-name="ycircumflex" unicode="&#x177;" horiz-adv-x="500" 
d="M68 -141l24.5 -3.99902c8.33301 -1.33301 16.833 -2 25.5 -2c16.667 0 30.334 5.33301 41.001 16s19.5 23.5 26.5 38.5s12.833 30.667 17.5 47s10 30.166 16 41.499l-201 522h67l166 -445l166 445h65l-193 -511c-12 -32.667 -23.5 -62 -34.5 -88
s-22.667 -48.167 -35 -66.5s-26 -32.333 -41 -42s-32.833 -14.5 -53.5 -14.5c-10.667 0 -20.834 0.666992 -30.501 2s-18.5 3 -26.5 5v56zM168 568.001h-65l114 139h67l113 -139h-65l-82 102z" />
    <glyph glyph-name="Ydieresis" unicode="&#x178;" horiz-adv-x="611" 
d="M302 373l217 347h79l-261 -406v-314h-68v309l-257 411h78zM199 888h65v-102h-65v102zM358 888h65v-102h-65v102z" />
    <glyph glyph-name="Zacute" unicode="&#x179;" horiz-adv-x="611" 
d="M31 0v57l461 605h-422v58h506v-57l-461 -605h464v-58h-548zM213 770l111 139h77l-137 -139h-51z" />
    <glyph glyph-name="zacute" unicode="&#x17a;" horiz-adv-x="500" 
d="M33 0v53l344 415h-321v50h398v-53l-344 -415h357v-50h-434zM158 568l111 139h77l-137 -139h-51z" />
    <glyph glyph-name="Zdotaccent" unicode="&#x17b;" horiz-adv-x="611" 
d="M31 0v57l461 605h-422v58h506v-57l-461 -605h464v-58h-548zM272 872h65v-102h-65v102z" />
    <glyph glyph-name="zdotaccent" unicode="&#x17c;" horiz-adv-x="500" 
d="M33 0v53l344 415h-321v50h398v-53l-344 -415h357v-50h-434zM217 670h65v-102h-65v102z" />
    <glyph glyph-name="Zcaron" unicode="&#x17d;" horiz-adv-x="611" 
d="M31 0v57l461 605h-422v58h506v-57l-461 -605h464v-58h-548zM392 915h65l-113 -139h-67l-114 139h65l82 -102z" />
    <glyph glyph-name="zcaron" unicode="&#x17e;" horiz-adv-x="500" 
d="M33 0v53l344 415h-321v50h398v-53l-344 -415h357v-50h-434zM337 713h65l-113 -139h-67l-114 139h65l82 -102z" />
    <glyph glyph-name="longs" unicode="&#x17f;" horiz-adv-x="278" 
d="M20 468v50h77v82c0 41.333 8.33301 74 25 98s45 36 85 36c9.33301 0 18 -0.333008 26 -1s16 -1.66699 24 -3v-55c-13.333 3.33301 -25.333 5 -36 5c-15.333 0 -27.333 -2.83301 -36 -8.5s-15 -13.167 -19 -22.5s-6.5 -19.833 -7.5 -31.5s-1.5 -23.5 -1.5 -35.5v-582h-60
v468h-77z" />
    <glyph glyph-name="uni0180" unicode="&#x180;" horiz-adv-x="611" 
d="M111 648l-0.000976562 71.998h60v-72h113v-46h-113v-167c19.333 32 45.833 56.167 79.5 72.5s68.834 24.5 105.501 24.5c39.333 0 73.5 -7.5 102.5 -22.5s53 -35 72 -60s33.167 -54.167 42.5 -87.5s14 -68 14 -104c0 -38 -4.33301 -73.667 -13 -107
s-22.5 -62.166 -41.5 -86.499s-43.167 -43.5 -72.5 -57.5s-65 -21 -107 -21c-16.667 0 -33.667 2.33301 -51 7s-34.166 11.334 -50.499 20.001s-31.333 19.5 -45 32.5s-24.834 28.167 -33.501 45.5h-2v-91h-60v602h-72v46h72zM170.999 260.998
c0 -31.333 3.83594 -60.498 11.5029 -87.498s18.834 -50.333 33.501 -70s33 -35.167 55 -46.5s47 -17 75 -17c25.333 0 48.666 4.5 69.999 13.5s40 22.167 56 39.5s28.5 38.5 37.5 63.5s13.5 53.833 13.5 86.5c1.33301 32.667 -1.33398 63.167 -8.00098 91.5
s-17.334 53.166 -32.001 74.499s-33.334 38.166 -56.001 50.499s-49.667 18.5 -81 18.5c-27.333 0 -51.833 -5.83301 -73.5 -17.5s-40 -27.334 -55 -47.001s-26.5 -42.667 -34.5 -69s-12 -54.166 -12 -83.499z" />
    <glyph glyph-name="uni0186" unicode="&#x186;" horiz-adv-x="722" 
d="M126 209c14 -61.333 40.0029 -104.995 78.0029 -130.995s87.667 -39 149 -39c43.333 0 80.666 8.66699 111.999 26s57.166 40.666 77.499 69.999s35.333 63.166 45 101.499s14.5 78.833 14.5 121.5c0 40 -4.16699 79.333 -12.5 118s-22.166 73.167 -41.499 103.5
s-45.333 54.833 -78 73.5s-73.667 28 -123 28c-30.667 0 -58.667 -5 -84 -15s-47.5 -23.833 -66.5 -41.5s-35 -38.5 -48 -62.5s-22.833 -50.333 -29.5 -79h-71c8 34.667 19.667 67.5 35 98.5s35.5 58.167 60.5 81.5s55.333 41.833 91 55.5s77.5 20.5 125.5 20.5
c55.333 0 102.666 -10.167 141.999 -30.5s71.5 -47.833 96.5 -82.5s43.167 -74.834 54.5 -120.501s17 -94.167 17 -145.5c0 -68.667 -8.5 -127 -25.5 -175s-40.5 -87.167 -70.5 -117.5s-65.333 -52.333 -106 -66s-85 -20.5 -133 -20.5
c-36.667 0 -70.834 4.83301 -102.501 14.5s-59.667 24.167 -84 43.5s-44.333 43.166 -60 71.499s-26.5 61.166 -32.5 98.499h70z" />
    <glyph glyph-name="uni0189" unicode="&#x189;" horiz-adv-x="722" 
d="M149 411l160.998 0.000976562v-58h-161v-295h163c30.667 0 59.5 1.83301 86.5 5.5s54.5 12.834 82.5 27.501c24 12 43.667 28.333 59 49s27.5 43.167 36.5 67.5s15.333 49.833 19 76.5s5.5 52.334 5.5 77.001c0 26 -1.66699 52.5 -5 79.5s-9.66602 52.667 -18.999 77
s-22 46.666 -38 66.999s-36.667 37.166 -62 50.499c-21.333 11.333 -46.666 18.666 -75.999 21.999s-59 5 -89 5h-163v-251zM80.998 720.001h246c20 0 39.667 -0.5 59 -1.5s38.333 -3.33301 57 -7s36.834 -9.16699 54.501 -16.5s34.834 -17 51.501 -29
c24 -17.333 43.667 -38.5 59 -63.5s27.5 -51.333 36.5 -79s15.333 -55.667 19 -84s5.5 -54.5 5.5 -78.5s-1.5 -48.333 -4.5 -73s-7.83301 -48.834 -14.5 -72.501s-15.5 -46.334 -26.5 -68.001s-24.833 -41.5 -41.5 -59.5c-16.667 -18.667 -34.834 -33.667 -54.501 -45
s-40.334 -20.166 -62.001 -26.499s-44.167 -10.666 -67.5 -12.999s-47 -3.5 -71 -3.5h-246v353h-71v58h71v309z" />
    <glyph glyph-name="uni018E" unicode="&#x18e;" horiz-adv-x="611" 
d="M570 720v-720h-479v58h411v260h-371v58h371v286h-421v58h489z" />
    <glyph glyph-name="uni018F" unicode="&#x18f;" horiz-adv-x="712" 
d="M351 671c-26 0 -51.1699 -4.50098 -75.5029 -13.501s-46.666 -21.333 -66.999 -37s-38 -34 -53 -55s-26.167 -43.5 -33.5 -67.5h-68c7.33301 35.333 20.5 67.333 39.5 96s42 53 69 73s56.667 35.333 89 46s65.5 16 99.5 16c58.667 0 108.834 -10.167 150.501 -30.5
s75.5 -47.666 101.5 -81.999s45 -74 57 -119s18 -91.833 18 -140.5c0 -49.333 -6.66699 -96.333 -20 -141s-33.666 -84 -60.999 -118s-61.833 -61.167 -103.5 -81.5s-90.5 -30.5 -146.5 -30.5c-46 0 -88.167 8.33301 -126.5 25s-71.333 41.5 -99 74.5s-49.167 74 -64.5 123
s-23 105.833 -23 170.5h575c-2 36.667 -7.66699 72.667 -17 108s-24 66.5 -44 93.5s-46 48.833 -78 65.5s-71.667 25 -119 25zM346.997 42.999c43.333 0 80.833 7.66699 112.5 23s58.167 36 79.5 62s37.5 55.667 48.5 89s17.833 68 20.5 104h-502
c0 -36 5.83301 -70.667 17.5 -104s28.167 -63 49.5 -89s46.833 -46.667 76.5 -62s62.167 -23 97.5 -23z" />
    <glyph glyph-name="florin" unicode="&#x192;" 
d="M519 665c-10.667 6 -21.6719 10.3311 -33.0049 12.998c-5.33301 1.33301 -11.666 2 -18.999 2s-15.666 -1 -24.999 -3c-19.333 -3.33301 -34.5 -13 -45.5 -29s-19.833 -35 -26.5 -57s-12.167 -45.833 -16.5 -71.5s-9.5 -49.5 -15.5 -71.5h115v-48h-123l-64 -336
c-7.33301 -35.333 -15.666 -68.666 -24.999 -99.999s-21.5 -58.833 -36.5 -82.5s-33.5 -42.5 -55.5 -56.5s-49 -21 -81 -21c-9.33301 0 -18.666 1 -27.999 3s-18.333 4.66699 -27 8l19 57c10 -6 18.333 -9.66699 25 -11s15.667 -2 27 -2c20 0 37 8.5 51 25.5
s26.833 41.833 38.5 74.5s22.334 72.334 32.001 119.001s19.834 100 30.501 160l29 162h-113v48h121l21 91.5c7.33301 33 17.666 64 30.999 93s31.333 53.167 54 72.5s52.667 29 90 29c13.333 0 25.5 -1.66699 36.5 -5s22.167 -8.33301 33.5 -15z" />
    </font>
</defs>
</svg>
